<svg width="411" height="356" viewBox="0 0 411 356" fill="none" xmlns="http://www.w3.org/2000/svg">
<g clip-path="url(#clip0)">
<path d="M205.596 279.229C282.036 279.229 344.003 217.262 344.003 140.822C344.003 64.3812 282.036 2.41406 205.596 2.41406C129.156 2.41406 67.1885 64.3812 67.1885 140.822C67.1885 217.262 129.156 279.229 205.596 279.229Z" stroke="#1DBDEF" stroke-width="3.26895" stroke-miterlimit="10"/>
<path d="M214.063 255.79L218.312 255.561L220.764 255.365L224.556 255.038L227.138 254.777L230.767 254.352L233.317 253.992L236.88 253.437L239.364 253.012L243.058 252.325L245.281 251.867C246.85 251.541 248.387 251.181 249.956 250.789L251.067 250.527C238.027 240.432 228.47 226.51 223.737 210.712C219.003 194.915 219.329 178.032 224.67 162.429C230.01 146.826 240.097 133.284 253.518 123.7C266.939 114.116 283.021 108.969 299.513 108.982C301.997 108.982 304.416 108.982 306.835 109.341C305.375 108.164 303.872 107.02 302.324 105.909L301.703 105.451C300.363 104.47 298.957 103.522 297.552 102.607L296.604 101.986L292.517 99.4689L291.406 98.8151L287.189 96.4615L286.045 95.8731C284.563 95.0885 283.059 94.3366 281.534 93.6175L280.488 93.1271L275.355 90.8389L274.734 90.5774C270.746 88.9102 266.66 87.3084 262.41 86.0335H262.051C260.122 85.4124 258.161 84.824 256.199 84.2683L254.467 83.8106L250.021 82.503L247.798 81.98L243.483 81.0647L240.966 80.5744L236.782 79.8552L234.101 79.4302L229.884 78.8745L227.171 78.5476L222.791 78.1226L220.143 77.8938C218.541 77.8938 216.874 77.6977 215.305 77.5996H212.984C210.597 77.5996 208.211 77.5996 205.792 77.5996C203.373 77.5996 200.954 77.5996 198.568 77.5996H196.279C194.645 77.5996 193.011 77.5996 191.441 77.8938L188.761 78.1226L184.413 78.5476L181.667 78.8745L177.45 79.4302L174.77 79.8552L170.585 80.5744L168.068 81.0647L163.753 81.98L161.53 82.503L156.856 83.7125L155.156 84.1702C153.162 84.7259 151.233 85.3143 149.305 85.9354H148.945C144.695 87.3084 140.577 88.8121 136.588 90.4793L136 90.7408C134.235 91.4927 132.535 92.2445 130.868 93.0291L129.822 93.5194C128.296 94.2386 126.792 94.9904 125.31 95.775L124.166 96.3634L119.917 98.717L118.838 99.3708C117.432 100.188 116.059 101.038 114.719 101.888L113.804 102.509C112.365 103.424 110.993 104.372 109.62 105.353L109.031 105.811C107.462 106.922 105.958 108.066 104.52 109.243C106.906 109.014 109.358 108.883 111.81 108.883C128.275 108.92 144.319 114.096 157.702 123.689C171.085 133.281 181.139 146.812 186.463 162.394C191.786 177.975 192.113 194.83 187.397 210.606C182.681 226.382 173.159 240.292 160.158 250.396L161.269 250.658C162.805 251.05 164.538 251.41 165.911 251.737L168.166 252.194L171.828 252.881L174.312 253.306L177.875 253.861L180.458 254.221L184.054 254.646L186.636 254.908L190.428 255.234L192.912 255.431L197.129 255.659H199.254C201.379 255.659 203.504 255.659 205.792 255.659C208.08 255.659 210.074 255.659 212.33 255.659L214.063 255.79Z" fill="#231F20"/>
<path d="M152.933 122.352C154.234 122.352 155.481 121.835 156.4 120.916C157.32 119.996 157.836 118.749 157.836 117.448C157.836 116.148 157.32 114.901 156.4 113.981C155.481 113.062 154.234 112.545 152.933 112.545C151.633 112.545 150.385 113.062 149.466 113.981C148.546 114.901 148.03 116.148 148.03 117.448C148.03 118.749 148.546 119.996 149.466 120.916C150.385 121.835 151.633 122.352 152.933 122.352Z" fill="black"/>
<path d="M327.626 178.904C339.399 165.664 355.028 156.449 372.313 152.557C378.805 151.064 384.695 147.646 389.213 142.75L390.096 141.835L390.684 141.181C392.449 139.317 394.149 137.454 395.784 135.624L396.83 134.447C398.301 132.747 399.772 131.178 401.177 129.38C401.57 128.955 401.929 128.497 402.289 128.072C403.662 126.438 405.002 124.803 406.277 123.169L407.323 121.861L410.2 118.069C403.935 122.384 397.174 125.929 390.063 128.628C385.667 130.315 381.155 131.68 376.562 132.714C371.848 133.783 366.954 133.779 362.241 132.704C357.528 131.629 353.117 129.51 349.332 126.503C336.258 115.93 320.153 109.801 303.357 109.007C286.562 108.213 269.95 112.796 255.938 122.09C268.11 136.683 274.691 155.13 274.505 174.132C274.505 202.637 260.514 227.383 239.985 239.903C247.397 248.439 256.557 255.283 266.844 259.97C277.132 264.656 288.306 267.077 299.611 267.068C303.825 267.074 308.034 266.746 312.196 266.087C306.121 251.609 304.346 235.687 307.082 220.225C309.818 204.764 316.951 190.419 327.626 178.904Z" fill="#7ECFD4"/>
<path d="M196.214 255.79L191.997 255.561L189.513 255.365L185.721 255.038L183.138 254.777L179.542 254.352L176.96 253.992L173.397 253.437L170.912 253.012L167.219 252.325L164.996 251.868C163.427 251.541 161.89 251.181 160.354 250.789L159.21 250.527C172.25 240.432 181.806 226.51 186.54 210.712C191.274 194.915 190.947 178.032 185.607 162.429C180.267 146.826 170.18 133.284 156.759 123.7C143.338 114.116 127.255 108.969 110.764 108.982C108.279 108.982 105.86 108.982 103.441 109.341C104.923 108.164 106.427 107.02 107.952 105.909L108.574 105.451C109.946 104.47 111.319 103.522 112.725 102.607L113.673 101.986L117.759 99.469L118.871 98.8152L123.088 96.4615L124.232 95.8731C125.736 95.0886 127.239 94.3367 128.743 93.6176L129.789 93.1272L134.921 90.8389L135.542 90.5774C139.531 88.9103 143.649 87.3085 147.866 86.0336H148.226C150.165 85.4234 152.127 84.835 154.11 84.2684L155.81 83.8107L160.484 82.6012L162.707 82.0782L167.022 81.1628L169.539 80.6725L173.724 79.9533L176.404 79.5284L180.621 78.9727L183.334 78.6458L187.715 78.2208L190.395 77.992L195.201 77.6978H197.522C199.908 77.6978 202.294 77.6978 204.713 77.6978C207.132 77.6978 209.551 77.6978 211.938 77.6978H214.259L219.064 77.992L221.745 78.2208L226.092 78.6458L228.838 78.9727L233.055 79.5284L235.736 79.9533L239.92 80.6725L242.437 81.1628L246.752 82.0782L248.975 82.6012L253.65 83.8107L255.349 84.2684C257.354 84.835 259.316 85.4234 261.234 86.0336H261.56C265.81 87.4066 269.929 88.9103 273.917 90.5774L274.538 90.8389C276.271 91.5908 277.971 92.3427 279.638 93.1272L280.717 93.6176C282.22 94.3367 283.724 95.0886 285.195 95.8731L286.372 96.4615L290.589 98.8152L291.668 99.469C293.073 100.286 294.446 101.136 295.786 101.986L296.734 102.607C298.14 103.522 299.513 104.47 300.886 105.451L301.507 105.909C303.043 107.02 304.547 108.164 305.986 109.341C303.599 109.112 301.147 108.982 298.696 108.982C282.237 109.004 266.195 114.165 252.81 123.742C239.424 133.32 229.362 146.837 224.028 162.408C218.694 177.978 218.353 194.826 223.054 210.6C227.755 226.373 237.262 240.286 250.25 250.396L249.106 250.658C247.569 251.05 246.033 251.41 244.464 251.737L242.208 252.194L238.547 252.881L236.063 253.306L232.499 253.862L229.917 254.221L226.321 254.646L223.739 254.908L219.947 255.235L217.462 255.431L213.245 255.66H211.121C208.996 255.66 206.871 255.66 204.583 255.66C202.294 255.66 200.3 255.66 198.045 255.66L196.214 255.79Z" fill="#231F20"/>
<path d="M82.7815 178.904C71.2549 165.941 56.0378 156.816 39.1737 152.753C31.9868 151.094 25.4485 147.353 20.3772 141.998C20.1538 141.796 19.9461 141.578 19.7561 141.344C18.0236 139.481 16.291 137.617 14.6566 135.787L13.6105 134.61C12.1395 132.91 10.6684 131.341 9.26279 129.543C8.87052 129.118 8.51095 128.66 8.15136 128.236C6.7784 126.601 5.43813 124.967 4.16324 123.332L3.11717 122.025L0.240479 118.233C10.0777 125.001 21.1006 129.858 32.7339 132.551C37.8143 133.735 43.0959 133.762 48.1883 132.63C53.2807 131.499 58.0536 129.237 62.1544 126.013C75.2229 115.751 91.1938 109.871 107.796 109.208C124.399 108.544 140.788 113.132 154.633 122.319C142.461 136.911 135.879 155.359 136.065 174.36C136.065 202.866 150.057 227.612 170.586 240.132C163.175 248.67 154.016 255.514 143.728 260.201C133.44 264.888 122.265 267.308 110.96 267.297C106.745 267.303 102.537 266.975 98.3744 266.316C104.456 251.789 106.22 235.817 103.454 220.313C100.688 204.81 93.5108 190.432 82.7815 178.904Z" fill="#195460"/>
<path d="M81.0817 106.301C92.907 106.301 102.493 96.7145 102.493 84.8892C102.493 73.0639 92.907 63.4775 81.0817 63.4775C69.2564 63.4775 59.67 73.0639 59.67 84.8892C59.67 96.7145 69.2564 106.301 81.0817 106.301Z" fill="#195460"/>
<path d="M204.713 68.0542C216.539 68.0542 226.125 58.4679 226.125 46.6426C226.125 34.8173 216.539 25.231 204.713 25.231C192.888 25.231 183.302 34.8173 183.302 46.6426C183.302 58.4679 192.888 68.0542 204.713 68.0542Z" fill="#231F20"/>
<path d="M332.497 106.301C344.322 106.301 353.908 96.7145 353.908 84.8892C353.908 73.0639 344.322 63.4775 332.497 63.4775C320.671 63.4775 311.085 73.0639 311.085 84.8892C311.085 96.7145 320.671 106.301 332.497 106.301Z" fill="#7ECFD4"/>
<path d="M114.981 307.211C115.737 308.505 116.194 309.951 116.319 311.445C116.443 312.938 116.232 314.44 115.7 315.841C115.29 317.046 114.646 318.157 113.804 319.11C112.957 320.009 111.933 320.721 110.796 321.202C109.658 321.724 108.42 321.992 107.168 321.987H97.0013V287.99H104.912C106.074 287.941 107.233 288.154 108.302 288.612C109.371 289.07 110.324 289.762 111.091 290.638C111.814 291.447 112.369 292.391 112.725 293.416C113.572 295.707 113.501 298.237 112.529 300.477C112.086 301.507 111.415 302.424 110.567 303.158L110.208 303.452L111.614 304.073C112.987 304.813 114.146 305.893 114.981 307.211ZM98.9627 302.635H104.88C105.51 302.693 106.145 302.693 106.776 302.635C107.303 302.51 107.818 302.335 108.312 302.112C109.165 301.621 109.893 300.938 110.437 300.118C111.116 299.092 111.458 297.881 111.417 296.652C111.432 295.591 111.173 294.544 110.666 293.612C110.171 292.638 109.412 291.822 108.475 291.259C107.402 290.646 106.18 290.341 104.945 290.376H98.9627V302.635ZM110.992 318.456C112.065 317.79 112.944 316.855 113.542 315.743C114.184 314.659 114.522 313.423 114.522 312.164C114.522 310.904 114.184 309.668 113.542 308.584C112.939 307.575 112.083 306.741 111.058 306.165C109.456 305.368 107.68 304.986 105.893 305.054H98.9627V319.502H107.168C108.516 319.523 109.842 319.16 110.992 318.456Z" fill="#231F20" stroke="#231F20" stroke-width="0.817238" stroke-miterlimit="10"/>
<path d="M122.826 321.856V287.859H140.773V290.245H124.755V303.648H137.242V305.969H124.755V319.306H140.773V321.791L122.826 321.856Z" fill="#231F20" stroke="#231F20" stroke-width="0.817238" stroke-miterlimit="10"/>
<path d="M174.835 321.856V294.952L162.577 316.462L150.122 294.919V321.856H148.226V287.434L162.577 312.31L176.764 287.434V321.856H174.835Z" fill="#231F20" stroke="#231F20" stroke-width="0.817238" stroke-miterlimit="10"/>
<path d="M209.224 316.56L219.718 287.859H221.843L209.224 322.314L196.672 287.761H198.764L209.224 316.56Z" fill="#231F20" stroke="#231F20" stroke-width="0.817238" stroke-miterlimit="10"/>
<path d="M228.348 321.856V287.859H230.407V321.856H228.348Z" fill="#231F20" stroke="#231F20" stroke-width="0.817238" stroke-miterlimit="10"/>
<path d="M249.138 316.56L259.632 287.859H261.757L249.138 322.314L236.586 287.761H238.678L249.138 316.56Z" fill="#231F20" stroke="#231F20" stroke-width="0.817238" stroke-miterlimit="10"/>
<path d="M267.739 321.856V287.859H285.685V290.245H269.635V303.648H282.122V305.969H269.635V319.306H285.652V321.791L267.739 321.856Z" fill="#231F20" stroke="#231F20" stroke-width="0.817238" stroke-miterlimit="10"/>
<path d="M309.32 321.856L297.813 304.694H301.082C302.839 304.769 304.587 304.421 306.182 303.68C307.265 303.025 308.163 302.106 308.792 301.007C309.421 299.909 309.76 298.669 309.778 297.404C309.764 296.171 309.44 294.961 308.834 293.886C308.228 292.812 307.361 291.908 306.312 291.258C305.168 290.541 303.838 290.177 302.488 290.212H294.74V321.856H292.812V287.858H302.619C303.879 287.839 305.129 288.095 306.28 288.61C307.418 289.101 308.434 289.838 309.254 290.768C310.113 291.71 310.759 292.824 311.15 294.037C311.594 295.161 311.816 296.359 311.804 297.567C311.842 299.388 311.354 301.181 310.399 302.732C309.631 304.102 308.499 305.233 307.13 306.001C306.331 306.459 305.456 306.769 304.547 306.916C303.671 307.049 302.786 307.115 301.899 307.113L311.902 322.019L309.32 321.856Z" fill="#231F20" stroke="#231F20" stroke-width="0.817238" stroke-miterlimit="10"/>
<path d="M98.0148 333.755H310.497" stroke="#231F20" stroke-width="1.63448" stroke-miterlimit="10"/>
<path d="M142.342 355.003H138.354C137.375 355.023 136.41 354.762 135.575 354.251C134.725 353.776 134.023 353.075 133.548 352.225C133.049 351.372 132.79 350.401 132.796 349.413C132.797 348.437 133.056 347.478 133.548 346.635C134.032 345.792 134.732 345.092 135.575 344.608C136.41 344.097 137.375 343.836 138.354 343.856C139.107 343.859 139.852 344.015 140.544 344.314C141.253 344.622 141.889 345.079 142.407 345.654L141.851 346.177C141.399 345.693 140.854 345.304 140.25 345.033C139.56 344.736 138.81 344.606 138.061 344.651C137.312 344.696 136.583 344.917 135.935 345.294C135.22 345.716 134.624 346.312 134.202 347.027C133.774 347.755 133.548 348.585 133.548 349.43C133.548 350.274 133.774 351.104 134.202 351.832C134.613 352.564 135.211 353.173 135.935 353.597C136.669 354.026 137.504 354.251 138.354 354.251H141.622V350.296H137.896V349.544H142.342V355.003Z" fill="black"/>
<path d="M145.578 355.003V343.987H152.737V344.771H146.362V349.119H151.331V349.871H146.362V354.219H152.737V355.003H145.578Z" fill="black"/>
<path d="M162.478 350.622C162.755 351.015 162.904 351.483 162.903 351.963C162.903 352.384 162.802 352.798 162.609 353.172C162.397 353.565 162.094 353.901 161.727 354.153C160.919 354.735 159.943 355.034 158.948 355.003C158.451 355.006 157.956 354.94 157.477 354.807C157.015 354.669 156.583 354.447 156.202 354.153C155.901 353.956 155.642 353.702 155.44 353.405C155.238 353.107 155.097 352.773 155.025 352.42L155.744 351.995C155.756 352.308 155.846 352.612 156.006 352.881C156.166 353.149 156.391 353.373 156.66 353.532C156.977 353.764 157.33 353.94 157.706 354.055C158.108 354.176 158.528 354.231 158.948 354.218C159.765 354.247 160.57 354.006 161.236 353.532C161.512 353.373 161.742 353.144 161.902 352.869C162.063 352.594 162.149 352.281 162.152 351.963C162.132 351.612 162.019 351.274 161.825 350.982C161.568 350.665 161.244 350.408 160.877 350.23C160.242 349.963 159.569 349.797 158.883 349.74H158.033C157.592 349.683 157.163 349.562 156.758 349.38C156.235 349.142 155.784 348.77 155.45 348.301C155.163 347.876 155.004 347.377 154.993 346.863C154.989 346.452 155.09 346.047 155.287 345.686C155.511 345.293 155.825 344.957 156.202 344.706C156.583 344.411 157.015 344.19 157.477 344.052C157.956 343.918 158.451 343.852 158.948 343.856C159.943 343.825 160.919 344.124 161.727 344.706C162.023 344.904 162.277 345.159 162.473 345.457C162.67 345.754 162.805 346.088 162.871 346.438L162.152 346.83C162.129 346.541 162.04 346.262 161.89 346.013C161.728 345.728 161.505 345.483 161.236 345.294C160.919 345.062 160.566 344.885 160.19 344.771C159.376 344.553 158.52 344.553 157.706 344.771C157.33 344.885 156.977 345.062 156.66 345.294C156.39 345.491 156.158 345.735 155.973 346.013C155.837 346.277 155.759 346.567 155.744 346.863C155.763 347.244 155.9 347.61 156.137 347.909C156.403 348.239 156.737 348.507 157.117 348.694C157.364 348.82 157.629 348.908 157.902 348.955H159.013H159.602C159.911 349.002 160.216 349.067 160.517 349.151C160.783 349.203 161.038 349.303 161.269 349.446C161.761 349.734 162.176 350.138 162.478 350.622Z" fill="black"/>
<path d="M174.149 343.856V344.641H169.801V355.003H169.016V344.771H164.636V343.987L174.149 343.856Z" fill="black"/>
<path d="M176.535 352.094L175.227 354.872H174.377L179.575 343.725L184.642 355.003H183.825L182.582 352.224L176.535 352.094ZM177.123 342.516C177.217 342.402 177.327 342.302 177.45 342.221C177.63 342.054 177.86 341.95 178.104 341.927C178.401 341.936 178.687 342.039 178.921 342.221C179.285 342.481 179.717 342.629 180.163 342.646H180.523C180.954 342.567 181.352 342.363 181.667 342.058L182.027 341.6L181.406 341.175V341.371L181.046 341.698C180.901 341.802 180.733 341.869 180.556 341.894H180.327C180.029 341.892 179.741 341.789 179.51 341.6C179.154 341.325 178.717 341.175 178.267 341.175H177.875C177.613 341.204 177.363 341.306 177.156 341.47C176.961 341.597 176.785 341.751 176.633 341.927C176.633 341.927 176.437 342.156 176.437 342.221L177.058 342.614L177.123 342.516ZM179.542 345.588L176.894 351.309H182.059L179.542 345.588Z" fill="black"/>
<path d="M191.343 355.003C190.356 355.006 189.386 354.747 188.532 354.251C187.694 353.745 186.997 353.037 186.505 352.191C186.009 351.338 185.75 350.367 185.753 349.38C185.75 348.382 186.01 347.402 186.505 346.536C186.997 345.69 187.694 344.982 188.532 344.476C189.386 343.981 190.356 343.721 191.343 343.725C192.32 343.722 193.28 343.982 194.122 344.476C194.969 344.981 195.677 345.689 196.181 346.536C196.677 347.402 196.936 348.382 196.933 349.38C196.937 350.367 196.677 351.338 196.181 352.191C195.677 353.039 194.969 353.746 194.122 354.251C193.28 354.745 192.32 355.005 191.343 355.003ZM191.343 344.509C190.493 344.509 189.659 344.735 188.924 345.163C188.198 345.595 187.591 346.202 187.159 346.928C186.732 347.669 186.507 348.509 186.507 349.364C186.507 350.219 186.732 351.058 187.159 351.799C187.591 352.525 188.198 353.132 188.924 353.564C189.659 353.992 190.493 354.218 191.343 354.218C192.183 354.218 193.007 353.992 193.73 353.564C194.47 353.151 195.081 352.54 195.495 351.799C195.922 351.058 196.148 350.219 196.148 349.364C196.148 348.509 195.922 347.669 195.495 346.928C195.081 346.188 194.47 345.576 193.73 345.163C193.007 344.735 192.183 344.509 191.343 344.509Z" fill="black"/>
<path d="M204.91 355.003V343.987H212.069V344.771H205.694V349.119H210.794V349.871H205.825V354.219H212.199V355.003H204.91Z" fill="black"/>
<path d="M225.569 355.003V346.275L220.6 353.14L215.664 346.144V355.003H214.88V343.856L220.6 351.734L226.256 343.66V355.003H225.569Z" fill="black"/>
<path d="M242.241 350.622C242.527 351.012 242.687 351.48 242.699 351.963C242.687 352.386 242.575 352.801 242.372 353.172C242.17 353.572 241.865 353.91 241.489 354.153C240.694 354.735 239.728 355.034 238.743 355.003C238.235 355.006 237.729 354.941 237.239 354.807C236.778 354.669 236.346 354.447 235.965 354.153C235.663 353.957 235.404 353.702 235.202 353.405C235 353.107 234.859 352.773 234.788 352.42L235.54 351.995C235.551 352.308 235.641 352.612 235.801 352.881C235.961 353.149 236.186 353.373 236.455 353.532C236.759 353.764 237.102 353.941 237.468 354.055C237.882 354.177 238.312 354.233 238.743 354.218C239.56 354.242 240.363 354.001 241.031 353.532C241.297 353.364 241.517 353.133 241.671 352.859C241.825 352.585 241.908 352.277 241.914 351.963C241.912 351.609 241.797 351.266 241.587 350.982C241.343 350.666 241.03 350.408 240.672 350.23C240.035 349.969 239.363 349.803 238.678 349.74H237.795C237.364 349.688 236.945 349.567 236.553 349.38C236.025 349.15 235.571 348.777 235.245 348.301C234.934 347.886 234.762 347.382 234.755 346.863C234.746 346.447 234.86 346.038 235.082 345.686C235.284 345.287 235.588 344.948 235.965 344.706C236.346 344.411 236.778 344.19 237.239 344.052C237.729 343.918 238.235 343.852 238.743 343.856C239.728 343.825 240.694 344.124 241.489 344.706C242.085 345.115 242.505 345.733 242.666 346.438L241.914 346.83C241.904 346.544 241.826 346.263 241.685 346.013C241.504 345.742 241.284 345.5 241.031 345.294C240.711 345.068 240.358 344.892 239.985 344.771C239.573 344.723 239.156 344.723 238.743 344.771C238.331 344.721 237.913 344.721 237.501 344.771C237.124 344.881 236.769 345.058 236.455 345.294C236.185 345.491 235.953 345.735 235.768 346.013C235.617 346.271 235.538 346.564 235.54 346.863C235.558 347.244 235.695 347.61 235.932 347.909C236.177 348.246 236.503 348.516 236.88 348.694C237.127 348.82 237.391 348.908 237.664 348.955H238.776H239.364C239.673 349.002 239.979 349.067 240.28 349.151C240.546 349.203 240.801 349.303 241.031 349.446C241.531 349.725 241.948 350.131 242.241 350.622Z" fill="black"/>
<path d="M246.425 352.093L245.118 354.872H244.268L249.465 343.725L254.369 354.872H253.519L252.277 352.093H246.425ZM249.433 345.555L246.785 351.276H251.95L249.433 345.555Z" fill="black"/>
<path d="M260.351 355.003C259.801 354.993 259.259 354.882 258.749 354.676C258.241 354.441 257.776 354.121 257.376 353.728C256.609 352.914 256.177 351.84 256.167 350.721V343.856H256.918V350.721C256.916 351.195 257.016 351.663 257.213 352.094C257.374 352.51 257.619 352.888 257.932 353.205C258.246 353.53 258.625 353.786 259.043 353.957C259.459 354.125 259.903 354.214 260.351 354.219C260.81 354.214 261.264 354.126 261.691 353.957C262.11 353.786 262.488 353.53 262.803 353.205C263.119 352.884 263.374 352.507 263.554 352.094C263.723 351.656 263.812 351.191 263.816 350.721V343.856H264.568V350.721C264.557 351.84 264.126 352.914 263.358 353.728C262.964 354.128 262.498 354.449 261.985 354.676C261.465 354.885 260.911 354.996 260.351 355.003ZM260.612 341.012H262.018L260.089 342.712H259.207L260.612 341.012Z" fill="black"/>
<path d="M270.811 355.003H267.543V343.987H270.811C271.553 343.973 272.288 344.118 272.969 344.412C273.634 344.688 274.227 345.113 274.702 345.654C275.176 346.151 275.544 346.741 275.78 347.386C276.259 348.74 276.259 350.217 275.78 351.571C275.537 352.223 275.17 352.822 274.702 353.336C274.218 353.867 273.628 354.291 272.969 354.578C272.288 354.872 271.553 355.017 270.811 355.003ZM268.392 354.251H270.811C271.428 354.261 272.039 354.137 272.603 353.889C273.167 353.641 273.671 353.274 274.08 352.813C274.483 352.378 274.794 351.866 274.996 351.309C275.204 350.721 275.315 350.103 275.323 349.479C275.315 348.865 275.204 348.258 274.996 347.681C274.802 347.12 274.49 346.607 274.08 346.177C273.67 345.72 273.165 345.358 272.6 345.116C272.036 344.873 271.426 344.755 270.811 344.771H268.392V354.251Z" fill="black"/>
<path d="M278.722 355.003V343.987H285.98V344.771H279.442V349.119H284.41V349.871H279.442V354.219H285.98V355.003H278.722Z" fill="black"/>
</g>
<defs>
<clipPath id="clip0">
<rect width="410.025" height="354.224" fill="white" transform="translate(0.175049 0.779297)"/>
</clipPath>
</defs>
</svg>
