<svg width="55" height="38" viewBox="0 0 55 38" fill="none" xmlns="http://www.w3.org/2000/svg">
<g clip-path="url(#clip0)">
<path d="M27.4537 37.5035C37.6729 37.5035 45.9571 29.2192 45.9571 19C45.9571 8.78081 37.6729 0.496521 27.4537 0.496521C17.2345 0.496521 8.9502 8.78081 8.9502 19C8.9502 29.2192 17.2345 37.5035 27.4537 37.5035Z" stroke="#1DBDEF" stroke-width="0.437021" stroke-miterlimit="10"/>
<path d="M28.586 34.3701L29.1541 34.3395L29.4819 34.3132L29.9888 34.2695L30.3341 34.2346L30.8192 34.1778L31.16 34.1297L31.6364 34.0554L31.9685 33.9986L32.4624 33.9068L32.7595 33.8456C32.9693 33.8019 33.1747 33.7539 33.3845 33.7014L33.5331 33.6665C31.7897 32.3168 30.5121 30.4557 29.8793 28.3437C29.2465 26.2317 29.2901 23.9747 30.004 21.8887C30.718 19.8028 32.0665 17.9924 33.8607 16.7111C35.6549 15.4298 37.805 14.7418 40.0097 14.7434C40.3419 14.7434 40.6653 14.7434 40.9886 14.7915C40.7934 14.6342 40.5924 14.4812 40.3856 14.3326L40.3025 14.2715C40.1233 14.1403 39.9354 14.0136 39.7475 13.8912L39.6208 13.8082L39.0745 13.4717L38.9259 13.3843L38.3621 13.0696L38.2092 12.991C38.0111 12.8861 37.81 12.7856 37.6061 12.6894L37.4663 12.6239L36.7801 12.318L36.6971 12.283C36.1639 12.0601 35.6177 11.846 35.0495 11.6755H35.0015C34.7436 11.5925 34.4814 11.5139 34.2192 11.4396L33.9876 11.3784L33.3932 11.2036L33.096 11.1336L32.5192 11.0113L32.1827 10.9457L31.6233 10.8496L31.2649 10.7928L30.7012 10.7185L30.3384 10.6748L29.7528 10.618L29.3988 10.5874C29.1847 10.5874 28.9618 10.5611 28.7521 10.548H28.4418C28.1227 10.548 27.8037 10.548 27.4803 10.548C27.1569 10.548 26.8335 10.548 26.5145 10.548H26.2086C25.9901 10.548 25.7716 10.548 25.5618 10.5874L25.2034 10.618L24.6222 10.6748L24.2551 10.7185L23.6913 10.7928L23.333 10.8496L22.7736 10.9457L22.4371 11.0113L21.8602 11.1336L21.5631 11.2036L20.9381 11.3653L20.7109 11.4264C20.4443 11.5007 20.1864 11.5794 19.9286 11.6624H19.8805C19.3124 11.846 18.7618 12.047 18.2286 12.2699L18.1499 12.3049C17.9139 12.4054 17.6867 12.5059 17.4638 12.6108L17.324 12.6763C17.12 12.7725 16.919 12.873 16.7209 12.9779L16.5679 13.0565L15.9998 13.3712L15.8556 13.4586C15.6676 13.5679 15.4841 13.6815 15.3049 13.7951L15.1825 13.8781C14.9903 14.0005 14.8067 14.1272 14.6232 14.2583L14.5445 14.3195C14.3347 14.4681 14.1337 14.6211 13.9414 14.7784C14.2604 14.7478 14.5882 14.7303 14.916 14.7303C17.1172 14.7352 19.2621 15.4272 21.0512 16.7096C22.8403 17.992 24.1845 19.801 24.8962 21.884C25.6079 23.9671 25.6515 26.2204 25.0211 28.3294C24.3907 30.4385 23.1176 32.2982 21.3795 33.649L21.5281 33.6839C21.7335 33.7364 21.9651 33.7844 22.1487 33.8281L22.4502 33.8893L22.9397 33.9811L23.2718 34.0379L23.7482 34.1122L24.0934 34.1603L24.5741 34.2171L24.9194 34.2521L25.4263 34.2958L25.7585 34.322L26.3222 34.3526H26.6063C26.8903 34.3526 27.1744 34.3526 27.4803 34.3526C27.7862 34.3526 28.0528 34.3526 28.3544 34.3526L28.586 34.3701Z" fill="#231F20"/>
<path d="M20.4133 16.5309C20.5872 16.5309 20.7539 16.4618 20.8769 16.3388C20.9998 16.2159 21.0689 16.0492 21.0689 15.8753C21.0689 15.7015 20.9998 15.5347 20.8769 15.4118C20.7539 15.2889 20.5872 15.2198 20.4133 15.2198C20.2395 15.2198 20.0727 15.2889 19.9498 15.4118C19.8269 15.5347 19.7578 15.7015 19.7578 15.8753C19.7578 16.0492 19.8269 16.2159 19.9498 16.3388C20.0727 16.4618 20.2395 16.5309 20.4133 16.5309Z" fill="black"/>
<path d="M43.7673 24.0913C45.3413 22.3212 47.4306 21.0893 49.7414 20.5689C50.6094 20.3694 51.3968 19.9124 52.0008 19.2578L52.1188 19.1355L52.1975 19.0481C52.4334 18.799 52.6607 18.5499 52.8792 18.3051L53.0191 18.1478C53.2157 17.9206 53.4124 17.7108 53.6003 17.4704C53.6527 17.4136 53.7008 17.3524 53.7489 17.2956C53.9324 17.0771 54.1116 16.8586 54.282 16.6401L54.4219 16.4653L54.8065 15.9583C53.969 16.5352 53.0651 17.0091 52.1144 17.3699C51.5268 17.5954 50.9236 17.778 50.3095 17.9162C49.6793 18.059 49.025 18.0586 48.3949 17.9149C47.7649 17.7712 47.1751 17.4879 46.6691 17.0859C44.9213 15.6723 42.7683 14.8529 40.5229 14.7468C38.2775 14.6407 36.0568 15.2534 34.1834 16.4959C35.8107 18.4467 36.6906 20.913 36.6657 23.4533C36.6657 27.2641 34.7953 30.5723 32.0508 32.2461C33.0416 33.3873 34.2662 34.3022 35.6415 34.9288C37.0168 35.5553 38.5107 35.879 40.022 35.8778C40.5855 35.8786 41.1481 35.8347 41.7046 35.7467C40.8924 33.811 40.655 31.6824 41.0208 29.6154C41.3867 27.5485 42.3402 25.6306 43.7673 24.0913Z" fill="#7ECFD4"/>
<path d="M26.1995 34.3701L25.6358 34.3395L25.3036 34.3133L24.7967 34.2696L24.4514 34.2346L23.9707 34.1778L23.6255 34.1297L23.1491 34.0554L22.817 33.9986L22.3232 33.9068L22.026 33.8456C21.8162 33.8019 21.6108 33.7539 21.4054 33.7014L21.2525 33.6665C22.9958 32.3168 24.2734 30.4557 24.9062 28.3437C25.539 26.2317 25.4954 23.9747 24.7815 21.8887C24.0675 19.8028 22.719 17.9924 20.9248 16.7111C19.1306 15.4298 16.9805 14.7418 14.7758 14.7435C14.4437 14.7435 14.1203 14.7434 13.7969 14.7915C13.995 14.6342 14.196 14.4812 14.4 14.3326L14.483 14.2715C14.6665 14.1404 14.8501 14.0136 15.038 13.8913L15.1647 13.8082L15.711 13.4717L15.8596 13.3843L16.4234 13.0697L16.5763 12.991C16.7774 12.8861 16.9784 12.7856 17.1794 12.6895L17.3193 12.6239L18.0054 12.318L18.0884 12.283C18.6216 12.0601 19.1722 11.846 19.736 11.6756H19.7841C20.0434 11.594 20.3056 11.5153 20.5707 11.4396L20.798 11.3784L21.4229 11.2167L21.7201 11.1468L22.2969 11.0244L22.6334 10.9588L23.1928 10.8627L23.5512 10.8059L24.1149 10.7316L24.4777 10.6879L25.0633 10.6311L25.4216 10.6005L26.0641 10.5612H26.3743C26.6934 10.5612 27.0124 10.5612 27.3358 10.5612C27.6592 10.5612 27.9826 10.5612 28.3016 10.5612H28.6119L29.2543 10.6005L29.6127 10.6311L30.1939 10.6879L30.561 10.7316L31.1248 10.8059L31.4831 10.8627L32.0425 10.9588L32.379 11.0244L32.9559 11.1468L33.253 11.2167L33.878 11.3784L34.1052 11.4396C34.3733 11.5153 34.6355 11.594 34.8919 11.6756H34.9356C35.5037 11.8591 36.0544 12.0601 36.5875 12.283L36.6706 12.318C36.9022 12.4185 37.1294 12.519 37.3523 12.6239L37.4965 12.6895C37.6976 12.7856 37.8986 12.8861 38.0952 12.991L38.2526 13.0697L38.8163 13.3843L38.9606 13.4717C39.1485 13.581 39.332 13.6946 39.5112 13.8082L39.6379 13.8913C39.8258 14.0136 40.0094 14.1404 40.1929 14.2715L40.276 14.3326C40.4814 14.4812 40.6824 14.6342 40.8747 14.7915C40.5557 14.7609 40.2279 14.7435 39.9001 14.7435C37.6998 14.7465 35.5552 15.4364 33.7657 16.7168C31.9762 17.9972 30.6311 19.8043 29.9179 21.8859C29.2048 23.9675 29.1593 26.2199 29.7877 28.3286C30.4162 30.4373 31.6872 32.2973 33.4235 33.649L33.2705 33.6839C33.0651 33.7364 32.8597 33.7845 32.65 33.8282L32.3484 33.8893L31.859 33.9811L31.5268 34.0379L31.0505 34.1122L30.7052 34.1603L30.2245 34.2171L29.8793 34.2521L29.3723 34.2958L29.0402 34.322L28.4764 34.3526H28.1924C27.9083 34.3526 27.6242 34.3526 27.3183 34.3526C27.0124 34.3526 26.7458 34.3526 26.4443 34.3526L26.1995 34.3701Z" fill="#231F20"/>
<path d="M11.0348 24.0913C9.4938 22.3583 7.45945 21.1383 5.20492 20.5951C4.24411 20.3734 3.37003 19.8733 2.69205 19.1573C2.66218 19.1303 2.63442 19.1011 2.60902 19.0699C2.3774 18.8208 2.14578 18.5717 1.92726 18.327L1.78742 18.1696C1.59076 17.9424 1.3941 17.7326 1.20618 17.4922C1.15374 17.4354 1.10567 17.3743 1.05759 17.3174C0.874045 17.0989 0.694866 16.8804 0.524427 16.6619L0.384581 16.4871L0 15.9802C1.31513 16.885 2.78876 17.5344 4.34399 17.8943C5.02319 18.0526 5.72928 18.0562 6.41007 17.905C7.09086 17.7537 7.72895 17.4513 8.27718 17.0203C10.0243 15.6484 12.1594 14.8623 14.379 14.7736C16.5985 14.685 18.7896 15.2983 20.6405 16.5264C19.0133 18.4773 18.1334 20.9435 18.1582 23.4838C18.1582 27.2946 20.0287 30.6029 22.7732 32.2767C21.7825 33.4181 20.558 34.3331 19.1826 34.9597C17.8073 35.5863 16.3133 35.9098 14.8019 35.9083C14.2385 35.9091 13.6759 35.8653 13.1194 35.7772C13.9324 33.8351 14.1682 31.6998 13.7985 29.6272C13.4287 27.5545 12.4692 25.6324 11.0348 24.0913Z" fill="#195460"/>
<path d="M10.8078 14.3851C12.3887 14.3851 13.6703 13.1035 13.6703 11.5226C13.6703 9.94167 12.3887 8.6601 10.8078 8.6601C9.22689 8.6601 7.94531 9.94167 7.94531 11.5226C7.94531 13.1035 9.22689 14.3851 10.8078 14.3851Z" fill="#195460"/>
<path d="M27.3361 9.27194C28.917 9.27194 30.1986 7.99036 30.1986 6.40945C30.1986 4.82855 28.917 3.54697 27.3361 3.54697C25.7552 3.54697 24.4736 4.82855 24.4736 6.40945C24.4736 7.99036 25.7552 9.27194 27.3361 9.27194Z" fill="#231F20"/>
<path d="M44.4191 14.3851C46 14.3851 47.2816 13.1035 47.2816 11.5226C47.2816 9.94167 46 8.6601 44.4191 8.6601C42.8382 8.6601 41.5566 9.94167 41.5566 11.5226C41.5566 13.1035 42.8382 14.3851 44.4191 14.3851Z" fill="#7ECFD4"/>
</g>
<defs>
<clipPath id="clip0">
<rect width="54.8068" height="37.0069" fill="white" transform="translate(0 0.496521)"/>
</clipPath>
</defs>
</svg>
