<svg width="191" height="197" viewBox="0 0 191 197" fill="none" xmlns="http://www.w3.org/2000/svg">
<path d="M26.2835 27.3858L48.1791 71.9472C48.2884 72.1713 48.3524 72.4148 48.3673 72.6638C48.3822 72.9127 48.3478 73.1621 48.266 73.3977C48.1842 73.6333 48.0566 73.8504 47.8907 74.0365C47.7247 74.2226 47.5236 74.3741 47.2989 74.4822C47.0749 74.5909 46.8318 74.6543 46.5833 74.6689C46.3349 74.6834 46.086 74.6488 45.8509 74.5671C45.6159 74.4853 45.3992 74.358 45.2135 74.1924C45.0277 74.0268 44.8764 73.8262 44.7682 73.602L22.8858 29.0582C22.7765 28.8341 22.7125 28.5906 22.6976 28.3416C22.6827 28.0927 22.7171 27.8433 22.7989 27.6077C22.8807 27.3721 23.0083 27.155 23.1742 26.9689C23.3402 26.7828 23.5413 26.6313 23.766 26.5232C24.2149 26.3078 24.7304 26.2776 25.2014 26.439C25.6724 26.6004 26.061 26.9404 26.2835 27.3858Z" fill="#E0E0E0"/>
<path d="M41.7596 59.8016L46.2706 68.9813L48.5656 67.8536L44.0546 58.6739L41.7596 59.8016Z" fill="#E0E0E0"/>
<path d="M41.3529 54.7565C41.4572 54.9651 41.5189 55.1924 41.5345 55.4251C41.5502 55.6577 41.5194 55.8912 41.4441 56.1119C41.3688 56.3326 41.2503 56.5362 41.0956 56.7107C40.941 56.8853 40.7532 57.0273 40.5431 57.1287L37.1499 58.7923C36.9412 58.8965 36.714 58.9583 36.4813 58.9739C36.2486 58.9896 36.0151 58.9588 35.7944 58.8835C35.5737 58.8081 35.3702 58.6897 35.1956 58.535C35.0211 58.3803 34.879 58.1925 34.7777 57.9825C34.6734 57.7739 34.6117 57.5466 34.5961 57.3139C34.5804 57.0812 34.6112 56.8478 34.6865 56.6271C34.7618 56.4064 34.8803 56.2028 35.035 56.0283C35.1896 55.8537 35.3774 55.7117 35.5875 55.6103L38.9807 53.9423C39.1896 53.8382 39.4171 53.7767 39.65 53.7614C39.8829 53.746 40.1165 53.7772 40.3372 53.8529C40.558 53.9287 40.7615 54.0476 40.9358 54.2027C41.1102 54.3578 41.252 54.5461 41.3529 54.7565Z" fill="#E0E0E0"/>
<path d="M48.6456 69.7907L53.3813 67.4625L52.1489 64.9539L49.7767 66.1158L49.0065 64.5402L51.3743 63.3783L49.3454 59.2456L47.6818 60.0642L46.9072 58.4886L48.5708 57.67L47.3429 55.1746L42.6073 57.5028L48.6456 69.7907Z" fill="#E0E0E0"/>
<path d="M20.6591 28.0442L22.5652 31.9231L29.288 28.6194L27.3819 24.7406L20.6591 28.0442Z" fill="#E0E0E0"/>
<path d="M13.485 14.6578C13.5591 14.8097 13.6429 14.9567 13.7359 15.0979C12.0605 16.1253 10.8288 17.7409 10.2818 19.6286C9.73479 21.5162 9.91185 23.5401 10.7783 25.3041C11.7071 27.1771 13.3386 28.607 15.3172 29.2822C17.2958 29.9574 19.461 29.8231 21.341 28.9086L27.2694 25.9907C28.1997 25.5338 29.0308 24.8982 29.7155 24.1202C30.4001 23.3421 30.9248 22.4368 31.2595 21.4559C31.5942 20.4751 31.7324 19.4379 31.6663 18.4036C31.6001 17.3693 31.3308 16.3582 30.8739 15.428C29.9924 13.6365 28.4646 12.2458 26.5985 11.5361C24.7323 10.8263 22.6664 10.8504 20.8173 11.6034C20.7601 11.4493 20.6985 11.2953 20.6281 11.1633C20.1612 10.216 19.3371 9.49309 18.3372 9.15345C17.3372 8.81381 16.2433 8.8853 15.2961 9.3522C14.3489 9.8191 13.6259 10.6432 13.2863 11.6431C12.9466 12.643 13.0181 13.7369 13.485 14.6842V14.6578ZM21.9528 14.3717C22.6828 14.0127 23.4909 13.8416 24.3037 13.8741C25.1166 13.9065 25.9085 14.1415 26.6075 14.5575C27.3065 14.9736 27.8906 15.5577 28.3067 16.2567C28.7228 16.9557 28.9577 17.7476 28.9902 18.5605C29.0226 19.3733 28.8516 20.1814 28.4926 20.9114C28.1336 21.6414 27.598 22.2702 26.9343 22.7407C26.2707 23.2112 25.5001 23.5085 24.6924 23.6057C23.8847 23.7029 23.0656 23.5968 22.3093 23.2972C22.0398 24.2468 21.4889 25.0926 20.7292 25.723C19.9695 26.3533 19.0367 26.7388 18.0536 26.8285C17.0705 26.9182 16.0834 26.708 15.2221 26.2256C14.3609 25.7431 13.666 25.0111 13.229 24.1259C12.7921 23.2407 12.6335 22.2439 12.7743 21.2668C12.9151 20.2897 13.3486 19.3782 14.0176 18.6524C14.6867 17.9266 15.56 17.4204 16.5224 17.2008C17.4848 16.9811 18.4912 17.0581 19.4089 17.4217C19.595 16.7631 19.9177 16.1512 20.356 15.6257C20.7943 15.1002 21.3384 14.6729 21.9528 14.3717ZM18.6432 11.8366C18.8053 12.1735 18.864 12.5509 18.8119 12.9211C18.7598 13.2913 18.5991 13.6378 18.3503 13.9168C18.1015 14.1959 17.7756 14.395 17.4137 14.489C17.0519 14.583 16.6703 14.5677 16.3171 14.4451C15.9639 14.3224 15.655 14.0979 15.4292 13.7999C15.2035 13.5019 15.0711 13.1437 15.0488 12.7705C15.0264 12.3973 15.1151 12.0258 15.3036 11.703C15.4922 11.3801 15.7721 11.1203 16.1081 10.9564C16.5612 10.738 17.0823 10.708 17.5574 10.873C18.0325 11.0379 18.423 11.3845 18.6432 11.8366Z" fill="#E0E0E0"/>
<path d="M166.67 160.164L178.104 104.068C178.298 103.115 177.683 102.185 176.73 101.991L175.963 101.835C175.01 101.64 174.08 102.255 173.886 103.208L162.453 159.305C162.258 160.257 162.873 161.187 163.826 161.381L164.594 161.538C165.546 161.732 166.476 161.117 166.67 160.164Z" fill="#E0E0E0"/>
<path d="M171.139 118.983L173.462 107.585L170.612 107.004L168.289 118.402L171.139 118.983Z" fill="#E0E0E0"/>
<path d="M176.07 125.812L176.216 125.096C176.398 124.203 175.822 123.332 174.929 123.149L170 122.144C169.107 121.962 168.235 122.538 168.053 123.431L167.907 124.147C167.725 125.04 168.301 125.912 169.194 126.094L174.123 127.099C175.016 127.282 175.888 126.705 176.07 125.812Z" fill="#E0E0E0"/>
<path d="M171.882 105.202L166.002 104.001L165.363 107.117L168.303 107.72L167.907 109.674L164.967 109.075L163.92 114.202L165.984 114.625L165.584 116.579L163.519 116.161L162.89 119.259L168.77 120.456L171.882 105.202Z" fill="#E0E0E0"/>
<path d="M168.047 162.25L169.029 157.433L160.684 155.732L159.702 160.549L168.047 162.25Z" fill="#E0E0E0"/>
<path d="M165.183 179.269C165.222 179.08 165.249 178.889 165.262 178.696C167.485 178.936 169.717 178.338 171.522 177.019C173.327 175.701 174.576 173.757 175.024 171.567C175.499 169.234 175.028 166.808 173.715 164.822C172.402 162.837 170.354 161.454 168.022 160.978L160.654 159.477C159.499 159.242 158.31 159.236 157.153 159.461C155.996 159.685 154.895 160.135 153.912 160.786C152.929 161.436 152.084 162.273 151.424 163.25C150.765 164.227 150.305 165.324 150.07 166.479C149.615 168.705 150.021 171.02 151.207 172.958C152.393 174.896 154.271 176.311 156.46 176.918C156.402 177.096 156.354 177.277 156.315 177.46C156.196 178.042 156.193 178.642 156.306 179.225C156.419 179.809 156.646 180.364 156.974 180.86C157.302 181.356 157.724 181.782 158.216 182.115C158.709 182.447 159.262 182.68 159.844 182.798C161.02 183.038 162.244 182.801 163.245 182.139C164.246 181.477 164.943 180.445 165.183 179.269ZM157.367 173.635C156.46 173.451 155.615 173.043 154.906 172.448C154.198 171.854 153.649 171.092 153.309 170.232C152.97 169.372 152.85 168.44 152.962 167.522C153.073 166.604 153.412 165.729 153.948 164.975C154.484 164.221 155.2 163.613 156.03 163.206C156.86 162.799 157.779 162.605 158.703 162.643C159.627 162.681 160.527 162.949 161.321 163.423C162.115 163.897 162.779 164.562 163.251 165.357C164.155 164.694 165.239 164.321 166.36 164.286C167.481 164.251 168.586 164.556 169.53 165.161C170.474 165.766 171.212 166.642 171.649 167.675C172.086 168.707 172.199 169.848 171.975 170.947C171.751 172.045 171.2 173.05 170.394 173.83C169.588 174.609 168.565 175.127 167.46 175.314C166.354 175.501 165.218 175.349 164.201 174.878C163.183 174.407 162.332 173.639 161.759 172.676C161.134 173.133 160.421 173.455 159.664 173.62C158.908 173.785 158.125 173.791 157.367 173.635ZM158.581 178.221C158.667 177.804 158.874 177.422 159.176 177.122C159.479 176.823 159.863 176.62 160.281 176.539C160.699 176.458 161.132 176.503 161.524 176.668C161.917 176.833 162.251 177.111 162.486 177.466C162.72 177.822 162.844 178.238 162.842 178.664C162.84 179.09 162.711 179.505 162.473 179.858C162.234 180.21 161.897 180.484 161.502 180.645C161.108 180.806 160.675 180.846 160.258 180.761C159.699 180.646 159.208 180.314 158.894 179.838C158.579 179.362 158.467 178.78 158.581 178.221Z" fill="#E0E0E0"/>
<path d="M162.166 12.9049L158.17 12.9265L158.278 32.8105L162.274 32.7889L162.166 12.9049Z" fill="#E0E0E0"/>
<path d="M133.898 12.9567L123.552 13.0127L123.611 23.9889L133.958 23.933L133.898 12.9567Z" fill="#EBEBEB"/>
<path d="M144.197 12.9009L133.85 12.9569L133.909 23.9332L144.256 23.8772L144.197 12.9009Z" fill="#F5F5F5"/>
<path d="M123.566 16.053C130.444 16.1117 137.327 16.0808 144.216 15.9606C144.245 15.9606 144.273 15.949 144.294 15.9283C144.315 15.9077 144.326 15.8797 144.326 15.8505C144.326 15.8213 144.315 15.7934 144.294 15.7727C144.273 15.7521 144.245 15.7405 144.216 15.7405C137.342 15.7009 130.445 15.7405 123.57 15.8637C123.549 15.8684 123.529 15.8804 123.516 15.8976C123.502 15.9148 123.494 15.9362 123.494 15.9583C123.494 15.9805 123.502 16.0019 123.516 16.0191C123.529 16.0363 123.549 16.0483 123.57 16.053H123.566Z" fill="#E0E0E0"/>
<path d="M135.902 23.755L117.101 23.8567L117.149 32.804L135.951 32.7023L135.902 23.755Z" fill="#EBEBEB"/>
<path d="M154.615 23.6535L135.814 23.7552L135.862 32.7026L154.663 32.6009L154.615 23.6535Z" fill="#F5F5F5"/>
<path d="M117.114 26.3516C129.604 26.4924 142.139 26.3516 154.629 26.1623C154.658 26.1623 154.686 26.1507 154.707 26.1301C154.728 26.1095 154.739 26.0815 154.739 26.0523C154.739 26.0231 154.728 25.9951 154.707 25.9745C154.686 25.9539 154.658 25.9423 154.629 25.9423C142.139 25.8762 129.604 25.8851 117.114 26.1623C117.092 26.167 117.073 26.179 117.059 26.1962C117.045 26.2134 117.038 26.2348 117.038 26.2569C117.038 26.2791 117.045 26.3005 117.059 26.3177C117.073 26.3349 117.092 26.3469 117.114 26.3516Z" fill="#E0E0E0"/>
<path d="M182.924 32.8081H110.081V36.0121H182.924V32.8081Z" fill="#E0E0E0"/>
<path d="M124.965 34.3485H122.008V45.2853H124.965V34.3485Z" fill="#E0E0E0"/>
<path d="M169.104 34.3485H166.147V45.2853H169.104V34.3485Z" fill="#E0E0E0"/>
<path d="M166.142 4.66548L162.146 4.70544L162.419 32.054L166.416 32.0141L166.142 4.66548Z" fill="#EBEBEB"/>
<path d="M172.311 10.5833L166.101 10.6169L166.221 32.7807L172.431 32.7471L172.311 10.5833Z" fill="#F5F5F5"/>
<path d="M172.269 14.8603C171.237 14.9677 170.199 15.003 169.162 14.9659C168.126 15.0031 167.089 14.9678 166.059 14.8603C168.126 14.7194 170.201 14.7194 172.269 14.8603Z" fill="#E0E0E0"/>
<path d="M172.269 13.9317C171.237 14.0365 170.199 14.0717 169.162 14.0373C168.126 14.0718 167.09 14.0365 166.059 13.9317C168.126 13.785 170.201 13.785 172.269 13.9317Z" fill="#E0E0E0"/>
<path d="M172.269 29.4192C170.201 29.5601 168.126 29.5601 166.059 29.4192C168.126 29.2725 170.201 29.2725 172.269 29.4192Z" fill="#E0E0E0"/>
<path d="M172.269 28.4861C170.201 28.6328 168.126 28.6328 166.059 28.4861C168.126 28.3453 170.201 28.3453 172.269 28.4861Z" fill="#E0E0E0"/>
<path d="M169.263 26.4572C169.201 26.4572 169.153 24.2215 169.153 21.462C169.153 18.7024 169.201 16.4667 169.263 16.4667C169.324 16.4667 169.368 18.7024 169.368 21.462C169.368 24.2215 169.32 26.4572 169.263 26.4572Z" fill="#E0E0E0"/>
<path d="M179.095 16.031H172.335V32.7597H179.095V16.031Z" fill="#EBEBEB"/>
<path d="M165.157 10.1686C165.157 10.3958 165.089 10.6179 164.963 10.8068C164.837 10.9957 164.657 11.1429 164.448 11.2298C164.238 11.3168 164.007 11.3395 163.784 11.2952C163.561 11.2509 163.356 11.1415 163.196 10.9808C163.035 10.8202 162.926 10.6155 162.881 10.3927C162.837 10.1699 162.86 9.9389 162.947 9.729C163.034 9.51911 163.181 9.33971 163.37 9.21349C163.559 9.08727 163.781 9.0199 164.008 9.0199C164.313 9.0199 164.605 9.14092 164.82 9.35634C165.036 9.57176 165.157 9.86394 165.157 10.1686Z" fill="#E0E0E0"/>
<path d="M164.36 13.3286H163.651V29.5952H164.36V13.3286Z" fill="#E0E0E0"/>
<path d="M34.6149 111.76L29.5536 132.155H31.6001L36.8551 111.76H34.6149Z" fill="#EBEBEB"/>
<path d="M49.2882 111.76L54.3495 132.155H52.2986L47.0436 111.76H49.2882Z" fill="#EBEBEB"/>
<path d="M42.8977 106.214H40.5123V132.15H42.8977V106.214Z" fill="#EBEBEB"/>
<path d="M58.4866 85.4146H24.8047V106.993H58.4866V85.4146Z" fill="#E0E0E0"/>
<path d="M50.1112 111.43H33.2065V113.511H50.1112V111.43Z" fill="#EBEBEB"/>
<path d="M27.0449 104.177C27.0654 104.308 27.0728 104.44 27.0669 104.573H27.0229C26.9876 103.517 26.9612 100.022 26.9612 95.8762C26.9612 93.3763 26.9612 91.1141 26.9876 89.4505C26.9876 88.6451 26.9876 87.9849 27.0141 87.5008C27.0141 87.2866 27.0141 87.1106 27.0141 86.9727C27.0064 86.9113 27.0064 86.8492 27.0141 86.7878C27.0217 86.8492 27.0217 86.9113 27.0141 86.9727C27.0141 87.1106 27.0141 87.2866 27.0141 87.5008C27.0141 87.9849 27.0141 88.6451 27.0405 89.4505C27.0405 91.1141 27.0405 93.3763 27.0669 95.8762C27.0669 100.022 27.0405 103.517 27.0053 104.573H26.9612C26.9755 104.438 27.0035 104.306 27.0449 104.177Z" fill="#F5F5F5"/>
<path d="M29.5535 104.177C29.5608 104.309 29.5608 104.441 29.5535 104.573H29.5315C29.5007 103.517 29.4743 100.022 29.4743 95.8762C29.4743 93.3763 29.4743 91.1141 29.4743 89.4505C29.4743 88.6451 29.4743 87.9849 29.5007 87.5008C29.5007 87.2852 29.5007 87.1091 29.5007 86.9727C29.4902 86.9115 29.4902 86.849 29.5007 86.7878C29.5065 86.8493 29.5065 86.9112 29.5007 86.9727C29.5007 87.1091 29.5007 87.2852 29.5007 87.5008C29.5007 87.9849 29.5007 88.6451 29.5271 89.4505C29.5271 91.1141 29.5271 93.3763 29.5271 95.8762C29.5271 100.022 29.5271 103.517 29.4699 104.573H29.5315C29.5265 104.44 29.5339 104.308 29.5535 104.177Z" fill="#F5F5F5"/>
<path d="M32.0578 104.177C32.0784 104.308 32.0858 104.44 32.0798 104.573H32.0358C32.0006 103.517 31.9742 100.022 31.9742 95.8762C31.9742 93.3763 31.9742 91.1141 32.0006 89.4505C32.0006 88.6451 32.0006 87.9849 32.027 87.5008C32.027 87.2866 32.027 87.1106 32.027 86.9727C32.0222 86.9112 32.0222 86.8494 32.027 86.7878C32.0375 86.849 32.0375 86.9115 32.027 86.9727C32.027 87.1091 32.027 87.2852 32.027 87.5008C32.027 87.9849 32.027 88.6451 32.0534 89.4505C32.0534 91.1141 32.0534 93.3763 32.0754 95.8762C32.0754 100.022 32.049 103.517 32.0138 104.573H31.9698C31.9886 104.439 32.018 104.306 32.0578 104.177Z" fill="#F5F5F5"/>
<path d="M34.5665 104.177C34.5767 104.309 34.5767 104.441 34.5665 104.573H34.5225C34.4873 103.517 34.4609 100.022 34.4609 95.8762C34.4609 93.3763 34.4609 91.1141 34.4609 89.4505C34.4609 88.6451 34.4609 87.9849 34.4873 87.5008C34.4873 87.2852 34.4873 87.1091 34.4873 86.9727C34.4796 86.9113 34.4796 86.8492 34.4873 86.7878C34.4921 86.8494 34.4921 86.9112 34.4873 86.9727C34.4873 87.1106 34.4873 87.2866 34.4873 87.5008C34.4873 87.9849 34.4873 88.6451 34.5137 89.4505C34.5137 91.1141 34.5137 93.3763 34.5401 95.8762C34.5401 100.022 34.5137 103.517 34.4785 104.573H34.4344C34.4644 104.436 34.5086 104.304 34.5665 104.177Z" fill="#F5F5F5"/>
<path d="M37.0706 104.177C37.0917 104.308 37.1006 104.44 37.097 104.573H37.0486C37.0134 103.517 36.9914 100.022 36.9914 95.8762C36.9914 93.3763 36.9914 91.1141 36.9914 89.4505C36.9914 88.6451 36.9914 87.9849 37.0178 87.5008C37.0178 87.2852 37.0178 87.1091 37.0178 86.9727C37.012 86.9112 37.012 86.8493 37.0178 86.7878C37.0283 86.849 37.0283 86.9115 37.0178 86.9727C37.0178 87.1091 37.0178 87.2852 37.0178 87.5008C37.0178 87.9849 37.0178 88.6451 37.0442 89.4505C37.0442 91.1141 37.0442 93.3763 37.0442 95.8762C37.0442 100.022 37.0178 103.517 36.987 104.573H36.9386C36.9749 104.438 37.019 104.306 37.0706 104.177Z" fill="#F5F5F5"/>
<path d="M39.5793 104.177C39.5925 104.308 39.5925 104.441 39.5793 104.573H39.5353C39.5 103.517 39.4736 100.022 39.4736 95.8762C39.4736 93.3763 39.4736 91.1141 39.5 89.4505C39.5 88.6451 39.5 87.9849 39.5264 87.5008C39.5264 87.2866 39.5264 87.1106 39.5264 86.9727C39.5188 86.9113 39.5188 86.8492 39.5264 86.7878C39.5341 86.8492 39.5341 86.9113 39.5264 86.9727C39.5264 87.1106 39.5264 87.2866 39.5264 87.5008C39.5264 87.9849 39.5264 88.6451 39.5529 89.4505C39.5529 91.1141 39.5529 93.3763 39.5793 95.8762C39.5793 100.022 39.5529 103.517 39.5176 104.573H39.4736C39.495 104.437 39.5304 104.305 39.5793 104.177Z" fill="#F5F5F5"/>
<path d="M42.0879 104.177C42.1026 104.308 42.1099 104.44 42.1099 104.573H42.0615C42.0263 103.517 42.0043 100.022 42.0043 95.8762C42.0043 93.3763 42.0043 91.1141 42.0043 89.4505C42.0043 88.6451 42.0263 87.9849 42.0307 87.5008C42.0307 87.2852 42.0307 87.1091 42.0307 86.9727C42.0202 86.9115 42.0202 86.849 42.0307 86.7878C42.0365 86.8493 42.0365 86.9112 42.0307 86.9727C42.0307 87.1091 42.0307 87.2852 42.0307 87.5008C42.0307 87.9849 42.0307 88.6451 42.0571 89.4505C42.0571 91.1141 42.0571 93.3763 42.0791 95.8762C42.0791 100.022 42.0571 103.517 42.0219 104.573H41.9735C41.9988 104.437 42.0371 104.305 42.0879 104.177Z" fill="#F5F5F5"/>
<path d="M44.5921 104.177C44.6127 104.308 44.6201 104.44 44.6142 104.573H44.5701C44.5349 103.517 44.5085 100.022 44.5085 95.8762C44.5085 93.3763 44.5085 91.1141 44.5349 89.4505C44.5349 88.6451 44.5349 87.9849 44.5613 87.5008C44.5613 87.2866 44.5613 87.1106 44.5613 86.9727C44.5565 86.9112 44.5565 86.8494 44.5613 86.7878C44.569 86.8492 44.569 86.9113 44.5613 86.9727C44.5613 87.1091 44.5613 87.2852 44.5613 87.5008C44.5613 87.9849 44.5613 88.6451 44.5613 89.4505C44.5613 91.1141 44.5613 93.3763 44.5877 95.8762C44.5877 100.022 44.5613 103.517 44.5261 104.573H44.4821C44.5081 104.438 44.5449 104.306 44.5921 104.177Z" fill="#F5F5F5"/>
<path d="M47.1008 104.177C47.1184 104.308 47.1258 104.44 47.1228 104.573H47.0788C47.0436 103.517 47.0172 100.022 47.0172 95.8762C47.0172 93.3763 47.0172 91.1141 47.0392 89.4505C47.0392 88.6451 47.0612 87.9849 47.0656 87.5008C47.0656 87.2852 47.0656 87.1091 47.0656 86.9727C47.0551 86.9115 47.0551 86.849 47.0656 86.7878C47.0704 86.8494 47.0704 86.9112 47.0656 86.9727C47.0656 87.1091 47.0656 87.2852 47.0656 87.5008C47.0656 87.9849 47.0656 88.6451 47.092 89.4505C47.092 91.1141 47.092 93.3763 47.1184 95.8762C47.1184 100.022 47.092 103.517 47.0568 104.573H47.0128C47.0285 104.438 47.058 104.305 47.1008 104.177Z" fill="#F5F5F5"/>
<path d="M49.605 104.177C49.6261 104.308 49.635 104.44 49.6315 104.573H49.583C49.5478 103.517 49.5214 100.022 49.5214 95.8762C49.5214 93.3763 49.5434 91.1141 49.5478 89.4505C49.5478 88.6451 49.5698 87.9849 49.5742 87.5008C49.5742 87.2852 49.5742 87.1091 49.5742 86.9727C49.5684 86.9112 49.5684 86.8493 49.5742 86.7878C49.5847 86.849 49.5847 86.9115 49.5742 86.9727C49.5742 87.1091 49.5742 87.2852 49.5742 87.5008C49.5742 87.9849 49.5742 88.6451 49.6007 89.4505C49.6007 91.1141 49.6006 93.3763 49.6227 95.8762C49.6227 100.022 49.5962 103.517 49.5654 104.573H49.517C49.5389 104.439 49.5683 104.307 49.605 104.177Z" fill="#F5F5F5"/>
<path d="M52.1137 104.177C52.1313 104.308 52.1387 104.44 52.1357 104.573H52.0917C52.0565 103.517 52.0301 100.022 52.0301 95.8762C52.0301 93.3763 52.0301 91.1141 52.0565 89.4505C52.0565 88.6451 52.0565 87.9849 52.0829 87.5008C52.0829 87.2866 52.0829 87.1106 52.0829 86.9727C52.0752 86.9113 52.0752 86.8492 52.0829 86.7878C52.0877 86.8494 52.0877 86.9112 52.0829 86.9727C52.0829 87.1106 52.0829 87.2866 52.0829 87.5008C52.0829 87.9849 52.0829 88.6451 52.1093 89.4505C52.1093 91.1141 52.1093 93.3763 52.1357 95.8762C52.1357 100.022 52.1093 103.517 52.0741 104.573H52.0301C52.0444 104.438 52.0724 104.306 52.1137 104.177Z" fill="#F5F5F5"/>
<path d="M54.6179 104.177C54.6326 104.308 54.6399 104.44 54.64 104.573H54.6179C54.5827 103.517 54.5607 100.022 54.5607 95.8762C54.5607 93.3763 54.5607 91.1141 54.5827 89.4505C54.5827 88.6451 54.5827 87.9849 54.6091 87.5008C54.6091 87.2852 54.6091 87.1091 54.6091 86.9727C54.5986 86.9115 54.5986 86.849 54.6091 86.7878C54.6149 86.8493 54.6149 86.9112 54.6091 86.9727C54.6091 87.1091 54.6091 87.2852 54.6091 87.5008C54.6091 87.9849 54.6091 88.6451 54.6355 89.4505C54.6355 91.1141 54.6355 93.3763 54.6576 95.8762C54.6576 100.022 54.6356 103.517 54.6003 104.573H54.6179C54.6057 104.441 54.6057 104.308 54.6179 104.177Z" fill="#F5F5F5"/>
<path d="M57.1265 104.177C57.1471 104.308 57.1545 104.44 57.1485 104.573H57.1045C57.0693 103.517 57.0429 100.022 57.0429 95.8762C57.0429 93.3763 57.0429 91.1141 57.0693 89.4505C57.0693 88.6451 57.0693 87.9849 57.0957 87.5008C57.0957 87.2866 57.0957 87.1106 57.0957 86.9727C57.0909 86.9112 57.0909 86.8494 57.0957 86.7878C57.1034 86.8492 57.1034 86.9113 57.0957 86.9727C57.0957 87.1106 57.0957 87.2866 57.0957 87.5008C57.0957 87.9849 57.0957 88.6451 57.1221 89.4505C57.1221 91.1141 57.1221 93.3763 57.1485 95.8762C57.1485 100.022 57.1221 103.517 57.0869 104.573H57.0429C57.0603 104.439 57.0882 104.306 57.1265 104.177Z" fill="#F5F5F5"/>
<path d="M98.8668 129.633H11.0644V170.128H98.8668V129.633Z" fill="#F5F5F5"/>
<path d="M96.7763 168.217H13.0757V131.767H96.7763V168.217ZM13.6215 167.672H96.2306V132.313H13.6215V167.672Z" fill="#E0E0E0"/>
<path d="M120.318 129.633H98.8669V170.128H120.318V129.633Z" fill="#E0E0E0"/>
<path d="M13.3486 143.047H96.5035C96.5327 143.047 96.5606 143.036 96.5813 143.015C96.6019 142.995 96.6135 142.967 96.6135 142.937C96.6135 142.908 96.6019 142.88 96.5813 142.86C96.5606 142.839 96.5327 142.827 96.5035 142.827H13.3486C13.3194 142.827 13.2914 142.839 13.2708 142.86C13.2502 142.88 13.2386 142.908 13.2386 142.937C13.2386 142.967 13.2502 142.995 13.2708 143.015C13.2914 143.036 13.3194 143.047 13.3486 143.047Z" fill="#E0E0E0"/>
<path d="M55.1989 142.937C55.4279 139.274 55.4367 135.599 55.2253 131.935C55.2201 131.909 55.2061 131.885 55.1857 131.869C55.1652 131.852 55.1395 131.843 55.1131 131.843C55.0866 131.843 55.0609 131.852 55.0405 131.869C55.02 131.885 55.006 131.909 55.0008 131.935C54.7887 135.599 54.799 139.274 55.0316 142.937C55.0316 142.96 55.0405 142.981 55.0561 142.997C55.0718 143.012 55.0931 143.021 55.1153 143.021C55.1374 143.021 55.1587 143.012 55.1744 142.997C55.1901 142.981 55.1989 142.96 55.1989 142.937Z" fill="#E0E0E0"/>
<path d="M77.5786 137.436C77.5786 137.66 77.5122 137.878 77.388 138.064C77.2637 138.25 77.087 138.395 76.8803 138.481C76.6737 138.566 76.4462 138.589 76.2268 138.545C76.0074 138.502 75.8059 138.394 75.6477 138.236C75.4895 138.078 75.3818 137.876 75.3381 137.657C75.2945 137.437 75.3169 137.21 75.4025 137.003C75.4881 136.796 75.6331 136.62 75.8191 136.495C76.0051 136.371 76.2238 136.305 76.4475 136.305C76.7471 136.306 77.0341 136.426 77.246 136.637C77.4579 136.849 77.5774 137.136 77.5786 137.436Z" fill="#E0E0E0"/>
<path d="M33.9327 137.436C33.9335 137.661 33.8677 137.881 33.7434 138.068C33.6192 138.255 33.4422 138.401 33.2348 138.488C33.0273 138.575 32.7989 138.598 32.5784 138.555C32.3578 138.511 32.1551 138.403 31.9958 138.245C31.8366 138.086 31.728 137.884 31.6838 137.663C31.6397 137.443 31.6619 137.215 31.7477 137.007C31.8335 136.799 31.979 136.621 32.1659 136.496C32.3527 136.372 32.5724 136.305 32.7972 136.305C33.0976 136.305 33.3857 136.424 33.5985 136.636C33.8113 136.848 33.9315 137.136 33.9327 137.436Z" fill="#E0E0E0"/>
<path d="M56.0616 149.992C56.0624 150.217 55.9966 150.437 55.8723 150.624C55.7481 150.812 55.5711 150.958 55.3637 151.044C55.1563 151.131 54.9278 151.154 54.7073 151.111C54.4867 151.068 54.284 150.96 54.1247 150.801C53.9655 150.643 53.8569 150.44 53.8127 150.22C53.7686 149.999 53.7908 149.771 53.8766 149.563C53.9624 149.355 54.1079 149.178 54.2948 149.053C54.4816 148.928 54.7013 148.861 54.9261 148.861C55.2265 148.861 55.5146 148.98 55.7274 149.192C55.9403 149.404 56.0604 149.692 56.0616 149.992Z" fill="#E0E0E0"/>
<path d="M21.5656 170.128L17.3273 194.58H19.8711L27.9208 170.128H21.5656Z" fill="#E0E0E0"/>
<path d="M92.6568 170.128L96.433 194.58H93.8935L86.2972 170.128H92.6568Z" fill="#E0E0E0"/>
<path d="M109.628 170.128L114.126 194.58H111.582L103.272 170.128H109.628Z" fill="#E0E0E0"/>
<path d="M55.9823 161.453C55.9823 161.678 55.9156 161.897 55.7906 162.084C55.6656 162.271 55.488 162.417 55.2803 162.502C55.0726 162.588 54.844 162.61 54.6237 162.566C54.4033 162.522 54.2009 162.413 54.0423 162.254C53.8837 162.095 53.7759 161.892 53.7326 161.672C53.6893 161.451 53.7124 161.223 53.799 161.015C53.8856 160.808 54.0319 160.631 54.2192 160.507C54.4065 160.382 54.6264 160.317 54.8512 160.317C55.0001 160.317 55.1475 160.347 55.2851 160.404C55.4226 160.461 55.5475 160.545 55.6526 160.65C55.7576 160.756 55.8409 160.881 55.8975 161.019C55.954 161.156 55.9829 161.304 55.9823 161.453Z" fill="#E0E0E0"/>
<path d="M13.3486 155.586H96.5035C96.5327 155.586 96.5606 155.575 96.5813 155.554C96.6019 155.533 96.6135 155.505 96.6135 155.476C96.6135 155.447 96.6019 155.419 96.5813 155.398C96.5606 155.378 96.5327 155.366 96.5035 155.366H13.3486C13.3194 155.366 13.2914 155.378 13.2708 155.398C13.2502 155.419 13.2386 155.447 13.2386 155.476C13.2386 155.505 13.2502 155.533 13.2708 155.554C13.2914 155.575 13.3194 155.586 13.3486 155.586Z" fill="#E0E0E0"/>
<path d="M191 66.5646H169.589V72.2288H191V66.5646Z" fill="#F5F5F5"/>
<path d="M181.947 78.1968C181.945 78.1631 181.945 78.1293 181.947 78.0956V77.8051C181.947 77.5367 181.947 77.167 181.947 76.6873C181.947 75.7102 181.947 74.3062 181.912 72.5326L181.978 72.5986L160.566 72.6426L160.676 72.5326V73.9718C160.676 74.4515 160.676 74.9312 160.676 75.4021V78.188L160.571 78.0824L175.829 78.1308L180.332 78.1616H181.551H181.868H181.982C181.982 78.1616 181.951 78.1616 181.885 78.1616H181.577H180.385L175.904 78.1924L160.571 78.2408H160.465V78.1352C160.465 77.2257 160.465 76.297 160.465 75.3493V72.4798L160.575 72.3698L181.987 72.4138H182.053V72.4798C182.053 74.271 182.026 75.6882 182.017 76.6741C182.017 77.145 182.017 77.5147 182.017 77.7743C182.017 77.8888 182.017 77.9812 182.017 78.056C182.017 78.1308 181.951 78.2012 181.947 78.1968Z" fill="#E0E0E0"/>
<path d="M148.454 127.859C148.45 127.825 148.45 127.791 148.454 127.758V127.467C148.454 127.199 148.454 126.829 148.454 126.35C148.454 125.372 148.432 123.968 148.415 122.195L148.485 122.261L127.074 122.305C127.122 122.256 126.964 122.415 127.179 122.195V127.85L127.069 127.745L142.328 127.793L146.835 127.824H148.054H148.371H148.485H148.384H148.08H146.883L142.403 127.855L127.069 127.903H126.964V122.204C127.184 121.984 127.025 122.142 127.078 122.094L148.49 122.138H148.556V122.204C148.556 123.995 148.525 125.412 148.516 126.398C148.516 126.869 148.516 127.239 148.516 127.498C148.516 127.613 148.516 127.705 148.516 127.78C148.498 127.808 148.477 127.835 148.454 127.859Z" fill="#E0E0E0"/>
<path d="M30.5746 68.8312H9.16315V74.4954H30.5746V68.8312Z" fill="#F5F5F5"/>
<path d="M21.5215 80.4634C21.5184 80.4282 21.5184 80.3929 21.5215 80.3578C21.5215 80.2829 21.5215 80.1861 21.5215 80.0673C21.5215 79.8032 21.5215 79.4291 21.5215 78.9538C21.5215 77.9767 21.5215 76.5684 21.4863 74.7947L21.5523 74.8607L0.140836 74.9048C0.189248 74.8564 0.0308068 75.0148 0.246462 74.7947V80.459L0.140836 80.349L15.3995 80.3974L19.9019 80.4282H21.121H21.4379C21.4758 80.422 21.5144 80.422 21.5523 80.4282H21.4511H21.1474H19.9503L15.4479 80.5206L0.114429 80.569H0V74.7991C0.215655 74.5835 0.0616158 74.7419 0.110028 74.6935L21.5215 74.7331H21.6095V74.7991C21.6095 76.5904 21.5831 78.0076 21.5743 78.9978C21.5743 79.4687 21.5743 79.834 21.5743 80.0981C21.5743 80.2125 21.5743 80.3049 21.5743 80.3754C21.5588 80.4059 21.5411 80.4353 21.5215 80.4634Z" fill="#E0E0E0"/>
<path d="M102.326 11.4582C102.322 11.4246 102.322 11.3906 102.326 11.357V11.0665C102.326 10.7981 102.326 10.4284 102.326 9.95304C102.326 8.97159 102.304 7.56763 102.291 5.79398L102.357 5.85999L80.9455 5.904C80.994 5.85559 80.8355 6.01403 81.0512 5.79398V11.4582L80.9455 11.3526L96.2042 11.401L100.707 11.4318H101.926H102.243H102.357H102.256H101.952H100.755L96.2791 11.4582L80.9455 11.511H80.8355V5.80278L80.9455 5.69275L102.357 5.73676H102.423V5.80278C102.423 7.59404 102.397 9.0112 102.388 10.0015C102.388 10.468 102.388 10.8377 102.388 11.0973V11.379C102.37 11.4073 102.349 11.4338 102.326 11.4582Z" fill="#E0E0E0"/>
<path d="M105.231 5.79388C105.225 5.75895 105.225 5.72318 105.231 5.68825C105.231 5.60463 105.231 5.5078 105.231 5.38457C105.231 5.1073 105.231 4.7288 105.231 4.24908C105.231 3.25883 105.209 1.85487 105.191 0.129628L105.27 0.208849L92.3664 0.257262C92.2651 0.354086 92.494 0.125228 92.472 0.147233V3.06078C92.472 4.00702 92.472 4.92686 92.472 5.80708L92.3664 5.70585L101.569 5.75427L104.254 5.78067H104.976H105.235C105.158 5.78669 105.08 5.78669 105.002 5.78067H104.298L101.657 5.81148L92.384 5.85989H92.2827V5.75427C92.2827 4.87404 92.2827 3.95421 92.2827 3.00796V0.13403C92.2563 0.156035 92.4896 -0.0728232 92.3928 0.0240016L105.257 0.0548102H105.336V0.13403C105.336 1.89448 105.306 3.29844 105.297 4.30189C105.297 4.77282 105.297 5.14691 105.275 5.41978C105.253 5.69265 105.231 5.79828 105.231 5.79388Z" fill="#E0E0E0"/>
<path d="M183.976 194.58C183.976 194.646 144.366 194.695 95.5528 194.695C46.7399 194.695 7.12097 194.646 7.12097 194.58C7.12097 194.514 46.7047 194.466 95.5528 194.466C144.401 194.466 183.976 194.519 183.976 194.58Z" fill="#263238"/>
<path d="M73.9829 38.4151L72.2224 34.8678C73.3164 31.888 73.2563 28.6068 72.0539 25.6691C70.8515 22.7314 68.5937 20.3498 65.7244 18.9922C62.8551 17.6347 59.5818 17.3995 56.5479 18.3329C53.514 19.2662 50.9389 21.3006 49.3288 24.0362C47.7187 26.7718 47.1901 30.0107 47.8469 33.1163C48.5036 36.2218 50.2982 38.9694 52.8779 40.819C55.4576 42.6686 58.6359 43.4863 61.7879 43.1115C64.9399 42.7367 67.8378 41.1965 69.9118 38.7936L73.9829 38.4151Z" fill="white"/>
<path d="M73.9829 38.4151L73.7276 38.4459L72.9618 38.5296L69.9295 38.8464C69.9182 38.8459 69.9075 38.8417 69.8988 38.8346C69.8901 38.8274 69.8838 38.8177 69.881 38.8068C69.881 38.8068 69.881 38.8068 69.881 38.7804L69.9559 38.8288C68.5804 40.4373 66.8257 41.6776 64.8506 42.4378C64.2428 42.6722 63.6174 42.8576 62.9801 42.9923C62.2865 43.1323 61.5832 43.2192 60.8763 43.252C59.3264 43.3251 57.7762 43.1118 56.3036 42.6226C54.6136 42.0593 53.0592 41.1506 51.7393 39.9542C50.4194 38.7579 49.3629 37.3 48.6368 35.6732C47.8239 33.8275 47.4585 31.8159 47.5701 29.8022C47.6818 27.7885 48.2674 25.8296 49.2794 24.0851L49.6843 23.4117L50.1508 22.7779L50.3841 22.461L50.6393 22.1706L51.1587 21.5896C51.3347 21.4048 51.5328 21.2375 51.722 21.0615C51.9026 20.8801 52.0953 20.711 52.2986 20.5554C52.694 20.235 53.1101 19.941 53.5441 19.6751C55.1681 18.6471 57.0052 18.0029 58.9156 17.7917C60.826 17.5804 62.7595 17.8076 64.5689 18.456C67.687 19.5547 70.2572 21.8203 71.7383 24.776C72.0545 25.4101 72.3209 26.0679 72.5349 26.7433C72.7202 27.3795 72.8672 28.0261 72.975 28.6798C73.2743 30.7703 73.0443 32.9025 72.3061 34.881V34.8502C72.8606 36.0077 73.2919 36.9011 73.5824 37.5129C73.7232 37.8034 73.8289 38.0322 73.9037 38.1907C73.9785 38.3491 74.0093 38.4151 74.0093 38.4151C74.0093 38.4151 73.9609 38.3315 73.8861 38.1819L73.5384 37.4997L72.218 34.8854C72.216 34.8805 72.2149 34.8753 72.2149 34.87C72.2149 34.8647 72.216 34.8595 72.218 34.8546C72.9269 32.8826 73.1371 30.7659 72.8298 28.693C72.7218 28.048 72.5748 27.4102 72.3897 26.783C72.1754 26.1161 71.9091 25.4671 71.5931 24.8421C70.4436 22.574 68.6377 20.7047 66.4106 19.4777C64.1835 18.2507 61.6385 17.7229 59.1071 17.9631C57.1686 18.166 55.3021 18.8087 53.6497 19.8424C53.2225 20.108 52.8138 20.402 52.4262 20.7226C52.2254 20.8765 52.0344 21.0426 51.854 21.2199C51.6736 21.396 51.4799 21.5588 51.3039 21.7437L50.7934 22.3158L50.5381 22.6019L50.3092 22.91L49.8691 23.5349L49.4686 24.1995C48.4406 25.9519 47.8602 27.9305 47.7786 29.9606C47.662 32.6949 48.4379 35.393 49.9892 37.6477C51.5405 39.9024 53.783 41.5914 56.3784 42.4598C57.8312 42.9431 59.3596 43.1593 60.8895 43.0979C61.5869 43.0648 62.2811 42.9824 62.9669 42.8515C63.6066 42.719 64.235 42.5365 64.8462 42.3057C66.8043 41.5679 68.5503 40.3586 69.9295 38.7848C69.9384 38.7765 69.9502 38.7718 69.9625 38.7718C69.9747 38.7718 69.9865 38.7765 69.9955 38.7848C70.001 38.7934 70.0039 38.8033 70.0039 38.8134C70.0039 38.8236 70.001 38.8335 69.9955 38.842L69.9515 38.7804L72.9574 38.5208L73.7408 38.4547L73.9829 38.4151Z" fill="#263238"/>
<path d="M54.4639 31.338L56.1055 29.692L59.2743 32.5087L65.4975 26.5232L67.0203 28.1692L59.041 35.6775L54.4639 31.338Z" fill="#4E9594"/>
<path d="M66.2193 178.208L58.579 185.461C58.579 185.461 66.1313 194.083 65.1806 195.865L46.7399 185.241L58.1388 172.434L66.2193 178.208Z" fill="#455A64"/>
<g opacity="0.6">
<path opacity="0.6" d="M53.4912 181.183C53.2852 181.13 53.0669 181.153 52.8767 181.249C52.6866 181.344 52.5375 181.505 52.4569 181.702C52.3938 181.907 52.4111 182.128 52.5051 182.32C52.5992 182.512 52.7629 182.661 52.9631 182.737C53.1825 182.794 53.4154 182.769 53.6175 182.666C53.8196 182.563 53.9767 182.389 54.059 182.178C54.0994 181.958 54.0551 181.732 53.935 181.544C53.8149 181.356 53.628 181.221 53.412 181.165" fill="white"/>
</g>
<g opacity="0.6">
<path opacity="0.6" d="M46.7399 185.241L47.8974 183.921L65.0618 194.646C65.1933 194.852 65.2711 195.088 65.288 195.331C65.3049 195.575 65.2604 195.819 65.1586 196.041L46.7399 185.241Z" fill="white"/>
</g>
<path d="M58.9179 185.545C58.8607 185.628 58.3941 185.395 57.7868 185.404C57.1794 185.413 56.7129 185.642 56.6557 185.554C56.5985 185.465 57.043 185.043 57.7824 185.043C58.5218 185.043 58.9883 185.483 58.9179 185.545Z" fill="#263238"/>
<path d="M60.313 187.521C60.2822 187.618 59.8069 187.521 59.2743 187.71C58.7418 187.899 58.3941 188.234 58.3237 188.177C58.2533 188.119 58.4953 187.587 59.1599 187.367C59.8245 187.147 60.3658 187.433 60.313 187.521Z" fill="#263238"/>
<path d="M59.9653 190.452C59.8773 190.421 60.0313 189.906 60.5551 189.572C61.0788 189.237 61.6157 189.299 61.6069 189.396C61.5981 189.492 61.1668 189.594 60.7531 189.875C60.3394 190.157 60.0621 190.496 59.9653 190.452Z" fill="#263238"/>
<path d="M60.0929 183.344C60.0049 183.401 59.6792 183.027 59.1599 182.75C58.6406 182.473 58.1564 182.385 58.1564 182.279C58.1564 182.173 58.7286 182.094 59.3315 182.433C59.9345 182.772 60.1766 183.291 60.0929 183.344Z" fill="#263238"/>
<path d="M61.2988 181.482C61.2768 181.518 60.8983 181.355 60.4186 180.91C60.1289 180.65 59.8731 180.354 59.6572 180.03C59.5287 179.839 59.4139 179.639 59.3139 179.432C59.2481 179.312 59.2007 179.183 59.1731 179.049C59.1525 178.95 59.1667 178.847 59.2132 178.757C59.2597 178.667 59.3356 178.596 59.4283 178.556C59.511 178.523 59.6002 178.51 59.6888 178.517C59.7774 178.525 59.863 178.553 59.9388 178.6C60.0539 178.669 60.1578 178.755 60.2469 178.855C60.687 179.307 61.0063 179.862 61.1756 180.47C61.3087 180.809 61.3333 181.182 61.246 181.535C61.1888 181.535 61.158 181.135 60.9335 180.549C60.7997 180.21 60.6253 179.888 60.4142 179.59C60.2873 179.418 60.1475 179.256 59.9961 179.106C59.8376 178.934 59.6748 178.833 59.556 178.886C59.4371 178.939 59.5075 178.921 59.5119 179C59.532 179.098 59.5661 179.193 59.6132 179.282C59.7061 179.478 59.8089 179.669 59.9212 179.854C60.1136 180.167 60.3346 180.462 60.5814 180.734C61.0083 181.196 61.3296 181.434 61.2988 181.482Z" fill="#263238"/>
<path d="M61.1052 181.535C61.0977 181.171 61.2056 180.814 61.4132 180.514C61.6078 180.172 61.8594 179.865 62.157 179.608C62.3341 179.452 62.5274 179.317 62.7336 179.203C62.8566 179.115 63.0003 179.06 63.1506 179.044C63.3009 179.028 63.4528 179.051 63.5918 179.11C63.6709 179.161 63.7337 179.234 63.7727 179.32C63.8117 179.406 63.8253 179.501 63.8118 179.594C63.792 179.73 63.7535 179.861 63.6974 179.986C63.4358 180.579 62.95 181.044 62.3463 181.28C61.6993 181.526 61.268 181.403 61.2812 181.368C61.6072 181.28 61.9275 181.173 62.2406 181.047C62.5587 180.888 62.8381 180.661 63.0593 180.382C63.1864 180.22 63.2901 180.041 63.3673 179.85C63.4598 179.643 63.4862 179.44 63.4025 179.41C63.3166 179.389 63.2271 179.387 63.1404 179.404C63.0537 179.422 62.9719 179.458 62.9008 179.511C62.7138 179.609 62.5369 179.726 62.3727 179.858C62.0888 180.083 61.8397 180.349 61.6333 180.646C61.2768 181.166 61.1624 181.553 61.1052 181.535Z" fill="#263238"/>
<path d="M123.795 178.833L125.617 188.674C125.617 188.674 136.514 192.234 136.584 194.268L115.851 194.514L114.319 178.833H123.795Z" fill="#455A64"/>
<g opacity="0.6">
<path opacity="0.6" d="M117.554 188.37C117.35 188.43 117.174 188.561 117.059 188.74C116.945 188.918 116.898 189.133 116.929 189.343C116.978 189.551 117.104 189.732 117.283 189.849C117.461 189.967 117.678 190.011 117.888 189.972C118.106 189.911 118.294 189.772 118.415 189.581C118.536 189.39 118.582 189.161 118.544 188.938C118.468 188.729 118.315 188.556 118.117 188.454C117.919 188.353 117.689 188.331 117.475 188.392" fill="white"/>
</g>
<g opacity="0.6">
<path opacity="0.6" d="M115.851 194.514L115.525 193.009L135.898 193.269C136.116 193.38 136.303 193.543 136.442 193.744C136.581 193.946 136.668 194.178 136.694 194.422L115.851 194.514Z" fill="white"/>
</g>
<path d="M125.965 188.573C125.965 188.678 125.441 188.709 124.921 189.013C124.402 189.317 124.12 189.761 124.041 189.721C123.962 189.682 124.116 189.079 124.754 188.705C125.392 188.331 125.991 188.48 125.965 188.573Z" fill="#263238"/>
<path d="M128.17 189.554C128.192 189.655 127.729 189.818 127.373 190.249C127.016 190.681 126.898 191.13 126.792 191.13C126.686 191.13 126.638 190.531 127.1 190.007C127.562 189.484 128.17 189.453 128.17 189.554Z" fill="#263238"/>
<path d="M129.367 192.252C129.274 192.274 129.142 191.75 129.424 191.191C129.706 190.632 130.194 190.412 130.238 190.5C130.282 190.588 129.97 190.888 129.745 191.35C129.521 191.812 129.472 192.243 129.367 192.252Z" fill="#263238"/>
<path d="M125.102 186.28C125.058 186.372 124.587 186.218 123.997 186.244C123.407 186.271 122.95 186.442 122.897 186.35C122.844 186.258 123.293 185.91 123.988 185.884C124.684 185.857 125.155 186.2 125.102 186.28Z" fill="#263238"/>
<path d="M75.937 107.301C75.5937 107.535 74.8103 119.343 75.937 121.931L73.0719 143.21C73.0719 143.21 65.3787 155.423 63.8295 157.201C62.2803 158.979 52.2369 176.302 52.2369 176.302L63.5786 186.082C63.5786 186.082 83.2869 160.335 86.4645 155.762C91.4246 148.61 97.3089 121.728 97.3089 121.728L98.0747 108.384L75.937 107.301Z" fill="#263238"/>
<path d="M91.4246 124.325C91.7678 124.954 107.115 148.531 107.115 148.531C107.115 148.531 109.443 161.026 109.958 166.536C110.473 172.046 114.249 186.218 114.249 186.218L126.594 185.25C126.594 185.25 123.258 148.764 121.189 141.657C119.121 134.549 113.382 120.804 113.382 120.804L108.541 107.948L94.5846 108.208L91.4246 124.325Z" fill="#263238"/>
<path d="M100.161 111.817C100.144 111.947 100.118 112.075 100.082 112.2L99.8175 113.283C99.5754 114.242 99.2277 115.593 98.8052 117.244C97.925 120.593 96.7455 125.219 95.3547 130.306C93.964 135.394 92.604 139.989 91.5698 143.285C91.0504 144.936 90.6235 146.269 90.3154 147.185L89.959 148.241C89.9233 148.365 89.8762 148.486 89.8181 148.602C89.8401 148.475 89.8725 148.349 89.9149 148.228L90.2318 147.158C90.5179 146.212 90.9184 144.878 91.4157 143.237C92.4104 139.927 93.7395 135.337 95.1347 130.249C96.5298 125.161 97.7445 120.567 98.6556 117.2C99.0957 115.549 99.4742 114.203 99.7382 113.239L100.042 112.165C100.074 112.046 100.114 111.93 100.161 111.817Z" fill="#455A64"/>
<path d="M138.081 56.1516C138.081 56.1516 139.379 55.1261 139.797 55.1569C140.215 55.1877 142.83 55.5662 142.83 55.5662C142.83 55.5662 142.993 56.6665 142.244 57.0274C141.651 57.2653 141.021 57.3978 140.383 57.4191L139.762 57.8592L138.081 56.1516Z" fill="#FFCAAE"/>
<path d="M104.016 59.765L124.464 75.8159L134.586 66.2918L134.864 64.439C134.947 63.9122 135.094 63.3978 135.304 62.9074L137.914 56.6974L144.027 66.6087C144.027 66.6087 128.997 86.2333 126.356 86.9199C122.884 87.8265 105.601 76.124 105.601 76.124L104.016 59.765Z" fill="#FFCAAE"/>
<path d="M137.799 62.168C138.428 62.8324 138.882 63.643 139.119 64.5266C139.357 65.4102 139.37 66.339 139.159 67.2293C139.178 66.3418 139.091 65.4553 138.899 64.5886C138.63 63.7408 138.261 62.9282 137.799 62.168Z" fill="#FF9A6C"/>
<path d="M90.7864 30.9199L90.3859 51.8692C90.2451 55.4474 90.0558 60.7419 95.7201 60.7067C100.632 60.3018 102.058 55.7026 102.185 52.3446C102.247 50.7646 102.3 49.4442 102.317 49.2638C102.317 49.2638 107.691 48.9689 108.285 43.6875C108.571 41.1305 108.725 35.8227 108.827 31.0211C108.863 28.5392 107.967 26.134 106.315 24.2815C104.663 22.429 102.375 21.2641 99.9055 21.0174L99.395 20.9689C93.8584 20.7401 90.8612 25.3789 90.7864 30.9199Z" fill="#FFCAAE"/>
<path d="M102.331 49.299C99.8874 49.049 97.5673 48.1036 95.6453 46.5747C95.6453 46.5747 96.9392 50.6061 102.247 50.659L102.331 49.299Z" fill="#FF935C"/>
<path d="M99.9495 33.7454C99.8307 33.7718 99.3201 33.3537 98.4663 33.1117C97.6125 32.8696 96.9083 32.918 96.8335 32.83C96.7587 32.742 96.9347 32.72 97.2428 32.6936C97.6883 32.6644 98.1355 32.715 98.5631 32.8432C98.9822 32.9598 99.3751 33.1555 99.7206 33.4198C99.9495 33.6046 100.002 33.7322 99.9495 33.7454Z" fill="#263238"/>
<path d="M98.9021 34.7885C98.8842 34.9745 98.7948 35.1463 98.6528 35.2678C98.5108 35.3893 98.3272 35.451 98.1407 35.4399C98.049 35.4382 97.9585 35.4182 97.8747 35.381C97.7909 35.3438 97.7154 35.2901 97.6526 35.2233C97.5898 35.1564 97.5411 35.0776 97.5093 34.9916C97.4774 34.9056 97.4632 34.8141 97.4673 34.7225C97.4852 34.5364 97.5746 34.3646 97.7166 34.2431C97.8586 34.1217 98.0422 34.06 98.2287 34.0711C98.3204 34.0728 98.4108 34.0928 98.4947 34.13C98.5785 34.1672 98.654 34.2208 98.7168 34.2877C98.7796 34.3546 98.8283 34.4333 98.8601 34.5193C98.8919 34.6053 98.9062 34.6969 98.9021 34.7885Z" fill="#263238"/>
<path d="M101.912 39.2204C102.354 39.1281 102.805 39.0926 103.255 39.1148C103.466 39.1148 103.668 39.0928 103.717 38.952C103.755 38.739 103.727 38.5195 103.638 38.3226C103.492 37.8033 103.343 37.2575 103.198 36.681C102.568 34.344 102.137 32.4339 102.229 32.4075C102.322 32.3811 102.911 34.2604 103.55 36.593L103.99 38.2434C104.094 38.5078 104.103 38.8003 104.016 39.0708C103.978 39.1407 103.924 39.2011 103.86 39.2476C103.795 39.294 103.721 39.3254 103.642 39.3393C103.524 39.3541 103.404 39.3541 103.286 39.3393C102.825 39.3595 102.363 39.3196 101.912 39.2204Z" fill="#263238"/>
<path d="M99.5666 29.6436C99.4742 29.8372 98.77 29.67 97.9162 29.692C97.0623 29.714 96.3626 29.8813 96.2657 29.692C96.2261 29.5996 96.3626 29.4235 96.6574 29.2519C97.0437 29.0463 97.4742 28.9375 97.9118 28.935C98.3482 28.9234 98.7806 29.0202 99.1705 29.2167C99.4654 29.3751 99.6062 29.5512 99.5666 29.6436Z" fill="#263238"/>
<path d="M107.951 31.5053C107.85 31.6594 107.163 31.4657 106.327 31.4173C105.491 31.3689 104.786 31.4569 104.703 31.2853C104.668 31.2061 104.808 31.0652 105.103 30.9464C105.502 30.7988 105.929 30.7403 106.353 30.7747C106.78 30.8008 107.196 30.9147 107.577 31.1092C107.872 31.2765 107.99 31.4349 107.951 31.5053Z" fill="#263238"/>
<path d="M90.826 34.9558C90.7335 34.9074 87.085 33.543 86.9266 37.3544C86.7681 41.1658 90.6279 40.5408 90.6411 40.4352C90.6543 40.3296 90.826 34.9558 90.826 34.9558Z" fill="#FFCAAE"/>
<path d="M89.5364 38.9389C89.5364 38.9389 89.466 38.9829 89.3516 39.0313C89.1919 39.0952 89.0138 39.0952 88.8542 39.0313C88.4581 38.8684 88.1456 38.2127 88.1544 37.5261C88.1584 37.1994 88.2351 36.8776 88.3789 36.5842C88.4194 36.4661 88.4884 36.3598 88.5797 36.2746C88.6711 36.1894 88.782 36.128 88.9026 36.0957C88.9796 36.0783 89.0602 36.0886 89.1302 36.1248C89.2003 36.1611 89.2553 36.2209 89.2855 36.2938C89.3339 36.3994 89.2855 36.4742 89.3251 36.483C89.3648 36.4918 89.4088 36.4214 89.3868 36.263C89.3694 36.1684 89.3196 36.0828 89.2459 36.0209C89.1441 35.936 89.0127 35.8948 88.8806 35.9065C88.723 35.9315 88.5743 35.9964 88.4488 36.095C88.3233 36.1936 88.225 36.3226 88.1632 36.4698C87.988 36.793 87.8943 37.1541 87.8904 37.5217C87.8904 38.2919 88.2469 39.0269 88.7706 39.2117C88.8719 39.2458 88.9796 39.2564 89.0856 39.2427C89.1916 39.2289 89.2931 39.1913 89.3824 39.1325C89.5232 39.0313 89.5496 38.9477 89.5364 38.9389Z" fill="#FF935C"/>
<path d="M101.983 41.7512C101.983 41.6499 101.252 41.6191 100.605 41.0954C100.33 40.8652 100.087 40.5987 99.8835 40.3032C99.7119 40.0743 99.593 39.9335 99.5578 39.9555C99.5226 39.9775 99.5798 40.1447 99.7075 40.3956C99.8763 40.7498 100.121 41.0624 100.425 41.311C100.736 41.5533 101.107 41.7056 101.499 41.7512C101.794 41.8216 101.978 41.782 101.983 41.7512Z" fill="#263238"/>
<path d="M107.784 33.323C107.695 33.4066 107.044 33.323 106.186 33.5606C105.328 33.7983 104.751 34.1944 104.646 34.1636C104.54 34.1328 104.676 34.0228 104.927 33.8423C105.298 33.5889 105.711 33.4027 106.146 33.2922C106.563 33.1708 106.999 33.1305 107.431 33.1733C107.718 33.2085 107.828 33.2658 107.784 33.323Z" fill="#263238"/>
<path d="M106.639 35.189C106.621 35.375 106.532 35.5468 106.39 35.6683C106.248 35.7898 106.064 35.8515 105.878 35.8404C105.786 35.8387 105.696 35.8187 105.612 35.7815C105.528 35.7443 105.452 35.6907 105.39 35.6238C105.327 35.5569 105.278 35.4782 105.246 35.3921C105.215 35.3061 105.2 35.2146 105.204 35.123C105.222 34.937 105.312 34.7651 105.454 34.6437C105.596 34.5222 105.779 34.4605 105.966 34.4716C106.058 34.4733 106.148 34.4933 106.232 34.5305C106.316 34.5677 106.391 34.6213 106.454 34.6882C106.517 34.7551 106.565 34.8338 106.597 34.9198C106.629 35.0059 106.643 35.0974 106.639 35.189Z" fill="#263238"/>
<path d="M116.128 26.4969C116.068 26.2818 115.928 26.0977 115.736 25.982C115.317 25.781 114.853 25.693 114.39 25.7267C113.237 25.6724 112.111 25.3579 111.098 24.8069C111.462 24.6421 111.797 24.4208 112.092 24.1511C112.404 23.8773 112.635 23.5236 112.761 23.128C112.887 22.7325 112.902 22.3102 112.805 21.9066C112.79 21.8308 112.757 21.7596 112.71 21.6986C112.663 21.6375 112.602 21.5882 112.532 21.5545C112.299 21.4753 112.092 21.6997 111.916 21.8802C111.702 22.1554 111.418 22.3683 111.094 22.4968C110.769 22.6253 110.417 22.6646 110.072 22.6107C109.59 22.5676 109.124 22.4173 108.708 22.1706L108.664 22.1178L108.127 21.5457C106.806 20.1593 105.658 19.1911 104.465 18.6717C102.705 17.9147 99.7691 17.545 97.9118 17.9808C96.0545 18.4165 94.3645 19.8644 94.0564 21.7481C93.0441 20.8679 91.4949 20.8107 90.223 21.2816H90.1922C88.775 21.7217 87.9388 23.2049 87.4899 24.6221C87.4635 24.6969 87.4415 24.7761 87.4195 24.8553C86.926 25.5982 86.2621 26.2124 85.483 26.6466C85.3466 26.7214 85.1881 26.8138 85.1661 26.9723C85.1441 27.1307 85.2717 27.2583 85.395 27.3508C85.7271 27.5995 86.1105 27.7709 86.5173 27.8525C86.382 28.1898 86.2186 28.5152 86.0287 28.8251C85.8615 29.0892 85.6635 29.4061 85.7955 29.7054C85.8568 29.8091 85.948 29.8919 86.0572 29.9429C86.1663 29.994 86.2883 30.0109 86.4072 29.9914C86.644 29.9452 86.8687 29.8508 87.0674 29.7142L86.5701 30.8232C87.077 30.9216 87.5999 30.9006 88.0973 30.7616C88.316 32.0975 88.6098 33.4199 88.9775 34.7226C89.5629 34.7226 90.1218 34.617 90.4739 34.9515C90.9536 35.3916 91.1517 36.241 91.9747 35.9461C92.4148 35.7965 92.7977 34.9383 92.9473 34.5158C93.9379 31.7182 94.3132 28.7398 94.0476 25.784C94.646 25.1783 95.3559 24.6941 96.1381 24.358L96.0721 24.4108C97.5685 23.9399 99.2541 23.4778 100.64 24.2083C101.714 24.7761 102.326 25.9248 103.114 26.849C103.804 27.6914 104.661 28.3811 105.632 28.8743C106.602 29.3676 107.665 29.6536 108.752 29.7142C108.919 31.3206 108.69 33.3407 108.752 34.8371L110.195 32.4693C110.296 32.2997 110.387 32.1249 110.468 31.9455L110.495 31.8927C110.635 31.611 110.767 31.3294 110.935 31.0521C111.104 31.1963 111.32 31.2751 111.543 31.2741C111.766 31.2732 111.981 31.1926 112.149 31.047C112.318 30.9014 112.428 30.7003 112.462 30.48C112.495 30.2598 112.448 30.035 112.33 29.8462C112.208 29.6691 112.059 29.5118 111.89 29.3797C112.068 29.5611 112.29 29.6933 112.535 29.7635C112.779 29.8337 113.038 29.8394 113.285 29.7802C113.53 29.7118 113.745 29.565 113.899 29.3623C114.052 29.1596 114.135 28.9121 114.134 28.6579C114.116 28.4926 114.058 28.3343 113.963 28.1975C113.868 28.0607 113.741 27.9497 113.593 27.8745C114.248 27.9465 114.909 27.8192 115.49 27.5092C115.864 27.3067 116.234 26.9679 116.128 26.4969Z" fill="#263238"/>
<path d="M95.6848 22.395C95.4901 22.5365 95.3076 22.694 95.1391 22.8659C94.7075 23.3614 94.4117 23.9604 94.2809 24.6044C94.177 25.0446 94.1195 25.4945 94.1092 25.9467C94.1092 26.4353 94.1092 26.959 94.14 27.5091C94.1761 28.0954 94.1761 28.6833 94.14 29.2696C94.115 29.5765 94.0664 29.8811 93.9948 30.1806C93.9407 30.5032 93.8043 30.8064 93.5987 31.0608C93.5036 31.162 93.3838 31.2367 93.2511 31.2776C93.1183 31.3185 92.9773 31.3242 92.8417 31.2941C92.5835 31.2372 92.3513 31.0963 92.1815 30.8936C91.9034 30.4914 91.7391 30.0215 91.7062 29.5336H91.8162C91.6476 29.9281 91.4223 30.2958 91.1473 30.6251C90.8793 30.9303 90.5043 31.121 90.0998 31.1577C89.9126 31.1733 89.7247 31.1351 89.5585 31.0476C89.4019 30.9639 89.2756 30.8331 89.1976 30.6735C89.122 30.5286 89.087 30.3658 89.0963 30.2026C89.1074 30.0494 89.1712 29.9048 89.2768 29.7933L89.334 29.8461C89.0073 30.1973 88.6118 30.4774 88.1721 30.6691C88.0557 30.7182 87.9367 30.7608 87.8156 30.7968C87.7745 30.8113 87.7315 30.8202 87.688 30.8232L87.8068 30.7748C87.8904 30.7439 88.0049 30.6999 88.1545 30.6295C88.5821 30.4309 88.9642 30.1463 89.2768 29.7933L89.3296 29.8461C89.2402 29.9558 89.1871 30.0905 89.1776 30.2316C89.1682 30.3727 89.2028 30.5133 89.2768 30.6339C89.3484 30.7751 89.4622 30.8905 89.6025 30.964C89.7555 31.0389 89.9255 31.0723 90.0954 31.0608C90.4717 31.0212 90.8184 30.8384 91.0637 30.5503C91.331 30.227 91.5504 29.8668 91.715 29.4808L91.7942 29.3136L91.825 29.4984C91.8549 29.9624 92.0067 30.4103 92.2652 30.7968C92.4173 30.9793 92.6267 31.1049 92.8593 31.1533C92.9733 31.1796 93.0923 31.1756 93.2042 31.1416C93.3162 31.1076 93.4173 31.0449 93.4975 30.9596C93.6877 30.7206 93.8149 30.4376 93.8672 30.1366C93.9346 29.8468 93.9816 29.5527 94.008 29.2564C94.0431 28.6818 94.0431 28.1057 94.008 27.5311C94.008 26.981 93.9684 26.4529 94.008 25.9599C94.0241 25.5013 94.0875 25.0456 94.1972 24.6C94.3371 23.9419 94.6518 23.3338 95.1083 22.8395C95.2745 22.6604 95.4693 22.5102 95.6848 22.395Z" fill="#455A64"/>
<path d="M111.934 27.9844L111.89 28.0196L111.758 28.112C111.696 28.1516 111.621 28.2 111.529 28.2485C111.424 28.3097 111.315 28.3641 111.203 28.4113C110.484 28.7136 109.7 28.8331 108.923 28.759C107.769 28.6494 106.67 28.2093 105.759 27.4915C104.661 26.6036 103.755 25.5015 103.096 24.2522C102.727 23.6009 102.432 22.9319 102.102 22.3157C101.802 21.7171 101.418 21.1643 100.962 20.6741C100.548 20.2316 100.031 19.8988 99.4566 19.7059C99.1973 19.6255 98.9269 19.5868 98.6556 19.5914C98.4048 19.5999 98.1562 19.6413 97.9162 19.7147C97.1747 19.9416 96.5461 20.4398 96.1557 21.1098C96.032 21.3607 95.9333 21.6231 95.8609 21.8932C95.859 21.8757 95.859 21.858 95.8609 21.8404L95.8873 21.6776C95.9371 21.4716 96.0109 21.2722 96.1073 21.0834C96.2661 20.7887 96.4729 20.5225 96.7191 20.2956C97.0488 19.9951 97.4389 19.7685 97.8634 19.631C98.1112 19.5508 98.3689 19.5048 98.6292 19.4946C98.9277 19.4871 99.2253 19.5302 99.5094 19.6222C100.102 19.8138 100.637 20.1531 101.063 20.6081C101.523 21.1012 101.908 21.6587 102.207 22.2629C102.542 22.8835 102.837 23.5481 103.202 24.195C103.858 25.431 104.756 26.5222 105.843 27.4034C106.735 28.1158 107.814 28.5572 108.95 28.6754C109.713 28.7551 110.484 28.651 111.199 28.3717C111.683 28.1604 111.925 27.9844 111.934 27.9844Z" fill="#455A64"/>
<path d="M112.479 25.6739C112.415 25.7185 112.346 25.7555 112.273 25.7839C112.089 25.8883 111.898 25.978 111.7 26.0524C111.415 26.1669 111.121 26.2567 110.82 26.3209C110.067 26.4763 109.29 26.4763 108.536 26.3209C108.228 26.2602 107.927 26.1734 107.634 26.0612C107.436 25.9869 107.243 25.8987 107.057 25.7971C106.989 25.7625 106.924 25.7212 106.864 25.6739C106.864 25.6739 107.163 25.8103 107.66 25.9776C107.947 26.0761 108.242 26.1527 108.54 26.2064C108.911 26.2717 109.287 26.3041 109.663 26.3032C110.039 26.2994 110.415 26.264 110.785 26.1976C111.083 26.1377 111.377 26.0583 111.665 25.96C112.18 25.8147 112.466 25.6519 112.479 25.6739Z" fill="#455A64"/>
<path d="M97.925 52.4591L103.369 54.6597C104.69 55.0426 107.251 57.2123 108.778 58.6779L115.116 67.1281L105.433 78.9275L97.925 52.4591Z" fill="#455A64"/>
<path d="M90.3287 48.4717L89.4485 49.8536C89.4485 49.8536 76.65 53.1897 75.5849 55.7555C74.0974 59.3557 76.0515 70.5389 76.0515 70.5389L78.7538 94.6307L75.0568 107.962L108.945 108.543C108.945 108.543 106.89 73.5889 106.41 69.892C105.931 66.195 102.705 53.6474 102.705 53.6474L90.3287 48.4717Z" fill="#455A64"/>
<path d="M105.851 63.0702C105.851 63.0702 105.851 63.1098 105.851 63.1846C105.851 63.2594 105.878 63.3783 105.895 63.5147C105.925 63.8228 105.969 64.2453 106.028 64.7822C106.142 65.8825 106.287 67.4801 106.468 69.4518C106.802 73.4128 107.185 78.8526 107.564 84.8822C107.942 90.9117 108.294 96.3691 108.589 100.317C108.739 102.28 108.857 103.869 108.941 104.991C108.981 105.532 109.011 105.955 109.033 106.263C109.033 106.399 109.033 106.509 109.033 106.597C109.036 106.634 109.036 106.671 109.033 106.707C109.019 106.672 109.012 106.635 109.011 106.597C109.011 106.509 108.985 106.404 108.967 106.267C108.938 105.974 108.894 105.551 108.835 105C108.721 103.899 108.576 102.302 108.395 100.33C108.061 96.3691 107.678 90.9293 107.304 84.8954C106.93 78.8614 106.569 73.4128 106.274 69.465C106.124 67.5021 106.006 65.9133 105.922 64.791C105.882 64.2497 105.851 63.8272 105.829 63.5191C105.829 63.3827 105.829 63.2726 105.829 63.1846C105.832 63.1457 105.84 63.1073 105.851 63.0702Z" fill="#263238"/>
<path opacity="0.3" d="M76.694 102.046L80.1092 103.34L82.0061 97.3725C82.0061 97.3725 85.263 99.8679 87.5427 99.5422C89.8225 99.2166 93.075 97.3725 93.075 97.3725L100.456 98.7456L108.536 101.483L107.942 91.497L86.5657 90.4143L80.1092 91.1713L76.694 102.046Z" fill="black"/>
<path d="M56.1407 110.519L61.651 107.878C62.1615 106.175 62.6764 104.467 63.2398 102.597L69.8414 105.532L72.064 98.6313L78.6657 101.496L80.8135 94.5558C82.7191 95.436 84.3344 96.281 86.0244 96.8532C86.9463 97.1658 87.9456 97.1658 88.8675 96.8532C91.2485 95.8937 93.5283 94.6746 95.9093 93.5215C96.2526 94.1773 96.4683 94.5602 96.6575 94.9563C97.7886 97.3285 97.8678 97.3637 100.288 96.2502C102.867 95.0663 105.451 93.8912 107.999 92.6545C109.082 92.1264 109.909 92.2144 111.01 92.8394C119.416 97.5618 127.87 97.8214 135.995 92.32C143.688 87.1047 147.055 79.5876 145.919 70.4244C144.784 61.2613 139.59 54.9589 131.004 51.7549C117.466 46.7068 102.766 55.465 100.513 69.7555C100.324 70.935 99.8923 71.5643 98.8141 72.0132C96.6135 72.9331 94.4525 73.9717 92.2828 74.9708C88.6387 76.6432 88.6431 76.6432 89.8005 80.5118C89.07 80.9035 88.4802 81.2732 87.8288 81.5637C79.3919 85.4235 56.9153 95.4536 49.5391 98.7281L46.9732 107.473L56.1407 110.519ZM140.295 71.3487C139.619 73.1004 138.439 74.6122 136.904 75.6928C135.369 76.7734 133.548 77.3741 131.671 77.4187C129.794 77.4634 127.946 76.9501 126.361 75.9438C124.776 74.9374 123.526 73.4834 122.768 71.7658C122.01 70.0482 121.779 68.1444 122.104 66.2953C122.429 64.4463 123.295 62.7353 124.593 61.3791C125.891 60.0228 127.563 59.0823 129.396 58.6766C131.229 58.271 133.141 58.4184 134.89 59.1003C136.054 59.5453 137.118 60.2166 138.021 61.0754C138.924 61.9342 139.648 62.9635 140.15 64.1037C140.653 65.2439 140.924 66.4725 140.949 67.7183C140.974 68.9642 140.751 70.2025 140.295 71.3619V71.3487Z" fill="#4E9594"/>
<path opacity="0.3" d="M90.782 86.8274L52.7255 103.327C52.4191 103.46 52.0726 103.465 51.7622 103.342C51.4519 103.219 51.2031 102.978 51.0706 102.671C50.9382 102.365 50.9328 102.019 51.0558 101.708C51.1788 101.398 51.42 101.149 51.7264 101.017L89.7785 84.5212C89.9299 84.4549 90.0929 84.4191 90.2581 84.416C90.4233 84.4129 90.5876 84.4424 90.7413 84.5029C90.8951 84.5635 91.0354 84.6538 91.1542 84.7687C91.2729 84.8836 91.3678 85.0209 91.4333 85.1726C91.4997 85.3239 91.5354 85.4869 91.5386 85.6522C91.5417 85.8174 91.5122 85.9816 91.4516 86.1354C91.3911 86.2892 91.3008 86.4295 91.1859 86.5482C91.0709 86.667 90.9337 86.7619 90.782 86.8274Z" fill="black"/>
<path d="M92.8681 86.9595C92.8681 86.9595 92.8329 86.9859 92.758 87.0255L92.4192 87.1883L91.0988 87.8001L86.2576 90.0007C82.1777 91.8623 76.5443 94.4018 70.2991 97.2141C64.0539 100.026 58.3765 102.495 54.2438 104.212C52.1797 105.092 50.4984 105.774 49.3365 106.241L48.0162 106.769L47.6641 106.905L47.5453 106.941C47.5453 106.941 47.5805 106.919 47.6553 106.883L47.9986 106.729L49.3189 106.157L54.1998 104.067C58.3148 102.306 63.9791 99.7932 70.2243 97.0248L86.2092 89.8686L91.0504 87.7209L92.3707 87.1531L92.7184 87.0079L92.8681 86.9595Z" fill="#263238"/>
<path d="M97.0536 95.3216C96.9964 95.348 95.2624 91.8535 93.1762 87.514C91.0901 83.1745 89.4529 79.636 89.5057 79.592C89.5585 79.548 91.3014 83.0556 93.3831 87.3996C95.4648 91.7435 97.1108 95.3216 97.0536 95.3216Z" fill="#263238"/>
<path d="M144.841 73.3952C144.841 73.3952 144.841 73.2764 144.815 73.0475C144.788 72.8187 144.779 72.471 144.749 72.0309C144.749 71.805 144.735 71.5541 144.709 71.2783C144.678 71.0054 144.621 70.7061 144.572 70.3981C144.524 70.09 144.467 69.7247 144.41 69.355C144.337 68.96 144.243 68.5692 144.128 68.1843C143.631 66.178 142.831 64.2591 141.756 62.4937C140.354 60.1419 138.509 58.0839 136.325 56.4333L135.405 55.7467C135.079 55.5311 134.736 55.3374 134.401 55.1306C134.067 54.9237 133.728 54.6905 133.358 54.5276L132.249 53.9951L131.686 53.7266L131.096 53.511L129.877 53.0708C129.468 52.9344 129.041 52.8464 128.618 52.732C128.195 52.6082 127.764 52.5112 127.329 52.4415C126.438 52.2744 125.536 52.17 124.631 52.129C124.169 52.129 123.707 52.0674 123.24 52.0718L121.827 52.1466C121.59 52.1466 121.352 52.1466 121.114 52.1906L120.402 52.3006C119.926 52.3799 119.446 52.4371 118.967 52.5339C118.002 52.7498 117.052 53.0291 116.124 53.3701L115.415 53.6298C115.296 53.6738 115.177 53.7134 115.063 53.7618L114.72 53.9247L113.342 54.5936C112.902 54.8357 112.462 55.1218 112.022 55.3858C111.802 55.5223 111.582 55.6455 111.362 55.7995L110.737 56.2705C109.885 56.9005 109.076 57.5872 108.316 58.3258L107.233 59.5229L106.96 59.8222L106.714 60.1435L106.225 60.7992L105.724 61.433L105.284 62.1328L104.844 62.8413L104.628 63.1934C104.562 63.3167 104.505 63.4443 104.443 63.5675L103.721 65.0727C103.528 65.5964 103.334 66.1202 103.14 66.6527C101.674 71.0176 101.674 75.742 103.14 80.1069C103.334 80.6351 103.528 81.1632 103.717 81.687C103.906 82.2107 104.201 82.6904 104.443 83.1921L104.623 83.5662L104.839 83.9183L105.279 84.6269L105.719 85.3267L106.212 85.9825L106.701 86.6382L106.943 86.9595L107.216 87.2632C107.581 87.6593 107.942 88.0598 108.303 88.4559C109.061 89.1944 109.868 89.8811 110.719 90.5112L111.348 90.9821C111.555 91.1406 111.789 91.2594 112.009 91.4222C112.449 91.6863 112.889 91.968 113.329 92.2144L114.706 92.879L115.05 93.0419L115.402 93.1783L116.11 93.438C117.039 93.7775 117.989 94.0554 118.954 94.2698C119.433 94.371 119.917 94.4238 120.388 94.503L121.101 94.6131C121.339 94.6439 121.577 94.6439 121.814 94.6571L123.227 94.7319C123.694 94.7319 124.156 94.6923 124.618 94.6791C125.523 94.6362 126.425 94.5318 127.316 94.3666C127.751 94.2933 128.181 94.1948 128.605 94.0717C129.045 93.9573 129.455 93.8693 129.864 93.7372L131.065 93.2971L131.66 93.0815L132.223 92.813L133.328 92.2805C133.697 92.1132 134.027 91.8756 134.371 91.6819C134.714 91.4883 135.048 91.277 135.374 91.0658L136.298 90.3748C138.492 88.727 140.347 86.6707 141.76 84.3188C142.829 82.5423 143.62 80.6129 144.106 78.5974C144.22 78.2138 144.314 77.8245 144.388 77.4311C144.445 77.057 144.498 76.7093 144.55 76.3836C144.603 76.0579 144.656 75.763 144.687 75.5034C144.718 75.2437 144.713 74.9796 144.727 74.7552C144.757 74.3151 144.775 73.9718 144.793 73.7385C144.81 73.5053 144.819 73.3908 144.819 73.3908C144.819 73.3908 144.819 73.5053 144.819 73.7385C144.819 73.9718 144.797 74.3151 144.779 74.7552C144.779 74.984 144.757 75.2349 144.749 75.5078C144.74 75.7806 144.665 76.0843 144.621 76.388C144.577 76.6917 144.524 77.0614 144.467 77.4355C144.399 77.8317 144.309 78.224 144.198 78.6106C143.711 80.6256 142.92 82.5548 141.853 84.332C140.451 86.7144 138.6 88.8023 136.404 90.4804L135.475 91.1758C135.15 91.3914 134.806 91.5895 134.468 91.8007C134.129 92.012 133.79 92.2409 133.42 92.4081L132.302 92.9494L131.734 93.2179L131.14 93.438L129.93 93.8781C129.516 94.0189 129.089 94.1069 128.662 94.2214C128.229 94.3487 127.788 94.4487 127.342 94.5206C126.442 94.6888 125.532 94.7961 124.618 94.8419C124.178 94.8419 123.689 94.9079 123.218 94.8991L121.792 94.8287C121.55 94.8287 121.313 94.8287 121.07 94.7847L120.353 94.6747C119.873 94.5955 119.385 94.5426 118.905 94.4414C117.93 94.2262 116.97 93.9469 116.031 93.6052L115.314 93.3411C115.195 93.2971 115.072 93.2575 114.957 93.2091L114.61 93.0419L113.219 92.3729C112.779 92.1264 112.339 91.8403 111.877 91.5719C111.652 91.431 111.436 91.3122 111.208 91.1538L110.574 90.6785C109.712 90.0424 108.894 89.3483 108.127 88.6011L107.031 87.3996L106.754 87.0959L106.507 86.7659L106.014 86.1057L105.517 85.4455L105.077 84.7369L104.637 84.0196L104.417 83.6631L104.232 83.2846L103.501 81.7662C103.308 81.238 103.109 80.7055 102.916 80.1686C101.431 75.757 101.431 70.9807 102.916 66.5691C103.114 66.0366 103.308 65.504 103.501 64.9759C103.695 64.4477 103.99 63.9592 104.236 63.4531C104.298 63.3299 104.355 63.2022 104.421 63.079L104.637 62.7181L105.077 62.0051L105.517 61.2965L106.014 60.6364L106.507 59.9762L106.758 59.6461L107.031 59.3424C107.401 58.9419 107.766 58.537 108.127 58.1409C108.896 57.3961 109.714 56.7021 110.574 56.0636L111.208 55.5883C111.419 55.4298 111.648 55.311 111.877 55.1482C112.317 54.8797 112.757 54.5936 113.219 54.3472L114.61 53.6782L114.957 53.511C115.072 53.4625 115.195 53.4229 115.314 53.3789L116.031 53.1193C116.968 52.7762 117.927 52.4954 118.901 52.2786C119.385 52.1818 119.873 52.1246 120.353 52.0454L121.07 51.9397C121.308 51.9089 121.55 51.9089 121.792 51.8913L123.214 51.8209C123.685 51.8209 124.156 51.8605 124.618 51.8781C125.532 51.9242 126.442 52.0315 127.342 52.1994C127.788 52.2735 128.228 52.3734 128.662 52.4987C129.103 52.6175 129.516 52.7055 129.93 52.842L131.14 53.2821L131.734 53.5021L132.302 53.7706L133.42 54.312C133.79 54.4836 134.12 54.7213 134.468 54.9237C134.815 55.1262 135.15 55.3286 135.475 55.5443L136.404 56.2441C138.596 57.9135 140.444 59.9926 141.844 62.366C142.914 64.1422 143.707 66.0717 144.194 68.0875C144.304 68.4743 144.393 68.8665 144.462 69.2626C144.52 69.6367 144.568 69.9888 144.616 70.3144C144.665 70.6401 144.718 70.935 144.744 71.1947C144.771 71.4543 144.766 71.7228 144.775 71.9473C144.775 72.3874 144.806 72.7307 144.815 72.9683C144.823 73.206 144.841 73.3952 144.841 73.3952Z" fill="#263238"/>
<path d="M141.888 67.9467C141.874 67.8905 141.866 67.8329 141.866 67.7751L141.831 67.2689C141.831 67.1604 141.822 67.0371 141.804 66.8992C141.804 66.7628 141.76 66.6176 141.734 66.4591C141.687 66.0901 141.612 65.7252 141.509 65.3676C141.26 64.376 140.863 63.4278 140.33 62.5553C138.925 60.2437 136.691 58.5548 134.084 57.8327C131.477 57.1107 128.693 57.4098 126.299 58.6691C125.849 58.9141 125.418 59.1922 125.009 59.5009C124.59 59.8114 124.191 60.1496 123.817 60.5132C123.446 60.8951 123.101 61.3025 122.787 61.7323C122.131 62.6109 121.623 63.5906 121.282 64.6327C120.56 66.7861 120.56 69.1161 121.282 71.2696C121.623 72.3093 122.13 73.2872 122.783 74.1655C123.1 74.5958 123.445 75.0046 123.817 75.389C124.191 75.7526 124.59 76.0908 125.009 76.4013C125.419 76.7085 125.85 76.9865 126.299 77.2331C126.741 77.4674 127.2 77.6689 127.672 77.836C129.441 78.4798 131.349 78.6393 133.2 78.2982C134.671 78.0229 136.066 77.4394 137.295 76.586C138.524 75.7326 139.558 74.6287 140.33 73.3469C140.863 72.4744 141.26 71.5262 141.509 70.5346C141.612 70.177 141.687 69.8121 141.734 69.4431C141.76 69.2802 141.791 69.135 141.804 69.003L141.831 68.6333L141.866 68.1272C141.866 68.0693 141.874 68.0117 141.888 67.9555C141.894 68.0126 141.894 68.0701 141.888 68.1272C141.888 68.2548 141.888 68.422 141.888 68.6333C141.888 68.7477 141.888 68.8709 141.888 69.0074C141.888 69.1438 141.853 69.2935 141.831 69.4475C141.79 69.8205 141.721 70.1898 141.624 70.5522C141.388 71.5584 140.997 72.522 140.466 73.4085C139.693 74.7162 138.651 75.8447 137.409 76.7195C136.167 77.5943 134.753 78.1954 133.262 78.483C131.377 78.8409 129.43 78.689 127.624 78.0429C127.144 77.8712 126.676 77.6668 126.224 77.4311C125.764 77.1818 125.323 76.8994 124.904 76.5861C124.475 76.2683 124.068 75.9228 123.685 75.5519C123.305 75.1626 122.952 74.7479 122.628 74.3107C121.954 73.409 121.429 72.4044 121.075 71.3356C120.336 69.1353 120.336 66.7537 121.075 64.5534C121.426 63.4921 121.945 62.4937 122.611 61.5959C122.935 61.1582 123.288 60.7421 123.667 60.3504C124.051 59.9808 124.458 59.6368 124.886 59.3205C125.305 59.0072 125.747 58.7248 126.207 58.4755C126.659 58.2398 127.126 58.0354 127.606 57.8637C129.413 57.2176 131.359 57.0657 133.244 57.4236C134.734 57.7087 136.146 58.3075 137.386 59.1801C138.627 60.0527 139.668 61.1792 140.44 62.4849C140.971 63.3715 141.361 64.335 141.597 65.3412C141.694 65.7036 141.764 66.0729 141.804 66.4459C141.804 66.6088 141.853 66.7584 141.861 66.886C141.87 67.0137 141.861 67.1457 141.861 67.2601C141.861 67.4714 141.861 67.6386 141.861 67.7663C141.877 67.8253 141.886 67.8858 141.888 67.9467Z" fill="#263238"/>
<path opacity="0.3" d="M113.382 52.5603V94.0541C115.27 94.9547 117.263 95.6156 119.314 96.0214L118.874 50.7427C116.97 51.0967 115.122 51.7082 113.382 52.5603Z" fill="white"/>
<path d="M110.371 92.5314C110.305 92.5314 110.257 84.0108 110.257 73.5009C110.257 62.991 110.305 54.4705 110.371 54.4705C110.437 54.4705 110.486 62.991 110.486 73.5009C110.486 84.0108 110.433 92.5314 110.371 92.5314Z" fill="white"/>
<path d="M105.834 58.9375C105.74 59.122 105.63 59.2974 105.504 59.4612C105.275 59.7869 104.958 60.271 104.593 60.8828C104.161 61.5951 103.767 62.3297 103.413 63.0834C102.981 64.0057 102.602 64.9521 102.278 65.9177C101.966 66.8885 101.709 67.8759 101.507 68.8752C101.336 69.7995 101.217 70.6357 101.155 71.3443C101.094 72.0529 101.054 72.6294 101.045 73.0299C101.052 73.2363 101.037 73.4427 101.001 73.6461C100.968 73.4409 100.954 73.2332 100.957 73.0255C100.957 72.6294 100.957 72.0485 100.993 71.3311C101.05 70.4943 101.153 69.6612 101.301 68.8356C101.673 66.8095 102.318 64.8434 103.22 62.9909C103.59 62.2358 104.002 61.5012 104.452 60.7904C104.844 60.1874 105.178 59.7165 105.429 59.404C105.549 59.2365 105.685 59.0803 105.834 58.9375Z" fill="white"/>
<path d="M99.3685 73.3821C98.1011 74.1137 96.7967 74.7792 95.4604 75.3758C94.1561 76.0425 92.8178 76.6404 91.4509 77.1671C92.7176 76.4327 94.0221 75.7657 95.3591 75.1689C96.6639 74.5047 98.0022 73.9082 99.3685 73.3821Z" fill="white"/>
<path d="M87.9828 82.6948C87.9828 82.6948 87.9564 82.7168 87.8948 82.752L87.6307 82.8885L86.5921 83.4034C85.6899 83.8435 84.3915 84.4773 82.7499 85.2431C79.5019 86.7791 74.9863 88.8564 69.9866 91.0746C64.987 93.2927 60.3922 95.2248 57.0649 96.5936C55.4013 97.2802 54.0546 97.8259 53.1039 98.1956L52.0257 98.6137L51.744 98.7193L51.6472 98.7457C51.6472 98.7457 51.6736 98.7237 51.7352 98.6973L52.0081 98.5697L53.0731 98.1296L56.9901 96.4615C60.2998 95.0576 64.8637 93.0991 69.881 90.8853C74.8983 88.6716 79.4183 86.6118 82.6883 85.1154L86.5569 83.355L87.6131 82.8797L87.8904 82.7608L87.9828 82.6948Z" fill="white"/>
<path d="M131.589 56.3585C131.589 56.4025 130.828 56.2485 129.604 56.2925C128.009 56.345 126.448 56.7657 125.042 57.5215C123.637 58.2773 122.425 59.3479 121.502 60.6496C120.789 61.6443 120.503 62.3617 120.463 62.3397C120.504 62.165 120.568 61.9964 120.652 61.8379C120.854 61.391 121.094 60.9624 121.37 60.5572C122.278 59.2066 123.502 58.099 124.937 57.331C126.372 56.563 127.973 56.1581 129.6 56.1517C130.09 56.1477 130.581 56.183 131.065 56.2573C131.244 56.2693 131.419 56.3033 131.589 56.3585Z" fill="white"/>
<path d="M134.965 54.0787C134.775 54.0149 134.592 53.9323 134.419 53.8322C134.08 53.6562 133.579 53.4229 132.949 53.15C132.32 52.8772 131.558 52.5999 130.7 52.327C129.762 52.047 128.808 51.8222 127.844 51.6537C126.878 51.4949 125.904 51.3949 124.926 51.3544C124.128 51.3272 123.328 51.3419 122.532 51.3984C121.85 51.4468 121.295 51.504 120.916 51.5568C120.721 51.5979 120.522 51.6171 120.322 51.6141C120.511 51.5464 120.705 51.4978 120.903 51.4688C121.282 51.3896 121.832 51.306 122.514 51.2356C123.318 51.1563 124.127 51.1255 124.935 51.1431C125.923 51.1753 126.907 51.2694 127.883 51.4248C128.857 51.5965 129.818 51.8302 130.762 52.1246C131.53 52.3719 132.283 52.6659 133.015 53.0048C133.64 53.2953 134.133 53.555 134.463 53.753C134.64 53.8452 134.808 53.9543 134.965 54.0787Z" fill="white"/>
<path opacity="0.3" d="M81.9137 86.1717L83.4145 78.5753L85.1837 78.5049L86.0684 68.62L84.1671 76.4892L82.235 76.0579L80.4085 85.8636L81.9137 86.1717Z" fill="black"/>
<path d="M97.4101 89.2084C97.4101 89.2084 100.051 87.2896 100.931 86.9683C101.811 86.647 104.892 86.088 105.97 85.3354C106.096 85.3927 106.204 85.4816 106.285 85.5933C106.366 85.7051 106.416 85.8359 106.431 85.9729C106.446 86.11 106.425 86.2486 106.371 86.3753C106.316 86.5019 106.23 86.6122 106.12 86.6954C105.236 87.5419 104.187 88.198 103.039 88.6231C102.265 88.8519 102.511 89.4109 103.066 89.6045C103.62 89.7982 107.577 90.4848 107.577 90.4848C107.577 90.4848 112.176 90.586 112.554 91.0525C112.628 91.1491 112.679 91.2611 112.703 91.3802C112.727 91.4992 112.724 91.6222 112.694 91.7398C112.664 91.8575 112.608 91.9669 112.529 92.0597C112.451 92.1526 112.353 92.2265 112.242 92.276C111.969 92.3728 108.021 92.6369 108.021 92.6369L105.992 92.3949C105.992 92.3949 112.299 93.5612 112.66 94.0893C112.729 94.1736 112.778 94.2732 112.802 94.3798C112.826 94.4865 112.824 94.5972 112.797 94.7031C112.77 94.809 112.718 94.907 112.646 94.9892C112.574 95.0715 112.484 95.1356 112.383 95.1764C112.061 95.37 109.28 94.8287 109.28 94.8287L105.491 94.3578L112.387 96.3339C112.387 96.3339 113.012 96.6023 112.88 97.1217C112.748 97.641 111.894 97.751 111.894 97.751L104.602 96.3339C104.602 96.3339 108.18 98.8425 108.312 99.1506C108.479 99.5907 107.744 99.9868 107.462 99.8063C107.181 99.6259 102.621 97.663 102.621 97.663L97.3881 95.282L93.9244 95.3216L95.4296 88.9048L97.4101 89.2084Z" fill="#FFCAAE"/>
<path d="M81.7332 95.5021L96.6046 95.2821L96.3186 89.0897L80.4085 85.8637L82.7015 74.1699L71.8527 71.6656C70.5816 77.2023 69.7414 82.8291 69.3397 88.4956C69.3397 88.4956 68.5959 93.1828 73.9036 94.4855C76.4813 95.0379 79.1 95.3779 81.7332 95.5021Z" fill="#FFCAAE"/>
<path d="M69.2032 73.1444L84.1671 76.4893C84.1671 76.4893 86.7813 66.7452 86.8694 64.0429C86.9574 61.3406 83.256 52.7892 78.0363 54.5189C78.0363 54.5189 76.4607 54.202 75.0215 56.3101C74.445 57.1595 69.2032 73.1444 69.2032 73.1444Z" fill="#455A64"/>
<path d="M86.218 62.6388C86.2596 61.9101 86.2048 61.1791 86.0551 60.4647C85.8753 59.7011 85.6034 58.9621 85.2453 58.2641C84.8627 57.3773 84.2561 56.6053 83.4849 56.024C82.6972 55.4766 81.7933 55.1195 80.8442 54.9809C80.0619 54.8675 79.2703 54.8307 78.4808 54.8709C77.9477 54.8884 77.4174 54.9547 76.8964 55.0689C76.5267 55.1525 76.3331 55.2317 76.3243 55.2141C76.3155 55.1965 76.3683 55.1789 76.4607 55.1393C76.5943 55.0759 76.7326 55.0229 76.8744 54.9809C77.3941 54.8327 77.9282 54.7412 78.4676 54.708C79.2701 54.6446 80.0772 54.6667 80.875 54.774C81.8637 54.9048 82.8068 55.27 83.6257 55.8391C84.4191 56.4462 85.0397 57.2504 85.4258 58.1717C85.7819 58.8932 86.0423 59.6581 86.2004 60.4471C86.3085 60.9797 86.344 61.5245 86.306 62.0667C86.2954 62.2144 86.2763 62.3613 86.2488 62.5068C86.24 62.586 86.2268 62.6388 86.218 62.6388Z" fill="#263238"/>
<path d="M86.218 67.4845C86.218 67.4845 86.218 67.5461 86.196 67.6649C86.174 67.7838 86.1388 67.9686 86.0992 68.1711C86.0023 68.642 85.8703 69.2758 85.7031 70.0592C85.3422 71.6964 84.8448 73.9365 84.2727 76.5156V76.6212H84.1627L81.1655 75.9567L72.6977 74.029L70.1363 73.4216L69.4453 73.2456C69.3617 73.229 69.2805 73.2024 69.2032 73.1664C69.2878 73.1665 69.372 73.1768 69.4541 73.1972L70.1583 73.3336L72.733 73.8705L81.2183 75.7366L84.1891 76.4012L84.057 76.4848L85.5666 70.0504C85.7559 69.2758 85.9143 68.642 86.0287 68.1755L86.1608 67.6781C86.1711 67.6113 86.1903 67.5462 86.218 67.4845Z" fill="#263238"/>
<path d="M145.017 66.2742C145.178 66.3185 145.349 66.3182 145.51 66.2732C145.671 66.2282 145.817 66.1403 145.933 66.0189C146.417 65.5788 147.222 64.4785 146.874 64.0604C146.523 63.7555 146.096 63.5517 145.638 63.4706C145.638 63.4706 146.28 62.6608 146.003 62.0667C145.958 61.9551 145.891 61.8535 145.807 61.7678C145.723 61.6821 145.622 61.6139 145.511 61.5673C145.4 61.5206 145.281 61.4964 145.161 61.496C145.041 61.4956 144.921 61.519 144.81 61.565C144.925 61.3203 144.986 61.054 144.99 60.7839C144.994 60.5138 144.94 60.246 144.832 59.9982C144.784 59.8675 144.711 59.7479 144.615 59.6465C144.52 59.5451 144.405 59.4641 144.278 59.4084L143.512 59.0739C143.512 59.0739 144.194 58.0529 143.415 57.2034C143.245 57.02 143.042 56.8706 142.817 56.7633C142.339 56.5064 141.791 56.4104 141.254 56.4897C140.717 56.569 140.22 56.8193 139.837 57.2034C140.453 57.8152 141.157 58.4974 140.994 59.0035C140.994 59.0035 137.76 61.1468 138.596 62.2823C139.133 63.0173 139.696 62.6872 139.696 62.6872C139.696 62.6872 138.895 63.4178 139.318 63.9019C139.452 64.0452 139.63 64.1409 139.824 64.1748C140.027 64.2365 140.241 64.2528 140.451 64.2223C140.661 64.1919 140.861 64.1156 141.038 63.9988L141.571 63.6995C141.508 63.8796 141.495 64.0735 141.534 64.2603C141.573 64.4472 141.662 64.62 141.791 64.7602C141.829 64.791 141.868 64.8189 141.91 64.8438C142.106 64.9626 142.332 65.0221 142.561 65.0151C142.789 65.008 143.011 64.9348 143.199 64.8042L144.401 64.0736L144.507 64.6633C144.507 64.6633 143.798 65.4599 145.017 66.2742Z" fill="#FFCAAE"/>
<path d="M145.017 66.2742C144.866 66.1913 144.728 66.0859 144.608 65.9617C144.458 65.8131 144.348 65.6281 144.291 65.4247C144.255 65.2811 144.252 65.1312 144.283 64.9864C144.313 64.8415 144.376 64.7055 144.467 64.5885V64.6325C144.432 64.4477 144.396 64.2496 144.357 64.0428L144.449 64.0824L143.732 64.5665L143.34 64.8306C143.199 64.9356 143.042 65.016 142.874 65.0682C142.689 65.1258 142.492 65.1378 142.302 65.1033C142.111 65.0688 141.931 64.9889 141.778 64.8702C141.61 64.7359 141.498 64.5449 141.461 64.3333C141.424 64.1206 141.436 63.9024 141.496 63.6951L141.628 63.8007C141.369 63.9416 141.131 64.1 140.832 64.2408C140.521 64.3705 140.176 64.3937 139.85 64.3069C139.673 64.2747 139.506 64.2025 139.362 64.0956C139.282 64.0364 139.218 63.9594 139.173 63.8707C139.129 63.782 139.106 63.6842 139.106 63.5851C139.12 63.3957 139.184 63.2135 139.291 63.0569C139.39 62.8973 139.506 62.7496 139.639 62.6168L139.762 62.7841C139.649 62.8406 139.524 62.8701 139.397 62.8701C139.27 62.8701 139.145 62.8406 139.031 62.7841C138.808 62.6765 138.62 62.5069 138.49 62.2955C138.422 62.1844 138.38 62.0597 138.367 61.9303C138.353 61.801 138.368 61.6702 138.411 61.5473C138.486 61.3112 138.601 61.0895 138.75 60.8916C139.371 60.1155 140.115 59.4452 140.95 58.9067L140.906 58.9683C140.935 58.7605 140.879 58.55 140.752 58.3829C140.624 58.1818 140.476 57.9932 140.312 57.8196C140.141 57.6347 139.965 57.4587 139.788 57.2827L139.709 57.2078L139.784 57.1242C140.159 56.7157 140.665 56.4523 141.214 56.3804C141.741 56.3133 142.276 56.3877 142.764 56.5961C143.012 56.6812 143.239 56.8199 143.427 57.0025C143.616 57.185 143.762 57.4069 143.855 57.6524C143.925 57.8963 143.94 58.1524 143.902 58.4031C143.863 58.6538 143.771 58.8931 143.631 59.1047L143.587 58.9507L144.374 59.2984C144.513 59.3638 144.637 59.4563 144.739 59.5704C144.841 59.6846 144.919 59.8181 144.969 59.9629C145.07 60.223 145.118 60.5009 145.11 60.7799C145.101 61.0589 145.037 61.3334 144.92 61.587L144.806 61.4505C144.942 61.3968 145.088 61.3726 145.235 61.3794C145.381 61.3863 145.524 61.424 145.655 61.4901C145.895 61.6341 146.074 61.8612 146.157 62.1283C146.212 62.3826 146.185 62.648 146.078 62.8853C145.99 63.1027 145.873 63.307 145.73 63.4926L145.686 63.3694C146.036 63.4395 146.371 63.569 146.676 63.7523C146.831 63.8355 146.955 63.9668 147.028 64.1264C147.066 64.2859 147.055 64.4527 146.998 64.6061C146.811 65.0716 146.53 65.4939 146.175 65.8472C145.972 66.0908 145.684 66.2481 145.369 66.2874C145.289 66.3007 145.207 66.3007 145.127 66.2874C145.074 66.2874 145.048 66.261 145.048 66.2566C145.153 66.2726 145.26 66.2726 145.365 66.2566C145.665 66.1997 145.933 66.0334 146.117 65.79C146.449 65.4383 146.709 65.0258 146.883 64.5753C146.922 64.4447 146.922 64.3054 146.883 64.1748C146.818 64.0442 146.713 63.9378 146.584 63.8711C146.29 63.7032 145.97 63.5871 145.638 63.5279L145.523 63.5014L145.594 63.4046C145.737 63.2374 145.845 63.0425 145.91 62.8321C145.975 62.6217 145.996 62.4001 145.972 62.1811C145.895 61.958 145.739 61.7713 145.532 61.6574C145.424 61.6041 145.307 61.5742 145.187 61.5697C145.067 61.5651 144.948 61.586 144.837 61.631L144.608 61.7146L144.722 61.4945C144.818 61.263 144.868 61.0147 144.868 60.7639C144.868 60.5132 144.818 60.2649 144.722 60.0334C144.682 59.9144 144.618 59.8048 144.534 59.7117C144.45 59.6185 144.348 59.5437 144.234 59.492L143.446 59.1487L143.336 59.1003L143.402 58.9903C143.522 58.8054 143.601 58.5972 143.634 58.3795C143.667 58.1618 143.654 57.9394 143.595 57.7272C143.511 57.5125 143.381 57.3188 143.213 57.1599C143.046 57.001 142.846 56.8807 142.627 56.8073C142.175 56.6164 141.68 56.5481 141.192 56.6093C140.695 56.6748 140.237 56.9132 139.899 57.2827V57.1242C140.079 57.3003 140.255 57.4807 140.431 57.6656C140.608 57.8517 140.767 58.0535 140.906 58.2685C140.988 58.3776 141.045 58.5024 141.076 58.635C141.106 58.7676 141.108 58.9051 141.082 59.0387V59.0783L141.047 59.1047C140.238 59.6283 139.516 60.2758 138.908 61.0236C138.644 61.3845 138.429 61.851 138.653 62.1855C138.759 62.3602 138.911 62.5019 139.093 62.5948C139.177 62.635 139.269 62.6559 139.362 62.6559C139.455 62.6559 139.546 62.635 139.63 62.5948L140.246 62.2823L139.753 62.7621C139.508 62.9659 139.343 63.2495 139.287 63.5631C139.265 63.8447 139.577 64.034 139.863 64.0868C140.153 64.1734 140.464 64.1578 140.744 64.0428C141.003 63.924 141.267 63.7567 141.523 63.6027L141.712 63.5014L141.65 63.7083C141.581 63.8749 141.564 64.0589 141.603 64.2352C141.641 64.4115 141.733 64.5718 141.866 64.6942C141.997 64.7999 142.153 64.8719 142.318 64.9042C142.484 64.9364 142.655 64.9277 142.816 64.879C143.109 64.757 143.386 64.5988 143.639 64.4081L144.366 63.9416L144.44 63.8887V63.9768C144.471 64.188 144.507 64.3861 144.537 64.5709C144.454 64.6754 144.394 64.797 144.363 64.9271C144.332 65.0572 144.33 65.1925 144.357 65.3235C144.409 65.5172 144.507 65.6954 144.643 65.8428C144.872 66.1861 145.026 66.2742 145.017 66.2742Z" fill="#FF9A6C"/>
<path d="M143.675 58.7659C143.67 59.0457 143.594 59.3197 143.455 59.5625C143.16 60.1713 142.743 60.7135 142.231 61.1557C141.726 61.5933 141.176 61.9754 140.589 62.2956C140.36 62.448 140.109 62.5666 139.846 62.6477C140.042 62.4543 140.265 62.2885 140.506 62.1548C141.056 61.8017 141.581 61.4105 142.077 60.9841C142.567 60.5575 142.983 60.0535 143.309 59.4921C143.551 59.0564 143.639 58.7527 143.675 58.7659Z" fill="#FF9A6C"/>
<path d="M144.841 61.3668C144.872 61.3668 144.81 61.6441 144.493 61.8994C144.176 62.1546 143.75 62.4363 143.265 62.7796C142.698 63.2055 142.085 63.5685 141.439 63.8623C141.957 63.3777 142.527 62.9512 143.138 62.5903C143.622 62.2647 144.08 61.983 144.396 61.7805C144.558 61.6577 144.707 61.5191 144.841 61.3668Z" fill="#FF9A6C"/>
<path d="M145.721 63.4355C145.756 63.4839 145.484 63.7391 145.074 63.9196C144.665 64.1 144.291 64.1309 144.278 64.0692C144.264 64.0076 144.59 63.88 144.982 63.7083C145.373 63.5367 145.695 63.3827 145.721 63.4355Z" fill="#FF9A6C"/>
<path d="M145.532 64.0737C145.532 64.1397 145.228 64.2013 144.929 64.417C144.63 64.6326 144.467 64.8923 144.405 64.8571C144.344 64.8219 144.436 64.4742 144.797 64.2189C145.158 63.9636 145.541 64.0297 145.532 64.0737Z" fill="#FF9A6C"/>
</svg>
