<svg width="295" height="196" viewBox="0 0 295 196" fill="none" xmlns="http://www.w3.org/2000/svg">
<path d="M125.662 143.092L118.053 176.133H121.432L129.135 143.092H125.662Z" fill="#E0E0E0"/>
<path d="M139.684 143.092L147.277 176.133H150.362L143.02 143.092H139.684Z" fill="#E0E0E0"/>
<path d="M120.476 118.031L124.85 141.002H129.825L125.152 118.031H120.476Z" fill="#E0E0E0"/>
<path d="M44.2669 143.092L37.9988 176.275H41.1897L47.7361 143.092H44.2669Z" fill="#E0E0E0"/>
<path d="M57.4459 143.092L64.6117 176.275H67.7634L60.8446 143.092H57.4459Z" fill="#E0E0E0"/>
<path d="M39.0807 118.031L43.4554 141.002H48.426L43.7533 118.031H39.0807Z" fill="#E0E0E0"/>
<path d="M29.2336 115.942L30.1274 120.121H129.974L128.806 115.942H29.2336Z" fill="#EBEBEB"/>
<path d="M31.1427 124.052L32.1972 128.231H131.365L130.464 124.052H31.1427Z" fill="#EBEBEB"/>
<path d="M33.1145 132.449L34.0945 136.628H132.957L132.02 132.449H33.1145Z" fill="#EBEBEB"/>
<path d="M147.277 141.002H40.6722V145.177H147.277V141.002Z" fill="#EBEBEB"/>
<path d="M40.6722 55.5895H65.5995C65.5995 55.5895 63.3926 51.5793 56.9755 52.1634C50.8446 52.7201 50.535 50.2034 47.4186 49.8781C44.3022 49.5527 41.711 51.9557 40.6722 55.5895Z" fill="#EBEBEB"/>
<path d="M85.4504 38.9648H142.557C142.557 38.9648 137.508 29.792 122.804 31.113C108.767 32.3909 108.053 26.5933 100.915 25.872C93.7765 25.1507 87.8299 30.6387 85.4504 38.9648Z" fill="#E0E0E0"/>
<path d="M233.234 39.1255H189.958V176.275H233.234V39.1255Z" fill="#F5F5F5"/>
<path d="M233.234 39.1255H211.596V175.898H233.234V39.1255Z" fill="#EBEBEB"/>
<path d="M210.177 25.6603H194.897V39.1255H210.177V25.6603Z" fill="#F5F5F5"/>
<path d="M210.181 25.6603H206.539V39.1255H210.181V25.6603Z" fill="#EBEBEB"/>
<path d="M186.351 39.1254V38.3375H234.497V39.1254" fill="#E0E0E0"/>
<path d="M202.161 44.9977H198.499V52.7201H202.161V44.9977Z" fill="#FAFAFA"/>
<path d="M211.596 55.7503C211.596 55.8326 206.751 55.8992 200.777 55.8992C194.803 55.8992 189.958 55.8326 189.958 55.7503C189.958 55.6679 194.799 55.6052 200.777 55.6052C206.755 55.6052 211.596 55.664 211.596 55.7503Z" fill="#E0E0E0"/>
<path d="M223.987 44.9977H220.326V52.7201H223.987V44.9977Z" fill="#E0E0E0"/>
<path d="M233.419 55.7503C233.419 55.8326 228.577 55.8992 222.603 55.8992C216.629 55.8992 211.784 55.8326 211.784 55.7503C211.784 55.6679 216.625 55.6052 222.603 55.6052C228.581 55.6052 233.419 55.664 233.419 55.7503Z" fill="#E0E0E0"/>
<path d="M223.987 60.3326H220.326V68.055H223.987V60.3326Z" fill="#E0E0E0"/>
<path d="M233.419 71.0852C233.419 71.1675 228.577 71.2342 222.603 71.2342C216.629 71.2342 211.784 71.1675 211.784 71.0852C211.784 71.0029 216.625 70.9402 222.603 70.9402C228.581 70.9402 233.419 71.0068 233.419 71.0852Z" fill="#E0E0E0"/>
<path d="M223.987 76.1304H220.326V83.8528H223.987V76.1304Z" fill="#E0E0E0"/>
<path d="M233.419 86.8828C233.419 86.9652 228.577 87.0318 222.603 87.0318C216.629 87.0318 211.784 86.9652 211.784 86.8828C211.784 86.8005 216.625 86.7378 222.603 86.7378C228.581 86.7378 233.419 86.8044 233.419 86.8828Z" fill="#E0E0E0"/>
<path d="M223.987 91.928H220.326V99.6504H223.987V91.928Z" fill="#E0E0E0"/>
<path d="M233.419 102.68C233.419 102.763 228.577 102.829 222.603 102.829C216.629 102.829 211.784 102.763 211.784 102.68C211.784 102.598 216.625 102.535 222.603 102.535C228.581 102.535 233.419 102.602 233.419 102.68Z" fill="#E0E0E0"/>
<path d="M223.987 107.275H220.326V114.997H223.987V107.275Z" fill="#E0E0E0"/>
<path d="M233.419 118.027C233.419 118.11 228.577 118.176 222.603 118.176C216.629 118.176 211.784 118.11 211.784 118.027C211.784 117.945 216.625 117.882 222.603 117.882C228.581 117.882 233.419 117.945 233.419 118.027Z" fill="#E0E0E0"/>
<path d="M223.987 122.68H220.326V130.403H223.987V122.68Z" fill="#E0E0E0"/>
<path d="M223.987 138.29H220.326V146.012H223.987V138.29Z" fill="#E0E0E0"/>
<path d="M233.419 133.437C233.419 133.519 228.577 133.582 222.603 133.582C216.629 133.582 211.784 133.519 211.784 133.437C211.784 133.354 216.625 133.288 222.603 133.288C228.581 133.288 233.419 133.354 233.419 133.437Z" fill="#E0E0E0"/>
<path d="M202.161 60.564H198.499V68.2864H202.161V60.564Z" fill="#FAFAFA"/>
<path d="M211.596 71.3205C211.596 71.4028 206.751 71.4694 200.777 71.4694C194.803 71.4694 189.958 71.4028 189.958 71.3205C189.958 71.2381 194.799 71.1715 200.777 71.1715C206.755 71.1715 211.596 71.2381 211.596 71.3205Z" fill="#E0E0E0"/>
<path d="M202.161 76.1343H198.499V83.8567H202.161V76.1343Z" fill="#FAFAFA"/>
<path d="M211.596 86.8908C211.596 86.9731 206.751 87.0358 200.777 87.0358C194.803 87.0358 189.958 86.9731 189.958 86.8908C189.958 86.8085 194.799 86.7418 200.777 86.7418C206.755 86.7418 211.596 86.8085 211.596 86.8908Z" fill="#E0E0E0"/>
<path d="M202.161 91.7045H198.499V99.4269H202.161V91.7045Z" fill="#FAFAFA"/>
<path d="M211.596 102.461C211.596 102.539 206.751 102.606 200.777 102.606C194.803 102.606 189.958 102.539 189.958 102.461C189.958 102.383 194.799 102.312 200.777 102.312C206.755 102.312 211.596 102.379 211.596 102.461Z" fill="#E0E0E0"/>
<path d="M202.161 107.275H198.499V114.997H202.161V107.275Z" fill="#FAFAFA"/>
<path d="M211.596 118.027C211.596 118.11 206.751 118.176 200.777 118.176C194.803 118.176 189.958 118.11 189.958 118.027C189.958 117.945 194.799 117.882 200.777 117.882C206.755 117.882 211.596 117.945 211.596 118.027Z" fill="#E0E0E0"/>
<path d="M202.161 122.841H198.499V130.563H202.161V122.841Z" fill="#FAFAFA"/>
<path d="M211.596 133.598C211.596 133.68 206.751 133.746 200.777 133.746C194.803 133.746 189.958 133.68 189.958 133.598C189.958 133.515 194.799 133.449 200.777 133.449C206.755 133.449 211.596 133.515 211.596 133.598Z" fill="#E0E0E0"/>
<path d="M202.161 138.411H198.499V146.134H202.161V138.411Z" fill="#FAFAFA"/>
<path d="M268.428 116.263H236.613V176.647H268.428V116.263Z" fill="#E0E0E0"/>
<path d="M268.432 116.263H253.513V176.647H268.432V116.263Z" fill="#EBEBEB"/>
<path d="M246.147 121.943H243.285V128.894H246.147V121.943Z" fill="#F5F5F5"/>
<path d="M246.147 149.144H243.285V156.094H246.147V149.144Z" fill="#F5F5F5"/>
<path d="M253.512 131.622C253.512 131.681 249.73 131.728 245.065 131.728C240.4 131.728 236.613 131.681 236.613 131.622C236.613 131.563 240.396 131.512 245.065 131.512C249.734 131.512 253.512 131.563 253.512 131.622Z" fill="#F5F5F5"/>
<path d="M246.147 135.648H243.285V142.598H246.147V135.648Z" fill="#F5F5F5"/>
<path d="M253.512 145.326C253.512 145.385 249.73 145.432 245.065 145.432C240.4 145.432 236.613 145.385 236.613 145.326C236.613 145.267 240.396 145.216 245.065 145.216C249.734 145.216 253.512 145.263 253.512 145.326Z" fill="#F5F5F5"/>
<path d="M259.542 121.943H256.68V128.894H259.542V121.943Z" fill="#E0E0E0"/>
<path d="M265.747 121.943H262.885V128.894H265.747V121.943Z" fill="#E0E0E0"/>
<path d="M259.542 135.13H256.68V142.08H259.542V135.13Z" fill="#E0E0E0"/>
<path d="M265.747 135.13H262.885V142.08H265.747V135.13Z" fill="#E0E0E0"/>
<path d="M259.542 148.321H256.68V155.271H259.542V148.321Z" fill="#E0E0E0"/>
<path d="M265.747 148.321H262.885V155.271H265.747V148.321Z" fill="#E0E0E0"/>
<path d="M270.823 114.801H234.222V116.314H270.823V114.801Z" fill="#E0E0E0"/>
<path d="M268.652 116.455C268.652 116.518 261.541 116.565 252.772 116.565C244.003 116.565 236.888 116.518 236.888 116.455C236.888 116.393 243.999 116.349 252.772 116.349C261.545 116.349 268.652 116.397 268.652 116.455Z" fill="#EBEBEB"/>
<path d="M267.715 176.298C267.715 176.353 213.889 176.4 147.504 176.4C81.1188 176.4 27.2854 176.353 27.2854 176.298C27.2854 176.243 81.0992 176.196 147.504 176.196C213.909 176.196 267.715 176.243 267.715 176.298Z" fill="#263238"/>
<path d="M190.42 169.066H185.399V176.298H190.42V169.066Z" fill="#263238"/>
<path d="M158.754 168.975C158.754 168.975 204.226 169.183 204.226 168.975V98.0823H170.906C169.205 98.0827 167.521 98.4207 165.951 99.0769C164.381 99.7331 162.957 100.694 161.761 101.905C160.566 103.115 159.622 104.551 158.986 106.129C158.349 107.707 158.032 109.395 158.053 111.097L158.754 168.975Z" fill="#455A64"/>
<path d="M204.34 98.0823H205.434C207.772 98.0823 210.014 99.0111 211.668 100.664C213.321 102.318 214.25 104.56 214.25 106.898V169.066H195.504V106.902C195.504 105.743 195.732 104.594 196.176 103.523C196.62 102.451 197.271 101.478 198.092 100.659C198.913 99.8396 199.887 99.1903 200.959 98.7481C202.031 98.306 203.18 98.0797 204.34 98.0823Z" fill="#263238"/>
<path d="M189.323 115.965H165.587V124.495H189.323V115.965Z" fill="#263238"/>
<path d="M163.768 168.176H158.746V176.298H163.768V168.176Z" fill="#455A64"/>
<path d="M195.253 169.066H190.232V176.298H195.253V169.066Z" fill="#455A64"/>
<path d="M213.474 169.066H208.452V176.298H213.474V169.066Z" fill="#263238"/>
<path d="M174.94 98.0823L174.575 98.1058C174.332 98.1058 173.972 98.1058 173.501 98.1803C172.124 98.3083 170.78 98.673 169.527 99.2583C168.626 99.6971 167.789 100.258 167.041 100.924C166.157 101.723 165.395 102.648 164.779 103.668C164.071 104.848 163.542 106.127 163.211 107.463C162.838 108.967 162.68 110.516 162.741 112.065C162.741 125.15 162.761 143.401 162.772 164.068L162.674 163.97H191.682L191.584 164.068C191.584 144.436 191.612 127.22 191.62 114.907C191.62 111.83 191.62 109.062 191.651 106.636C191.808 104.209 192.384 102.147 193.27 100.689C193.655 100.04 194.159 99.4692 194.756 99.0074C195.197 98.6755 195.695 98.4271 196.226 98.2744L196.527 98.1881L196.794 98.1411C196.932 98.1135 197.073 98.0965 197.213 98.0901H197.555L197.217 98.1293C197.076 98.1369 196.936 98.1566 196.798 98.1881L196.531 98.2391L196.233 98.3253C195.712 98.4864 195.224 98.7385 194.791 99.0701C194.204 99.5312 193.709 100.099 193.333 100.744C192.462 102.194 191.898 104.248 191.765 106.659C191.733 109.078 191.765 111.853 191.765 114.927C191.765 127.239 191.784 144.456 191.8 164.087V164.189H162.596V164.087C162.596 143.421 162.619 125.169 162.631 112.085C162.574 110.525 162.738 108.965 163.117 107.451C163.46 106.106 164.002 104.819 164.725 103.633C165.349 102.603 166.122 101.67 167.018 100.865C167.776 100.199 168.621 99.6385 169.53 99.1995C170.793 98.6189 172.148 98.2634 173.533 98.1489C173.89 98.1126 174.248 98.0943 174.607 98.094L174.94 98.0823Z" fill="#263238"/>
<path d="M191.032 132.069C191.032 132.128 184.654 132.171 176.79 132.171C168.927 132.171 162.553 132.128 162.553 132.069C162.553 132.01 168.927 131.967 176.79 131.967C184.654 131.967 191.032 132.014 191.032 132.069Z" fill="#263238"/>
<path d="M165.093 137.282H165.203H165.54H166.857L171.831 137.259L189.322 137.212H189.417V137.306C189.417 142.135 189.417 147.467 189.417 153.068L189.311 153.174H176.257H165.085H165.007V153.096C165.007 148.278 165.038 144.331 165.05 141.575C165.05 140.218 165.05 139.156 165.05 138.439C165.05 138.086 165.05 137.812 165.05 137.619C165.05 137.427 165.05 137.345 165.05 137.345C165.05 137.345 165.05 137.447 165.05 137.635C165.05 137.823 165.05 138.109 165.05 138.47C165.05 139.207 165.05 140.277 165.069 141.641C165.069 144.385 165.093 148.305 165.113 153.111L165.03 153.029H176.202H189.256C189.346 152.935 189.138 153.154 189.158 153.127C189.158 147.525 189.158 142.194 189.158 137.365L189.252 137.459L171.824 137.412L166.826 137.388H165.493H165.144L165.093 137.282Z" fill="#263238"/>
<path d="M187.178 107.232H167.731C167.274 107.232 166.904 107.602 166.904 108.059V111.822C166.904 112.279 167.274 112.649 167.731 112.649H187.178C187.635 112.649 188.005 112.279 188.005 111.822V108.059C188.005 107.602 187.635 107.232 187.178 107.232Z" fill="#4E9594"/>
<path d="M175.786 108.237V110.595H175.547V108.708L174.62 110.295H174.502L173.576 108.719V110.595H173.337V108.237H173.542L174.566 109.985L175.58 108.237H175.786ZM178.033 109.965H176.719L176.436 110.595H176.177L177.255 108.237H177.501L178.579 110.595H178.316L178.033 109.965ZM177.942 109.763L177.376 108.496L176.81 109.763H177.942ZM178.969 108.237H179.218V110.595H178.969V108.237ZM179.985 108.237H180.235V110.379H181.555V110.595H179.985V108.237Z" fill="#263238"/>
<path d="M211.596 165.989C211.596 165.989 211.596 165.851 211.596 165.597C211.596 165.342 211.596 164.958 211.596 164.464C211.596 163.464 211.596 162.002 211.596 160.12C211.596 156.349 211.596 150.908 211.565 144.182C211.533 137.455 211.545 129.458 211.533 120.575C211.533 118.354 211.533 116.08 211.533 113.755V110.227C211.533 109.051 211.616 107.831 211.192 106.699C210.799 105.556 210.084 104.552 209.134 103.806C208.167 103.047 206.996 102.594 205.771 102.504C205.465 102.481 205.155 102.473 204.842 102.477C204.528 102.481 204.218 102.496 203.909 102.508C203.291 102.576 202.686 102.727 202.11 102.959C201.536 103.209 201 103.536 200.514 103.931C200.032 104.339 199.614 104.816 199.271 105.346C198.852 105.997 198.557 106.72 198.401 107.479C198.284 108.242 198.243 109.016 198.28 109.787V114.405C198.28 117.46 198.28 120.45 198.28 123.374C198.28 129.219 198.28 134.789 198.28 139.987C198.28 150.383 198.256 159.293 198.248 165.977L198.19 165.918L208.088 165.949H210.726H211.408H211.643H211.42H210.749H208.123L198.19 165.981H198.068V165.926C198.068 159.242 198.048 150.332 198.037 139.936C198.037 134.738 198.037 129.168 198.037 123.323C198.037 120.399 198.037 117.409 198.037 114.354V109.799C197.998 109.013 198.04 108.225 198.162 107.447C198.323 106.662 198.627 105.914 199.06 105.24C199.416 104.696 199.848 104.205 200.342 103.782C200.843 103.376 201.397 103.04 201.988 102.782C202.583 102.543 203.208 102.387 203.846 102.32C204.164 102.32 204.485 102.281 204.799 102.289C205.112 102.296 205.426 102.289 205.743 102.312C206.997 102.408 208.195 102.869 209.19 103.639C210.184 104.409 210.931 105.454 211.337 106.644C211.537 107.222 211.65 107.827 211.674 108.439C211.702 109.047 211.674 109.639 211.674 110.234V113.762C211.674 116.093 211.674 118.372 211.674 120.599C211.674 129.497 211.651 137.514 211.643 144.244C211.635 150.975 211.619 156.396 211.608 160.167C211.608 162.041 211.608 163.495 211.608 164.479C211.608 164.969 211.608 165.342 211.608 165.6C211.608 165.859 211.596 165.989 211.596 165.989Z" fill="#455A64"/>
<path d="M213.897 131.834C213.897 131.888 209.785 131.936 204.716 131.936C199.648 131.936 195.536 131.888 195.536 131.834C195.536 131.779 199.644 131.732 204.716 131.732C209.789 131.732 213.897 131.775 213.897 131.834Z" fill="#455A64"/>
<path d="M94.4429 78.2471C94.9202 78.2838 95.4001 78.2239 95.8538 78.0709C96.3074 77.9178 96.7256 77.6748 97.0831 77.3564C97.4407 77.038 97.7303 76.6508 97.9347 76.2178C98.1391 75.7848 98.2541 75.3151 98.2727 74.8367C98.3472 72.9002 98.4138 70.9402 98.4138 70.9402C98.4138 70.9402 101.354 70.6658 101.55 67.7611C101.746 64.8564 101.675 58.1453 101.675 58.1453C100.066 57.3348 98.2692 56.9682 96.4708 57.0833C94.6724 57.1984 92.9372 57.791 91.4441 58.8L90.9933 59.1057L91.1462 74.7387C91.1556 75.6304 91.4998 76.4859 92.1104 77.1358C92.721 77.7856 93.5535 78.1823 94.4429 78.2471Z" fill="#B78876"/>
<path d="M100.307 63.261C100.248 63.2018 100.208 63.1263 100.192 63.0442C100.176 62.9621 100.184 62.8771 100.216 62.7998C100.248 62.7226 100.302 62.6565 100.372 62.6101C100.442 62.5636 100.523 62.5388 100.607 62.5388C100.691 62.5388 100.773 62.5636 100.842 62.6101C100.912 62.6565 100.966 62.7226 100.998 62.7998C101.03 62.8771 101.039 62.9621 101.022 63.0442C101.006 63.1263 100.966 63.2018 100.907 63.261C100.827 63.3398 100.719 63.3839 100.607 63.3839C100.495 63.3839 100.387 63.3398 100.307 63.261Z" fill="#263238"/>
<path d="M101.44 62.771C101.393 62.818 101.123 62.5789 100.719 62.5554C100.315 62.5318 100.017 62.7161 99.974 62.6612C99.9309 62.6063 100.005 62.5514 100.139 62.4613C100.316 62.3463 100.528 62.2939 100.738 62.3123C100.949 62.3277 101.15 62.4101 101.311 62.5475C101.428 62.6534 101.464 62.7474 101.44 62.771Z" fill="#263238"/>
<path d="M96.5127 62.72C96.5808 62.7684 96.6331 62.836 96.6629 62.9141C96.6927 62.9922 96.6987 63.0774 96.6802 63.1589C96.6616 63.2405 96.6193 63.3147 96.5586 63.3722C96.498 63.4298 96.4216 63.468 96.3392 63.4822C96.2568 63.4964 96.172 63.4859 96.0956 63.4519C96.0192 63.418 95.9545 63.3622 95.9097 63.2916C95.865 63.221 95.8422 63.1387 95.8441 63.0551C95.8461 62.9715 95.8727 62.8903 95.9208 62.8219C95.9868 62.7313 96.0855 62.6699 96.1961 62.6509C96.3066 62.6319 96.4201 62.6566 96.5127 62.72Z" fill="#263238"/>
<path d="M97.0732 62.861C97.0223 62.9081 96.7518 62.669 96.3519 62.6415C95.9521 62.6141 95.6463 62.8062 95.6071 62.7513C95.5679 62.6964 95.6385 62.6376 95.7678 62.5514C95.9473 62.438 96.1584 62.3852 96.3701 62.4007C96.5817 62.4163 96.7829 62.4993 96.9439 62.6376C97.0575 62.7434 97.0967 62.8375 97.0732 62.861Z" fill="#263238"/>
<path d="M98.5001 65.9697C98.7124 65.9002 98.9353 65.8684 99.1586 65.8756C99.2605 65.8756 99.3468 65.8521 99.3585 65.7933C99.3665 65.6892 99.3461 65.5849 99.2997 65.4914C99.2135 65.217 99.1273 64.9426 99.0332 64.6565C98.7771 63.9487 98.592 63.2173 98.4805 62.473C98.812 63.1506 99.0747 63.8598 99.2645 64.5898C99.3507 64.8799 99.433 65.1543 99.5114 65.4287C99.5722 65.567 99.5833 65.7222 99.5428 65.8677C99.525 65.9062 99.4989 65.9402 99.4663 65.9673C99.4338 65.9944 99.3956 66.014 99.3546 66.0245C99.2947 66.0315 99.2342 66.0315 99.1743 66.0245C98.9481 66.0455 98.7199 66.0269 98.5001 65.9697Z" fill="#263238"/>
<path d="M97.1633 66.3342C97.4024 66.4401 98.2766 67.0163 99.092 67.0241C98.9437 67.2266 98.731 67.3726 98.4888 67.4381C98.2466 67.5037 97.9893 67.4849 97.7592 67.3848C96.9085 67.032 97.1633 66.3342 97.1633 66.3342Z" fill="white"/>
<path d="M98.4257 70.8971C97.0816 70.8414 95.7848 70.3855 94.7017 69.5878C94.7017 69.5878 95.4857 71.7359 98.3865 71.6536L98.4257 70.8971Z" fill="#A36957"/>
<path d="M91.1697 62.6965C91.1708 62.5831 91.1276 62.4737 91.0492 62.3917C90.9709 62.3097 90.8636 62.2615 90.7503 62.2574C90.2093 62.2574 89.3195 62.4574 89.2372 63.9548C89.1196 66.0912 91.1736 65.5581 91.1972 65.4993C91.2207 65.4405 91.1776 63.5275 91.1697 62.6965Z" fill="#B78876"/>
<path d="M90.711 64.6565C90.711 64.6565 90.6718 64.68 90.6091 64.7075C90.5194 64.7415 90.4204 64.7415 90.3308 64.7075C90.1953 64.6137 90.0875 64.4853 90.0186 64.3357C89.9496 64.1861 89.9221 64.0207 89.9388 63.8568C89.9451 63.6737 89.992 63.4943 90.076 63.3315C90.0992 63.2659 90.1382 63.207 90.1894 63.1598C90.2407 63.1127 90.3026 63.0788 90.37 63.0611C90.4136 63.0513 90.4592 63.0575 90.4987 63.0783C90.5382 63.0991 90.569 63.1333 90.5856 63.1747C90.6091 63.2335 90.5856 63.2767 90.5856 63.2806C90.5856 63.2845 90.6326 63.2492 90.6209 63.1591C90.6121 63.1063 90.5859 63.058 90.5464 63.0219C90.5185 62.9978 90.4861 62.9796 90.4511 62.9681C90.4161 62.9567 90.3792 62.9523 90.3425 62.9552C90.2564 62.9696 90.1752 63.0055 90.1067 63.0596C90.0381 63.1138 89.9844 63.1844 89.9505 63.2649C89.8492 63.4448 89.7928 63.6465 89.7859 63.8529C89.7651 64.0427 89.8009 64.2344 89.8888 64.4039C89.9767 64.5733 90.1127 64.7131 90.2798 64.8055C90.3362 64.8264 90.3966 64.8342 90.4564 64.828C90.5162 64.8219 90.5738 64.8021 90.6248 64.7702C90.7032 64.7075 90.7189 64.68 90.711 64.6565Z" fill="#A36957"/>
<path d="M101.076 57.377C98.6899 56.5074 96.1047 56.3414 93.6275 56.8988C93.6275 56.8988 91.1462 57.7651 91.0168 59.1018C90.9489 60.1948 90.9594 61.2913 91.0482 62.3829H91.2049L91.2285 64.6212H92.1301L92.2555 61.5949C92.2555 61.5949 93.9685 60.4189 94.0038 58.5726C94.8388 58.4629 98.9313 57.9807 101.722 58.9333V58.2825C101.718 58.084 101.655 57.8912 101.539 57.7296C101.424 57.5679 101.262 57.445 101.076 57.377Z" fill="#263238"/>
<path d="M96.7322 61.4578C96.7322 61.5166 96.4421 61.5205 96.1128 61.5989C95.7836 61.6773 95.5288 61.791 95.4935 61.7439C95.4582 61.6969 95.6934 61.4852 96.0658 61.399C96.4382 61.3127 96.744 61.4029 96.7322 61.4578Z" fill="#263238"/>
<path d="M101.056 60.8227C101.021 60.8697 100.832 60.7913 100.597 60.8227C100.362 60.854 100.205 60.9795 100.158 60.9442C100.111 60.9089 100.248 60.6659 100.55 60.6188C100.852 60.5718 101.095 60.7835 101.056 60.8227Z" fill="#263238"/>
<path d="M90.958 59.976C90.8169 58.4668 91.0599 57.3025 91.695 56.5617C92.0708 56.1757 92.5404 55.894 93.0579 55.7441C93.5753 55.5943 94.1229 55.5816 94.6467 55.7071C94.9731 55.8684 95.322 55.9794 95.6816 56.0364C96.2735 56.0364 96.7165 55.5386 97.1634 55.1505C97.5055 54.8049 97.9707 54.609 98.457 54.6056C98.5757 54.6109 98.6922 54.6403 98.7992 54.6921C98.9062 54.7439 99.0015 54.817 99.0792 54.9069C99.157 54.9968 99.2157 55.1016 99.2516 55.2149C99.2875 55.3282 99.2999 55.4477 99.288 55.566C99.6881 55.384 100.116 55.2713 100.554 55.2328C100.773 55.2161 100.992 55.2494 101.196 55.3302C101.4 55.4111 101.582 55.5373 101.73 55.6993C101.868 55.8664 101.94 56.0776 101.933 56.2939C101.927 56.5102 101.842 56.7167 101.695 56.8753C101.862 56.7417 102.069 56.6689 102.283 56.6689C102.497 56.6689 102.704 56.7417 102.871 56.8753C103.03 57.0206 103.142 57.2107 103.191 57.4207C103.24 57.6306 103.224 57.8505 103.145 58.0513C103.059 58.2509 102.921 58.4242 102.747 58.5536C102.572 58.683 102.366 58.764 102.15 58.7882C101.935 58.8073 101.718 58.7793 101.515 58.7062C101.312 58.6331 101.127 58.5166 100.974 58.3649L99.7271 57.8474L93.7255 58.1924L90.958 59.976Z" fill="#263238"/>
<path d="M93.898 59.2744C93.9217 59.0533 94.0283 58.8495 94.1964 58.704C94.3644 58.5585 94.5814 58.4822 94.8036 58.4904C95.2523 58.5238 95.6758 58.7107 96.0031 59.0196C96.3232 59.3286 96.6739 59.6045 97.0497 59.8428C97.4935 60.0719 97.9982 60.1556 98.4923 60.0819C98.9842 60.0082 99.4524 59.8217 99.8604 59.537C100.318 59.7879 100.825 59.9326 101.346 59.9604C101.697 59.9991 102.05 59.9145 102.346 59.7213C102.616 59.4879 102.794 59.1652 102.847 58.8118C102.922 58.5301 102.911 58.2327 102.816 57.9573C102.696 57.6931 102.488 57.4786 102.228 57.3497C101.971 57.2229 101.7 57.1256 101.421 57.0596L94.2822 57.236L93.2473 58.7099L93.898 59.2744Z" fill="#263238"/>
<path d="M112.949 174.64L113.153 171.132L106.591 170.704L106.234 175.832L106.626 175.883C108.433 176.102 115.823 176.866 117.057 176.58C118.445 176.259 112.949 174.64 112.949 174.64Z" fill="#4E9594"/>
<g opacity="0.5">
<path opacity="0.5" d="M108.618 175.934C108.556 175.374 108.291 174.857 107.873 174.479C107.46 174.107 106.923 173.901 106.367 173.903L106.246 175.738L108.618 175.934Z" fill="white"/>
</g>
<g opacity="0.4">
<path opacity="0.4" d="M115.627 175.526C115.627 175.526 117.547 176.22 117.281 176.525C117.014 176.831 109.523 176.337 106.234 175.832V175.687L114.972 176.333C114.972 176.333 115.246 175.518 115.627 175.526Z" fill="white"/>
</g>
<path d="M106.152 175.675C106.189 175.684 106.227 175.691 106.266 175.694L106.587 175.734L107.763 175.863C108.771 175.969 110.162 176.09 111.683 176.192C113.204 176.294 114.619 176.357 115.627 176.388L116.826 176.416H117.261C117.225 176.41 117.188 176.41 117.152 176.416H116.826L115.631 176.361C114.619 176.314 113.228 176.243 111.711 176.141C110.194 176.039 108.778 175.926 107.791 175.836L106.615 175.73L106.289 175.706L106.152 175.675Z" fill="#263238"/>
<path d="M114.984 176.435C115.049 176.242 115.136 176.057 115.242 175.883C115.371 175.722 115.518 175.577 115.682 175.451C115.479 175.526 115.305 175.66 115.18 175.835C115.056 176.011 114.987 176.22 114.984 176.435Z" fill="#263238"/>
<path d="M113.11 175.326C113.13 175.326 113.228 175.232 113.333 175.087C113.439 174.942 113.514 174.816 113.494 174.805C113.475 174.793 113.377 174.895 113.271 175.04C113.197 175.122 113.142 175.22 113.11 175.326Z" fill="#263238"/>
<path d="M112.612 175.008C112.612 175.028 112.738 174.965 112.855 174.871C112.973 174.777 113.063 174.687 113.047 174.667C113.032 174.648 112.926 174.714 112.808 174.808C112.691 174.903 112.585 174.993 112.612 175.008Z" fill="#263238"/>
<path d="M112.302 174.369C112.41 174.415 112.526 174.438 112.643 174.436C112.757 174.462 112.875 174.462 112.988 174.436C112.881 174.39 112.764 174.368 112.647 174.369C112.534 174.344 112.416 174.344 112.302 174.369Z" fill="#263238"/>
<path d="M112.22 173.923C112.333 174.009 112.47 174.057 112.612 174.06C112.742 174.092 112.88 174.082 113.004 174.032C112.742 174.001 112.481 173.964 112.22 173.923Z" fill="#263238"/>
<path d="M113.373 174.769C113.51 174.802 113.652 174.81 113.792 174.793C113.947 174.784 114.1 174.76 114.251 174.722C114.341 174.702 114.429 174.674 114.513 174.636C114.565 174.609 114.606 174.565 114.627 174.511C114.635 174.48 114.634 174.447 114.625 174.416C114.615 174.386 114.597 174.359 114.572 174.338C114.416 174.251 114.235 174.22 114.059 174.25C113.883 174.28 113.722 174.369 113.604 174.503C113.531 174.58 113.478 174.672 113.447 174.773C113.431 174.809 113.424 174.848 113.427 174.887C113.48 174.76 113.553 174.642 113.643 174.538C113.751 174.432 113.887 174.36 114.035 174.33C114.205 174.285 114.385 174.309 114.537 174.397C114.6 174.452 114.568 174.526 114.49 174.565C114.413 174.604 114.331 174.633 114.247 174.652C114.102 174.692 113.953 174.721 113.804 174.738C113.533 174.765 113.373 174.754 113.373 174.769Z" fill="#263238"/>
<path d="M113.478 174.797C113.537 174.712 113.562 174.609 113.549 174.507C113.543 174.394 113.51 174.285 113.451 174.189C113.42 174.124 113.373 174.068 113.313 174.027C113.254 173.986 113.186 173.961 113.114 173.954C113.071 173.96 113.032 173.982 113.005 174.017C112.979 174.051 112.967 174.095 112.973 174.138C112.979 174.207 112.999 174.274 113.031 174.334C113.082 174.43 113.144 174.52 113.216 174.601C113.276 174.681 113.353 174.745 113.443 174.789C113.443 174.789 113.365 174.707 113.259 174.565C113.196 174.482 113.142 174.393 113.098 174.299C113.047 174.209 113.016 174.044 113.126 174.032C113.235 174.021 113.329 174.142 113.388 174.228C113.444 174.313 113.479 174.41 113.49 174.511C113.498 174.606 113.494 174.702 113.478 174.797Z" fill="#263238"/>
<path d="M106.403 173.887C106.403 173.887 106.595 173.887 106.889 173.934C107.268 174.009 107.62 174.183 107.908 174.44C108.194 174.705 108.402 175.044 108.508 175.42C108.59 175.706 108.586 175.898 108.602 175.898C108.61 175.854 108.61 175.809 108.602 175.765C108.6 175.643 108.584 175.522 108.555 175.404C108.463 175.01 108.254 174.654 107.955 174.381C107.656 174.109 107.282 173.934 106.881 173.879C106.761 173.867 106.64 173.867 106.52 173.879C106.481 173.876 106.441 173.879 106.403 173.887Z" fill="#263238"/>
<path d="M107.265 171.198C107.188 171.643 107.14 172.092 107.12 172.543C107.07 172.992 107.048 173.443 107.053 173.895C107.176 173.001 107.247 172.1 107.265 171.198Z" fill="#263238"/>
<path d="M109.476 175.349C110.102 175.51 110.75 175.559 111.393 175.494C111.393 175.471 110.962 175.467 110.433 175.428C109.903 175.389 109.476 175.326 109.476 175.349Z" fill="#263238"/>
<path d="M108.198 175.263C108.198 175.263 108.229 175.357 108.265 175.455C108.3 175.553 108.324 175.647 108.343 175.647C108.363 175.647 108.386 175.545 108.343 175.428C108.3 175.31 108.214 175.248 108.198 175.263Z" fill="#263238"/>
<path d="M107.755 174.628C107.755 174.628 107.775 174.714 107.838 174.785C107.9 174.856 107.967 174.907 107.983 174.891C107.998 174.875 107.963 174.809 107.9 174.734C107.838 174.66 107.771 174.613 107.755 174.628Z" fill="#263238"/>
<path d="M107.077 174.307C107.077 174.33 107.171 174.334 107.265 174.373C107.359 174.413 107.422 174.471 107.442 174.456C107.461 174.44 107.41 174.35 107.293 174.299C107.175 174.248 107.073 174.283 107.077 174.307Z" fill="#263238"/>
<path d="M106.595 174.142C106.595 174.162 106.618 174.201 106.673 174.224C106.728 174.248 106.775 174.252 106.787 174.224C106.799 174.197 106.759 174.169 106.705 174.146C106.65 174.122 106.603 174.122 106.595 174.142Z" fill="#263238"/>
<path d="M63.1691 164.091L65.7445 161.7L61.2953 156.855L57.4929 160.312L57.7516 160.63C58.9041 162.033 63.71 167.686 64.8076 168.341C66.0189 169.062 63.1691 164.091 63.1691 164.091Z" fill="#4E9594"/>
<g opacity="0.5">
<path opacity="0.5" d="M59.1433 162.033C59.4894 161.587 59.6558 161.028 59.6098 160.465C59.5718 159.912 59.3269 159.392 58.9238 159.011L57.5675 160.254L59.1433 162.033Z" fill="white"/>
</g>
<g opacity="0.4">
<path opacity="0.4" d="M64.4901 166.6C64.4901 166.6 65.3996 168.423 64.9958 168.462C64.592 168.501 59.5078 162.974 57.4929 160.324L57.6105 160.23L63.4905 166.741C63.4905 166.741 64.2196 166.314 64.4901 166.6Z" fill="white"/>
</g>
<path d="M57.5439 160.14C57.5439 160.14 57.5439 160.175 57.6106 160.234L57.8144 160.485L58.5984 161.402C59.2531 162.186 60.1664 163.221 61.2131 164.358C62.2597 165.495 63.2201 166.506 63.9257 167.227L64.7724 168.074L65.0037 168.301C65.0299 168.329 65.0588 168.354 65.0899 168.376C65.0899 168.376 65.0664 168.344 65.0155 168.29L64.792 168.054L63.9688 167.188C63.2711 166.459 62.3107 165.444 61.2719 164.307C60.2331 163.17 59.3119 162.123 58.6415 161.363L57.8575 160.465C57.7791 160.375 57.7086 160.293 57.6419 160.222L57.5439 160.14Z" fill="#263238"/>
<path d="M63.3965 166.796C63.5797 166.705 63.7714 166.631 63.9688 166.576C64.172 166.553 64.3771 166.553 64.5803 166.576C64.3868 166.477 64.1638 166.452 63.9531 166.506C63.7391 166.534 63.5419 166.637 63.3965 166.796Z" fill="#263238"/>
<path d="M62.8281 164.703C63.047 164.715 63.2658 164.676 63.4671 164.589C63.4671 164.566 63.3142 164.589 63.1417 164.589C62.9692 164.589 62.8281 164.679 62.8281 164.703Z" fill="#263238"/>
<path d="M62.6595 164.119C62.7425 164.164 62.8356 164.187 62.93 164.185C63.0829 164.185 63.2083 164.185 63.2083 164.185C63.2083 164.185 63.0907 164.13 62.9379 164.119C62.785 164.107 62.6635 164.095 62.6595 164.119Z" fill="#263238"/>
<path d="M62.8909 163.464C62.8909 163.464 62.9614 163.605 63.0908 163.746C63.2201 163.887 63.3338 163.989 63.3495 163.974C63.3652 163.958 63.275 163.832 63.1496 163.691C63.0242 163.55 62.9065 163.437 62.8909 163.464Z" fill="#263238"/>
<path d="M63.1339 163.072C63.1554 163.207 63.2169 163.333 63.3103 163.433C63.3841 163.547 63.4907 163.635 63.6161 163.687C63.6161 163.668 63.5063 163.55 63.373 163.382C63.2398 163.213 63.1574 163.072 63.1339 163.072Z" fill="#263238"/>
<path d="M63.3847 164.479C63.4638 164.598 63.5618 164.702 63.6748 164.789C63.7958 164.89 63.9272 164.978 64.0668 165.052C64.1453 165.101 64.2296 165.14 64.3177 165.169C64.3719 165.19 64.4321 165.19 64.4862 165.169C64.5138 165.152 64.5361 165.128 64.5506 165.098C64.5651 165.069 64.5713 165.037 64.5686 165.005C64.5163 164.833 64.4069 164.685 64.2585 164.584C64.1102 164.484 63.9318 164.437 63.7532 164.452C63.6475 164.461 63.5448 164.492 63.4514 164.542C63.3847 164.577 63.3573 164.605 63.3612 164.609C63.4854 164.553 63.6178 164.519 63.7532 164.507C63.8994 164.503 64.0437 164.541 64.1687 164.616C64.2448 164.657 64.3117 164.713 64.3656 164.78C64.4195 164.848 64.4592 164.925 64.4823 165.008C64.4823 165.091 64.4157 165.126 64.3334 165.099C64.2512 165.072 64.1723 165.037 64.0982 164.993C63.9623 164.92 63.8314 164.839 63.7062 164.75C63.5062 164.589 63.3965 164.468 63.3847 164.479Z" fill="#263238"/>
<path d="M63.4436 164.573C63.5445 164.551 63.6337 164.492 63.6945 164.409C63.7663 164.325 63.8174 164.226 63.8434 164.119C63.8636 164.052 63.8671 163.981 63.8534 163.913C63.8397 163.844 63.8094 163.78 63.765 163.727C63.7294 163.701 63.6854 163.691 63.6423 163.698C63.5991 163.704 63.5602 163.727 63.5337 163.762C63.4907 163.815 63.4599 163.876 63.4436 163.942C63.4123 164.047 63.3939 164.155 63.3887 164.264C63.3762 164.363 63.3883 164.464 63.424 164.558C63.429 164.461 63.429 164.364 63.424 164.268C63.4374 164.165 63.4597 164.064 63.4906 163.966C63.5181 163.864 63.6121 163.727 63.6945 163.789C63.7768 163.852 63.7689 164.013 63.7533 164.119C63.7328 164.217 63.6914 164.309 63.6317 164.389C63.5744 164.456 63.5114 164.517 63.4436 164.573Z" fill="#263238"/>
<path d="M58.963 159.023C58.963 159.023 59.1002 159.152 59.2766 159.395C59.5044 159.71 59.6402 160.082 59.6686 160.469C59.6909 160.858 59.6069 161.246 59.4256 161.59C59.2845 161.857 59.1512 161.982 59.1629 161.982C59.1747 161.982 59.2021 161.955 59.2609 161.892C59.3418 161.802 59.4127 161.703 59.4726 161.598C59.6788 161.25 59.7746 160.849 59.7473 160.445C59.72 160.042 59.5709 159.657 59.3197 159.34C59.2439 159.246 59.1599 159.158 59.0689 159.078C59.0356 159.056 59.0001 159.037 58.963 159.023Z" fill="#263238"/>
<path d="M61.4404 157.678C61.0784 157.947 60.7328 158.238 60.4055 158.548C60.0609 158.839 59.7337 159.149 59.4255 159.477C59.7867 159.207 60.1322 158.917 60.4604 158.607C60.805 158.317 61.1322 158.007 61.4404 157.678Z" fill="#263238"/>
<path d="M60.1782 162.21C60.5164 162.761 60.9521 163.245 61.464 163.64C61.464 163.64 61.17 163.323 60.8133 162.931C60.4565 162.539 60.1978 162.198 60.1782 162.21Z" fill="#263238"/>
<path d="M59.3002 161.257C59.2766 161.257 59.257 161.347 59.2139 161.445C59.1708 161.543 59.1238 161.622 59.1394 161.637C59.1551 161.653 59.2374 161.59 59.2884 161.477C59.3394 161.363 59.3276 161.257 59.3002 161.257Z" fill="#263238"/>
<path d="M59.4255 160.493C59.402 160.493 59.3824 160.567 59.3785 160.665C59.3746 160.763 59.3785 160.842 59.4059 160.842C59.4334 160.842 59.453 160.767 59.4569 160.669C59.4608 160.571 59.449 160.493 59.4255 160.493Z" fill="#263238"/>
<path d="M59.1589 159.791C59.1589 159.811 59.206 159.877 59.2452 159.971C59.2844 160.065 59.2961 160.152 59.3197 160.152C59.3432 160.152 59.3706 160.054 59.3197 159.936C59.2687 159.818 59.1707 159.775 59.1589 159.791Z" fill="#263238"/>
<path d="M58.9081 159.34C58.8885 159.34 58.8885 159.399 58.9081 159.454C58.9277 159.509 58.963 159.544 58.9826 159.536C59.0022 159.528 59.0022 159.477 58.9826 159.423C58.963 159.368 58.9434 159.332 58.9081 159.34Z" fill="#263238"/>
<path d="M133.408 65.6247C132.828 65.413 131.601 68.5294 131.475 67.7062C131.35 66.883 133.435 64.0724 132.808 63.8764C132.024 63.6216 130.781 66.9065 130.656 67.1731C130.53 67.4397 130.134 67.275 130.264 67.0359C130.444 66.6949 132.251 63.0532 131.467 62.7945C131.032 62.6533 130.844 63.4569 130.844 63.4569C130.844 63.4569 129.409 66.9849 129.045 66.8517C128.68 66.7184 129.437 64.6133 129.758 63.9234C130.08 63.2335 129.864 62.818 129.448 62.9356C129.166 63.014 128.163 65.1033 127.88 65.7933C127.598 66.4832 126.822 68.3883 126.438 67.1417C126.054 65.8952 125.282 65.0837 124.921 65.0053C124.831 64.9806 124.736 64.9884 124.652 65.0274C124.567 65.0664 124.5 65.134 124.461 65.2182C124.422 65.3025 124.414 65.3978 124.438 65.4874C124.463 65.5769 124.519 65.6547 124.596 65.707C124.858 66.0675 125.068 66.4635 125.219 66.883C125.354 67.2096 125.432 67.557 125.45 67.9101C125.498 68.6199 125.477 69.3328 125.387 70.0386L118.041 82.8649L106.579 78.3725L104.917 84.9307C104.917 84.9307 119.958 91.7789 120.911 91.2772C123.059 90.1443 130.001 71.442 130.001 71.442C131.014 70.179 131.956 68.8612 132.824 67.4945C133.78 65.7933 133.623 65.7031 133.408 65.6247Z" fill="#B78876"/>
<path d="M115.748 173.323C115.748 173.378 113.455 173.323 110.652 173.158C107.849 172.994 105.556 172.845 105.556 172.79C105.556 172.735 107.845 172.79 110.652 172.954C113.459 173.119 115.748 173.264 115.748 173.323Z" fill="#455A64"/>
<path d="M104.905 107.408C104.905 107.408 114.944 129.117 117.626 135.005C117.904 135.619 118.029 136.292 117.99 136.965L115.748 173.311L105.301 172.649L106.869 137.588L89.4214 115.158C87.9357 113.245 86.5715 111.022 86.0541 108.655C85.8816 107.871 86.0541 107.087 86.0541 106.303L104.905 107.408Z" fill="#263238"/>
<path d="M103.874 110.544C103.874 110.544 95.7052 133.021 93.459 139.089C93.2235 139.726 92.8343 140.294 92.3261 140.744L65.1135 164.95L58.1633 157.11L83.9726 133.323L87.3909 105.099C87.6585 102.69 88.4622 100.372 89.7429 98.3136C90.1605 97.6404 90.6537 97.017 91.2129 96.4556L103.874 110.544Z" fill="#263238"/>
<path d="M106.842 137.592C106.819 137.572 106.798 137.549 106.779 137.525L106.603 137.314L105.948 136.49C105.368 135.757 104.549 134.726 103.545 133.452L99.9896 128.941L95.5522 123.48C92.4162 119.603 89.6448 116.008 87.9709 113.186C87.2821 112.088 86.7168 110.916 86.2853 109.693C86.1769 109.356 86.0944 109.012 86.0384 108.662L86.0109 108.392C86.0074 108.361 86.0074 108.329 86.0109 108.298C86.0233 108.327 86.0312 108.357 86.0344 108.388C86.0344 108.462 86.0658 108.549 86.0854 108.658C86.1572 109 86.2502 109.336 86.3637 109.666C86.8225 110.869 87.403 112.022 88.0964 113.108C89.7976 115.903 92.573 119.474 95.7129 123.351C97.2809 125.291 98.7901 127.13 100.135 128.839C101.479 130.548 102.651 132.084 103.663 133.378L106.015 136.459L106.646 137.302L106.807 137.521C106.833 137.568 106.844 137.592 106.842 137.592Z" fill="#455A64"/>
<path d="M111.334 137.592C110.603 137.681 109.866 137.702 109.131 137.655C108.394 137.676 107.657 137.63 106.928 137.517C107.66 137.428 108.399 137.406 109.135 137.451C109.871 137.428 110.607 137.475 111.334 137.592Z" fill="#455A64"/>
<path d="M110.55 139.411C109.345 139.002 108.187 138.464 107.097 137.808C107.71 137.981 108.302 138.219 108.865 138.517C109.456 138.755 110.021 139.055 110.55 139.411Z" fill="#455A64"/>
<path d="M115.846 171.763C115.846 171.821 113.475 171.692 110.558 171.476C107.642 171.261 105.278 171.045 105.282 170.99C105.286 170.936 107.653 171.061 110.574 171.277C113.494 171.492 115.85 171.696 115.846 171.763Z" fill="#455A64"/>
<path d="M85.8816 136.514C85.523 136.06 85.2191 135.565 84.9761 135.04C84.6731 134.548 84.4297 134.022 84.2509 133.472C84.6089 133.927 84.9128 134.421 85.1564 134.946C85.4593 135.438 85.7027 135.964 85.8816 136.514Z" fill="#455A64"/>
<path d="M87.7162 135.765C87.1126 135.453 86.5425 135.08 86.0149 134.652C85.4496 134.281 84.9241 133.853 84.4469 133.374C85.0484 133.69 85.6181 134.062 86.1482 134.487C86.7135 134.858 87.239 135.286 87.7162 135.765Z" fill="#455A64"/>
<path d="M113.529 80.7128C110.35 79.0782 108.1 78.106 106.364 76.9888C100.966 73.5235 99.5428 74.2918 98.2727 74.135C97.2064 74.4604 95.6267 75.0837 95.0308 75.1934C94.3762 75.315 92.2437 74.5662 90.8325 74.1272C87.5476 74.2683 85.5327 75.6638 82.4986 77.8982L77.5359 82.073L83.8079 88.3921L85.909 87.3023C86.2618 90.1522 86.1756 91.2615 86.301 94.6954L86.0188 108.502L106.446 109.658L105.329 96.432L104.835 86.0322L110.652 88.9448L113.525 80.7128" fill="#455A64"/>
<path d="M90.6836 74.5152V72.3945C90.6836 72.3945 94.3292 72.7865 95.0701 75.3149L90.6836 74.5152Z" fill="#455A64"/>
<path d="M98.2727 74.135L98.1355 72.3945C97.3806 72.4925 96.6765 72.8284 96.1253 73.3535C95.5741 73.8786 95.2045 74.5656 95.0701 75.3149L98.2727 74.135Z" fill="#455A64"/>
<path d="M98.7078 81.9711C98.9414 81.937 99.1774 81.9225 99.4134 81.928C99.8799 81.928 100.562 81.8927 101.373 81.881H101.46V81.9711C101.46 82.7551 101.46 83.7038 101.46 84.7151V84.77L101.413 84.7975L101.217 84.9347L100.166 85.6559L100.111 85.6912L100.056 85.6559C99.5467 85.3267 99.0645 85.017 98.6294 84.7308L98.5863 84.7073V84.6603C98.5863 83.8371 98.6177 83.155 98.6333 82.7003C98.6279 82.4643 98.6423 82.2282 98.6765 81.9947C98.6765 81.9947 98.7 82.2847 98.7157 82.7551C98.7313 83.2255 98.7509 83.8802 98.7627 84.6681L98.7196 84.5936L100.162 85.4991H100.068L101.119 84.7739L101.315 84.6407L101.272 84.723C101.272 83.7273 101.272 82.7983 101.272 81.979L101.358 82.0652C100.574 82.0652 99.9073 82.0339 99.4369 82.0182C98.9665 82.0025 98.7196 81.9829 98.7078 81.9711Z" fill="#263238"/>
<path d="M101.322 82.6375C100.884 82.7315 100.433 82.7592 99.9858 82.7198C99.5379 82.7475 99.0884 82.7065 98.653 82.5983C99.0919 82.504 99.5425 82.4763 99.9897 82.516C100.438 82.4859 100.887 82.5269 101.322 82.6375Z" fill="#263238"/>
<path d="M94.4193 74.0449C94.4664 74.0802 93.7725 74.8838 93.1885 76.099L93.1336 76.2127L93.0356 76.1343L92.7925 75.9422C92.0581 75.4042 91.3662 74.8105 90.7228 74.1664C91.494 74.649 92.2278 75.1889 92.918 75.7815L93.161 75.9775L93.0081 76.0088C93.2621 75.4911 93.5709 75.0023 93.9293 74.5506C94.0617 74.3545 94.2275 74.1834 94.4193 74.0449Z" fill="#263238"/>
<path d="M98.2493 74.2134C97.8707 74.7354 97.4384 75.2163 96.9596 75.6482L96.9125 75.6913L96.8263 75.7775L96.7557 75.6795C96.3755 75.1861 96.0484 74.6539 95.7797 74.0919C96.2122 74.54 96.5959 75.0327 96.9243 75.5619H96.7675L96.8145 75.5149C97.2434 75.0296 97.7246 74.5931 98.2493 74.2134Z" fill="#263238"/>
<path d="M95.3954 86.5184C95.3406 86.5184 95.2308 84.0605 95.1485 81.0304C95.0662 78.0002 95.0505 75.5424 95.1054 75.5424C95.1602 75.5424 95.2739 78.0002 95.3523 81.0304C95.4307 84.0605 95.4542 86.5144 95.3954 86.5184Z" fill="#263238"/>
<path d="M87.9905 75.1856C88.0503 75.1764 88.1111 75.1764 88.1708 75.1856C88.3428 75.179 88.5149 75.1908 88.6844 75.2209C89.3118 75.3276 89.9 75.5981 90.3896 76.0048C91.1359 76.6105 91.6474 77.4575 91.836 78.4C92.0616 79.5435 91.9245 80.7289 91.444 81.7908C90.9568 82.841 90.2528 83.7762 89.3782 84.5348C88.6747 85.1476 87.9117 85.6886 87.1007 86.1498C86.4108 86.5418 85.8384 86.8397 85.4425 87.0357C85.241 87.1458 85.0313 87.2401 84.8153 87.318C85.002 87.1855 85.1986 87.0676 85.4033 86.9652C85.7953 86.7456 86.3519 86.4399 87.0262 86.0283C87.8172 85.5532 88.5625 85.006 89.2528 84.3936C90.0988 83.6518 90.7821 82.7429 91.2598 81.7241C91.7203 80.6997 91.8571 79.5591 91.6518 78.4548C91.4815 77.5535 91.0102 76.7367 90.3151 76.1381C89.849 75.733 89.2902 75.4489 88.6883 75.311C88.2375 75.1934 87.9905 75.2091 87.9905 75.1856Z" fill="#263238"/>
<path d="M104.741 86.6713C104.633 86.4353 104.563 86.184 104.533 85.9265C104.414 85.3138 104.332 84.6947 104.286 84.0723C104.238 83.4502 104.228 82.8258 104.255 82.2025C104.248 81.938 104.28 81.6739 104.349 81.4185C104.411 81.4185 104.38 82.5945 104.49 84.0409C104.6 85.4874 104.799 86.6595 104.741 86.6713Z" fill="#263238"/>
<path d="M99.0094 86.7815L60.0334 93.2059L64.0302 117.453L103.006 111.029L99.0094 86.7815Z" fill="#4E9594"/>
<g opacity="0.6">
<path opacity="0.6" d="M99.0094 86.7815L60.0334 93.2059L64.0302 117.453L103.006 111.029L99.0094 86.7815Z" fill="black"/>
</g>
<path d="M100.545 87.286L61.5692 93.7104L65.5659 117.958L104.542 111.533L100.545 87.286Z" fill="#4E9594"/>
<g opacity="0.4">
<path opacity="0.4" d="M100.545 87.2859L61.5692 93.7103L65.5659 117.958L104.542 111.533L100.545 87.2859Z" fill="black"/>
</g>
<path d="M101.92 88.0206L62.9441 94.4451L66.9408 118.692L105.917 112.268L101.92 88.0206Z" fill="#4E9594"/>
<path d="M62.9379 94.4484C62.98 94.4577 63.0208 94.4722 63.0594 94.4916L63.3965 94.6405L64.6979 95.2364L69.4686 97.4551L85.1721 104.844L86.109 105.287L85.9875 105.311L97.2496 93.0294L100.652 89.3524L101.581 88.3607L101.828 88.1059C101.856 88.0756 101.886 88.0481 101.918 88.0236C101.896 88.0581 101.871 88.0909 101.844 88.1216L101.613 88.3881L100.711 89.4034L97.3515 93.1274L86.1364 105.448L86.0855 105.507L86.0149 105.471L85.078 105.029L69.398 97.5805L64.6587 95.303L63.373 94.6758L63.0398 94.5072L62.9379 94.4484Z" fill="#263238"/>
<path d="M79.1667 102.12C79.2137 102.155 76.5128 105.891 73.1338 110.466C69.7548 115.04 66.9794 118.725 66.9324 118.698C66.8853 118.67 69.5901 114.927 72.9692 110.352C76.3482 105.777 79.1236 102.089 79.1667 102.12Z" fill="#263238"/>
<path d="M106.618 112.155C106.583 112.198 103.11 109.45 98.8608 106.016C94.6115 102.583 91.1972 99.7444 91.2324 99.717C91.2677 99.6896 94.7408 102.422 98.9901 105.856C103.239 109.29 106.654 112.112 106.618 112.155Z" fill="#263238"/>
<path opacity="0.3" d="M86.2619 107.267L65.9288 95.8597L86.062 105.381L101.507 88.4705L86.2619 107.267Z" fill="black"/>
<path d="M77.6065 113.288C77.2059 113.105 76.8326 112.868 76.4971 112.582C76.2172 112.364 75.9771 112.099 75.7876 111.798C75.4998 111.353 75.238 110.891 75.0036 110.415C75.0036 110.415 75.2663 97.6903 75.7327 95.5892C76.1992 93.4881 83.5257 88.2509 83.5257 88.2509L78.5904 83.1824C75.1855 85.6825 72.2071 88.7165 69.7704 92.167C67.4184 95.6127 69.9782 111.63 69.9782 111.642C69.7613 113.011 69.62 114.392 69.5548 115.777C69.5548 117.737 69.7155 117.737 69.9468 117.686C70.5544 117.584 70.0958 114.268 70.6093 114.942C71.1228 115.616 70.6955 119.062 71.3267 118.933C72.1499 118.76 71.6089 115.299 71.5854 115.013C71.5619 114.727 71.9774 114.672 71.9774 114.942C71.9774 115.334 72.2008 119.384 73.0083 119.227C73.4591 119.137 73.2239 118.345 73.2239 118.345C73.2239 118.345 72.7457 114.566 73.1299 114.503C73.514 114.44 73.8786 116.647 73.9452 117.404C74.0119 118.161 74.3921 118.419 74.6979 118.113C74.9056 117.91 74.7567 115.593 74.6704 114.852C74.5842 114.111 74.3215 112.069 75.2702 112.967C76.2188 113.864 77.2851 114.197 77.6222 114.084C77.6744 114.083 77.726 114.071 77.7739 114.05C77.8217 114.03 77.865 113.999 77.9012 113.962C77.9375 113.924 77.9659 113.88 77.9849 113.831C78.004 113.782 78.0133 113.73 78.0122 113.678C78.0112 113.626 77.9999 113.574 77.9789 113.526C77.958 113.478 77.9278 113.435 77.8901 113.399C77.8525 113.363 77.808 113.334 77.7594 113.315C77.7107 113.296 77.6588 113.287 77.6065 113.288Z" fill="#B78876"/>
</svg>
