<svg width="327" height="196" viewBox="0 0 327 196" fill="none" xmlns="http://www.w3.org/2000/svg">
<g clip-path="url(#clip0)">
<path d="M94.5141 75.2818L68.924 87.4213L115.566 98.2499L97.8484 76.0444C97.4606 75.5592 96.9199 75.2197 96.3143 75.0812C95.7088 74.9427 95.0742 75.0134 94.5141 75.2818Z" fill="#E0E0E0"/>
<path d="M69.1461 87.4777L115.519 98.2435C115.58 98.2575 115.632 98.2948 115.664 98.3473C115.697 98.3998 115.708 98.4632 115.694 98.5234L109.545 125.01C109.511 125.155 109.421 125.281 109.295 125.359C109.169 125.438 109.016 125.463 108.871 125.43L63.1429 114.814C62.9979 114.78 62.8723 114.69 62.7936 114.564C62.7149 114.438 62.6896 114.285 62.7233 114.14L68.8723 87.6536C68.886 87.5944 68.9223 87.5429 68.9735 87.51C69.0246 87.4772 69.0865 87.4656 69.1461 87.4777Z" fill="#E0E0E0"/>
<path d="M112.541 98.2182L90.6503 105.58L71.3757 89.5831L74.7731 76.7755C74.9427 76.1083 75.3691 75.5352 75.9594 75.1811C76.5497 74.8269 77.256 74.7203 77.9245 74.8846L113.385 83.11C114.062 83.2688 114.648 83.69 115.015 84.2811C115.381 84.8721 115.498 85.5844 115.339 86.2615L112.541 98.2182Z" fill="white"/>
<path d="M89.2637 103.412L63.0622 112.551C62.9987 112.825 62.9897 113.108 63.0358 113.385C63.0819 113.662 63.1822 113.928 63.3309 114.166C63.4796 114.404 63.6738 114.611 63.9024 114.774C64.131 114.937 64.3895 115.054 64.6632 115.117L107.353 125.025C107.627 125.088 107.91 125.097 108.187 125.051C108.464 125.005 108.73 124.905 108.968 124.756C109.206 124.608 109.413 124.413 109.576 124.185C109.739 123.956 109.855 123.698 109.919 123.424L109.956 123.266L91.6337 104.011C91.3379 103.694 90.9571 103.469 90.5368 103.363C90.1165 103.257 89.6745 103.274 89.2637 103.412Z" fill="#E0E0E0"/>
<path d="M92.1515 84.2593L78.2814 81.0419L77.9524 82.4602L91.8225 85.6777L92.1515 84.2593Z" fill="#E0E0E0"/>
<path d="M108.231 91.7782L77.4517 84.6382L77.0799 86.2407L107.86 93.3807L108.231 91.7782Z" fill="#F5F5F5"/>
<path d="M107.321 95.6823L76.5416 88.5424L76.1699 90.1449L106.949 97.2849L107.321 95.6823Z" fill="#F5F5F5"/>
<path d="M105.544 100.582L104.252 101.004L78.2649 95.3L75.6302 93.0687L75.6807 92.6906L106.357 99.8066L106.238 100.336L105.544 100.582Z" fill="#F5F5F5"/>
<path d="M96.6319 103.563L84.9903 100.866L82.2043 98.5334L99.6006 102.567L96.6319 103.563Z" fill="#F5F5F5"/>
<path d="M88.3055 103.746C87.993 103.91 87.6659 104.045 87.3286 104.149L84.612 105.126C82.3177 105.94 79.1473 107.017 75.6366 108.234C72.1258 109.45 68.9365 110.497 66.6233 111.253L63.8878 112.135C63.5568 112.259 63.215 112.352 62.8667 112.413C63.1816 112.254 63.5082 112.119 63.8437 112.009L66.554 111.032C68.8482 110.219 72.0186 109.141 75.5294 107.925C79.0402 106.709 82.2232 105.662 84.5364 104.906L87.2782 104.03C87.6132 103.91 87.9566 103.815 88.3055 103.746Z" fill="#EBEBEB"/>
<path d="M109.956 123.266C109.893 123.329 105.935 119.277 101.132 114.222C96.3293 109.167 92.4593 105.013 92.5286 104.95C92.598 104.887 96.5499 108.933 101.353 113.995C106.156 119.056 110.026 123.203 109.956 123.266Z" fill="#EBEBEB"/>
<path d="M113.606 97.859C113.351 98.0008 113.086 98.121 112.811 98.2183C112.295 98.4263 111.551 98.7225 110.605 99.0755C108.715 99.7814 106.143 100.721 103.262 101.71C100.382 102.7 97.7474 103.544 95.8376 104.13C94.8795 104.42 94.1042 104.654 93.5685 104.799C93.2951 104.896 93.0119 104.964 92.7239 105C92.9825 104.869 93.2526 104.761 93.5307 104.679L95.7682 103.91L103.155 101.389L110.53 98.8675L112.767 98.1111C113.038 98.0006 113.319 97.9161 113.606 97.859Z" fill="#EBEBEB"/>
<path d="M88.3055 103.746C88.0261 103.558 87.7626 103.347 87.5176 103.116L85.4376 101.376L78.5043 95.7035C75.794 93.4911 73.3611 91.4616 71.6404 89.9425C70.7769 89.1862 70.0835 88.5685 69.6171 88.1273C69.3611 87.9134 69.1268 87.6748 68.9175 87.415C69.1948 87.6061 69.4581 87.8167 69.7054 88.0453L71.7853 89.785L78.7186 95.4576C81.4289 97.67 83.8619 99.7059 85.5826 101.219C86.4461 101.975 87.1394 102.599 87.6058 103.04C87.8605 103.253 88.0948 103.489 88.3055 103.746Z" fill="#EBEBEB"/>
<path d="M112.541 98.2183C112.535 98.1575 112.535 98.0963 112.541 98.0355C112.541 97.9031 112.604 97.7267 112.648 97.5124C112.749 97.0333 112.894 96.3652 113.076 95.5206L114.728 88.1902C114.816 87.7994 114.904 87.4024 114.993 86.999C115.103 86.5979 115.183 86.1892 115.232 85.7762C115.256 85.3476 115.168 84.9202 114.975 84.5365C114.783 84.1528 114.493 83.8261 114.135 83.5891C113.752 83.3472 113.323 83.1883 112.875 83.1226L111.444 82.7949L108.456 82.1079L95.1634 79.0383L81.8704 75.9372L78.8828 75.2376C78.4182 75.1119 77.9468 75.013 77.4709 74.9414C77.028 74.9125 76.5855 75.0032 76.1897 75.2039C75.7938 75.4045 75.4592 75.7079 75.2207 76.0822C75.0079 76.4562 74.8587 76.8631 74.7795 77.2861C74.5526 78.1181 74.3383 78.9185 74.1492 79.6875L72.1701 86.9359C71.9369 87.7742 71.7541 88.4297 71.6154 88.9025C71.5566 89.1126 71.5062 89.2827 71.4642 89.413C71.4529 89.4729 71.4315 89.5304 71.4011 89.5832C71.4011 89.5832 71.4011 89.5202 71.4326 89.4004L71.5524 88.8836C71.6721 88.4108 71.836 87.749 72.0503 86.9044C72.4978 85.1648 73.1344 82.6814 73.9412 79.6308C74.1429 78.8618 74.3509 78.055 74.5715 77.223C74.6563 76.78 74.8139 76.354 75.0379 75.9624C75.2944 75.5518 75.6555 75.2168 76.0842 74.9918C76.5273 74.7566 77.0271 74.6497 77.5276 74.6829C78.02 74.7528 78.5081 74.8496 78.9899 74.9729L81.9775 75.6599L95.2705 78.7357L108.564 81.8179L111.545 82.5175L112.976 82.8516C113.462 82.925 113.928 83.0988 114.343 83.3621C114.737 83.6276 115.054 83.991 115.264 84.4166C115.474 84.8421 115.57 85.3151 115.541 85.7888C115.489 86.2148 115.405 86.6362 115.289 87.0494C115.194 87.4528 115.1 87.8499 115.005 88.2344C114.274 91.3039 113.675 93.7936 113.259 95.5395L112.768 97.525C112.711 97.733 112.667 97.9031 112.629 98.0355C112.609 98.1005 112.579 98.1621 112.541 98.2183Z" fill="#E0E0E0"/>
<path d="M52.158 23.1182L95.8061 15L102.33 44.498L56.9986 52.1561L52.158 23.1182Z" fill="#EBEBEB"/>
<path d="M95.8061 15C95.8061 15 95.8061 15.0441 95.7305 15.1261L95.4847 15.4664L94.514 16.7648L90.915 21.5173C87.7635 25.5323 83.4901 31.06 78.7376 37.1991L78.6557 37.3063L78.5297 37.2432L77.6851 36.7957L59.6018 27.1837L54.1371 24.2402L52.6622 23.4208L52.284 23.2002C52.2382 23.1792 52.1958 23.1516 52.158 23.1182C52.2072 23.1287 52.2542 23.148 52.2966 23.175L52.6937 23.3641L54.2001 24.1267L59.7089 26.982C64.3731 29.4275 70.7707 32.7933 77.8363 36.5121L78.6872 36.9596L78.4792 37.0037L90.7007 21.3786L94.4132 16.6892L95.4343 15.4286L95.7053 15.1071C95.7338 15.0669 95.7677 15.0308 95.8061 15Z" fill="#E0E0E0"/>
<path d="M56.9987 52.1561C56.9231 52.1057 59.7279 47.6557 63.2639 42.2163C66.7998 36.7768 69.737 32.4025 69.8127 32.4529C69.8883 32.5034 67.0835 36.9533 63.5412 42.3928C59.9989 47.8322 57.0743 52.2065 56.9987 52.1561Z" fill="#E0E0E0"/>
<path d="M102.33 44.498C102.273 44.5673 98.1886 41.441 93.2093 37.5206C88.2299 33.6001 84.2401 30.3478 84.2905 30.2659C84.3409 30.1839 88.4316 33.3228 93.4109 37.2496C98.3903 41.1763 102.38 44.4287 102.33 44.498Z" fill="#E0E0E0"/>
<path d="M122.159 43.5146L151.108 50.5299L147.005 70.3717L117.154 62.619L122.159 43.5146Z" fill="#F5F5F5"/>
<path d="M151.109 50.5299C151.009 50.6097 150.901 50.6794 150.787 50.7379L149.842 51.2736L146.325 53.1645L134.588 59.4675L134.469 59.5305L134.387 59.4234L133.99 58.9192L125.582 48.0717C124.535 46.6977 123.691 45.5505 123.06 44.7563L122.386 43.8487C122.303 43.7436 122.229 43.6319 122.165 43.5146C122.268 43.5989 122.359 43.6964 122.436 43.8046L123.161 44.6807C123.791 45.4812 124.68 46.5716 125.764 47.9267C127.958 50.7253 130.952 54.526 134.254 58.7301L134.652 59.2343L134.444 59.1902L146.224 52.9943L149.791 51.1602L150.762 50.6811C150.869 50.614 150.986 50.563 151.109 50.5299Z" fill="#E0E0E0"/>
<path d="M117.154 62.619C117.104 62.5434 120.028 60.5643 123.691 58.2069C127.353 55.8496 130.359 53.9965 130.403 54.0722C130.447 54.1478 127.529 56.127 123.867 58.4843C120.205 60.8416 117.205 62.6947 117.154 62.619Z" fill="#E0E0E0"/>
<path d="M147.012 70.3716C146.936 70.4158 145.272 67.3903 143.299 63.6211C141.326 59.852 139.788 56.7383 139.864 56.7383C139.94 56.7383 141.61 59.7196 143.583 63.4888C145.556 67.258 147.081 70.3338 147.012 70.3716Z" fill="#E0E0E0"/>
<path d="M235.078 183.993L235.784 184.248C236.242 184.426 236.942 184.661 237.87 184.922C240.581 185.678 243.401 185.965 246.208 185.768C248.235 185.628 250.244 185.304 252.212 184.801C254.557 184.226 256.842 183.43 259.037 182.423C264.373 179.899 269.115 176.275 272.952 171.789C274.065 170.549 274.928 169.106 275.496 167.54C276.076 165.9 275.989 164.099 275.255 162.522C274.845 161.739 274.232 161.08 273.48 160.614C272.705 160.141 271.837 159.842 270.936 159.736C269.068 159.514 267.174 159.822 265.473 160.627C264.575 161.02 263.651 161.347 262.706 161.606C261.721 161.864 260.682 161.837 259.711 161.53C259.203 161.385 258.74 161.116 258.363 160.748C257.985 160.379 257.705 159.922 257.548 159.418C257.426 158.902 257.416 158.365 257.518 157.844C257.62 157.323 257.832 156.83 258.14 156.397C258.748 155.52 259.59 154.831 260.569 154.407C261.533 153.98 262.526 153.621 263.539 153.332C267.657 152.007 271.534 150.024 275.019 147.462C275.926 146.833 276.751 146.094 277.474 145.261C278.232 144.46 278.683 143.417 278.746 142.316C278.737 141.774 278.576 141.246 278.282 140.79C277.977 140.332 277.57 139.951 277.093 139.677C276.1 139.136 274.997 138.827 273.868 138.774C272.696 138.721 271.532 138.561 270.389 138.297C269.791 138.156 269.234 137.875 268.765 137.477C268.296 137.079 267.929 136.575 267.692 136.007C267.586 135.704 267.551 135.381 267.589 135.062C267.628 134.744 267.739 134.438 267.915 134.169C268.287 133.677 268.754 133.263 269.289 132.954C270.281 132.318 271.26 131.625 272.208 130.9C274.123 129.438 275.922 127.831 277.589 126.092C279.242 124.33 280.921 122.499 281.958 120.285C282.498 119.194 282.756 117.985 282.708 116.768C282.634 115.549 282.147 114.392 281.328 113.487C280.502 112.589 279.46 111.918 278.301 111.538C277.142 111.157 275.905 111.079 274.708 111.311C272.324 111.828 270.163 113.078 268.526 114.886C265.174 118.416 263.52 123.071 260.773 126.932C260.096 127.904 259.332 128.813 258.49 129.647C258.078 130.083 257.607 130.458 257.09 130.76C256.818 130.927 256.508 131.02 256.189 131.031C255.871 131.042 255.554 130.971 255.271 130.824C255.016 130.646 254.8 130.417 254.636 130.153C254.472 129.888 254.363 129.593 254.317 129.285C254.238 128.7 254.238 128.108 254.317 127.523C254.392 126.972 254.371 126.413 254.254 125.869C254.117 125.343 253.84 124.864 253.452 124.483C253.062 124.103 252.6 123.805 252.094 123.605C251.587 123.405 251.046 123.308 250.501 123.319C249.411 123.388 248.38 123.838 247.589 124.591C246.788 125.321 246.159 126.217 245.744 127.218C245.343 128.219 245.078 129.269 244.955 130.341C244.822 131.409 244.784 132.477 244.746 133.521C244.707 134.564 244.676 135.651 244.644 136.701C244.572 138.821 244.502 140.902 244.434 142.946C244.396 143.97 244.377 144.981 244.326 146.005C244.287 147.023 244.092 148.029 243.747 148.988C243.58 149.476 243.307 149.922 242.947 150.292C242.587 150.663 242.151 150.949 241.667 151.131C240.696 151.414 239.656 151.346 238.729 150.941C236.956 150.187 235.396 149.008 234.188 147.506C233.598 146.785 233.091 146 232.674 145.166C232.294 144.348 231.869 143.552 231.402 142.781C230.971 142.039 230.297 141.468 229.494 141.165C228.685 140.922 227.814 140.983 227.046 141.337C226.284 141.67 225.617 142.188 225.106 142.844C224.622 143.501 224.283 144.253 224.114 145.051C223.865 146.623 223.724 148.211 223.694 149.802C223.586 151.354 223.535 152.874 223.516 154.343C223.485 157.12 223.653 159.896 224.018 162.649C224.324 165.044 224.841 167.406 225.564 169.709C225.856 170.784 226.289 171.763 226.639 172.717C226.836 173.181 227.052 173.627 227.275 174.066C227.497 174.504 227.663 174.937 227.911 175.338C229.221 177.827 230.917 180.094 232.935 182.054C233.226 182.361 233.539 182.648 233.87 182.912L234.576 183.51L235.136 184L234.551 183.536L233.838 182.95C233.503 182.692 233.186 182.409 232.891 182.105C230.849 180.155 229.131 177.892 227.803 175.401C227.569 174.988 227.357 174.564 227.167 174.129C226.963 173.69 226.734 173.245 226.531 172.774C226.174 171.82 225.736 170.866 225.437 169.766C224.702 167.454 224.176 165.081 223.866 162.675C223.483 159.917 223.304 157.134 223.331 154.35C223.331 152.874 223.395 151.354 223.497 149.796C223.528 148.19 223.666 146.588 223.91 145C224.087 144.171 224.438 143.388 224.941 142.704C225.473 142.014 226.171 141.47 226.969 141.121C227.792 140.737 228.727 140.669 229.596 140.93C230.46 141.251 231.189 141.857 231.663 142.647C232.131 143.427 232.555 144.231 232.935 145.058C233.341 145.872 233.839 146.638 234.417 147.341C235.605 148.805 237.133 149.956 238.869 150.693C239.738 151.069 240.711 151.134 241.623 150.877C242.067 150.706 242.468 150.44 242.798 150.097C243.128 149.754 243.378 149.343 243.531 148.893C244.23 147.055 244.078 144.981 244.167 142.94C244.256 140.898 244.3 138.806 244.37 136.701C244.402 135.645 244.434 134.583 244.472 133.521C244.51 132.458 244.542 131.364 244.682 130.283C244.804 129.192 245.074 128.122 245.483 127.103C245.909 126.06 246.561 125.124 247.391 124.362C248.242 123.571 249.342 123.101 250.501 123.033C251.089 123.022 251.674 123.129 252.22 123.348C252.766 123.566 253.263 123.892 253.681 124.305C254.11 124.726 254.416 125.256 254.565 125.838C254.695 126.414 254.721 127.008 254.642 127.593C254.565 128.148 254.565 128.711 254.642 129.266C254.676 129.53 254.764 129.784 254.902 130.012C255.04 130.24 255.225 130.436 255.443 130.589C255.677 130.71 255.939 130.768 256.203 130.756C256.467 130.744 256.722 130.662 256.944 130.519C257.434 130.23 257.881 129.875 258.273 129.463C259.096 128.639 259.845 127.745 260.512 126.792C261.827 124.816 263.039 122.774 264.144 120.673C265.272 118.516 266.667 116.51 268.297 114.701C269.98 112.842 272.205 111.559 274.657 111.032C275.911 110.788 277.207 110.87 278.42 111.27C279.634 111.67 280.725 112.374 281.589 113.315C282.456 114.276 282.972 115.502 283.052 116.794C283.102 118.065 282.833 119.329 282.27 120.47C281.201 122.747 279.503 124.591 277.818 126.366C276.139 128.117 274.328 129.735 272.399 131.205C271.445 131.937 270.459 132.624 269.461 133.272C268.966 133.557 268.534 133.938 268.189 134.392C268.038 134.619 267.942 134.878 267.909 135.148C267.876 135.419 267.906 135.693 267.998 135.95C268.219 136.467 268.559 136.925 268.99 137.286C269.421 137.647 269.93 137.902 270.478 138.03C271.602 138.291 272.747 138.447 273.9 138.494C275.077 138.555 276.225 138.881 277.258 139.448C277.768 139.751 278.203 140.167 278.53 140.663C278.854 141.169 279.032 141.754 279.045 142.355C278.992 143.538 278.521 144.665 277.716 145.535C276.965 146.387 276.111 147.141 275.172 147.78C271.659 150.359 267.752 152.354 263.603 153.688C262.6 153.969 261.618 154.322 260.665 154.744C259.73 155.148 258.929 155.81 258.356 156.652C258.069 157.049 257.87 157.503 257.772 157.983C257.674 158.464 257.68 158.96 257.79 159.438C257.937 159.894 258.194 160.307 258.539 160.64C258.884 160.973 259.306 161.215 259.768 161.346C260.69 161.639 261.676 161.663 262.611 161.415C263.543 161.162 264.454 160.841 265.339 160.455C267.087 159.639 269.027 159.327 270.942 159.552C271.878 159.672 272.777 159.988 273.582 160.481C274.373 160.97 275.017 161.664 275.445 162.49C276.208 164.129 276.295 166.003 275.687 167.706C275.109 169.301 274.228 170.77 273.092 172.03C269.234 176.529 264.465 180.158 259.1 182.677C256.893 183.683 254.595 184.475 252.238 185.043C250.26 185.538 248.242 185.855 246.208 185.991C243.387 186.169 240.555 185.859 237.839 185.075C237.134 184.875 236.44 184.639 235.759 184.369L235.078 183.993Z" fill="#263238"/>
<path d="M238.634 176.234C240.989 169.46 243.73 162.826 246.844 156.366C247.658 154.648 248.466 152.944 249.268 151.278C250.069 149.611 250.851 147.951 251.729 146.374C253.414 143.358 255.263 140.436 257.268 137.623C259.176 134.926 261.084 132.433 262.859 130.118C264.633 127.803 266.37 125.666 268.017 123.809C270.602 120.846 273.418 118.092 276.437 115.573C277.506 114.682 278.346 114.014 278.937 113.575L279.605 113.073C279.678 113.013 279.757 112.96 279.84 112.914L279.63 113.105L278.994 113.633C278.428 114.097 277.595 114.778 276.539 115.687C273.566 118.246 270.788 121.022 268.227 123.993C266.599 125.869 264.9 128 263.139 130.315C261.377 132.63 259.475 135.136 257.586 137.833C255.598 140.639 253.764 143.552 252.091 146.558C251.22 148.123 250.438 149.77 249.643 151.443L247.226 156.531C244.115 162.977 241.369 169.594 239.003 176.349" fill="#263238"/>
<path d="M251.837 146.361C251.751 146.067 251.696 145.764 251.672 145.458C251.583 144.879 251.481 144.034 251.379 142.984C251.163 140.892 250.966 137.998 250.743 134.799C250.521 131.6 250.298 128.712 250.056 126.633C249.935 125.589 249.827 124.725 249.745 124.165C249.681 123.866 249.655 123.561 249.668 123.255C249.774 123.542 249.85 123.838 249.897 124.139C250.018 124.718 250.164 125.558 250.323 126.594C250.641 128.674 250.921 131.574 251.125 134.773C251.328 137.972 251.5 140.784 251.634 142.965C251.703 143.944 251.761 144.778 251.805 145.445C251.849 145.749 251.86 146.056 251.837 146.361Z" fill="#263238"/>
<path d="M278.893 142.38C278.538 142.442 278.178 142.47 277.818 142.463C277.124 142.501 276.126 142.545 274.886 142.641C272.418 142.812 269.015 143.162 265.276 143.722C261.962 144.218 258.738 144.809 255.736 145.477C254.527 145.744 253.554 145.98 252.88 146.113C252.533 146.219 252.178 146.293 251.818 146.336C252.145 146.176 252.488 146.052 252.842 145.967C253.478 145.763 254.47 145.484 255.679 145.185C258.083 144.549 261.453 143.875 265.219 143.308C268.418 142.821 271.64 142.498 274.873 142.342C276.113 142.278 277.118 142.278 277.811 142.291C278.174 142.281 278.536 142.311 278.893 142.38Z" fill="#263238"/>
<path d="M238.984 175.751C238.911 175.649 238.853 175.538 238.812 175.42L238.392 174.428C238.03 173.569 237.533 172.31 236.948 170.746C235.772 167.616 234.283 163.247 232.706 158.401C231.129 153.554 229.679 149.172 228.566 146.031C228.025 144.498 227.574 143.239 227.243 142.304C227.103 141.897 226.982 141.566 226.887 141.286C226.837 141.17 226.803 141.048 226.785 140.924C226.859 141.026 226.917 141.14 226.957 141.261L227.383 142.246C227.745 143.111 228.235 144.371 228.82 145.935C229.997 149.058 231.491 153.434 233.069 158.28C234.646 163.126 236.726 168.202 237.839 171.35C238.379 172.883 238.195 173.436 238.526 174.371C238.672 174.778 238.786 175.115 238.882 175.388C238.931 175.505 238.965 175.626 238.984 175.751Z" fill="#263238"/>
<path d="M275.121 165.632C275.006 165.691 274.884 165.736 274.758 165.766L273.709 166.071L269.842 167.158C266.573 168.081 262.077 169.41 257.122 170.879C252.473 172.253 248.148 173.499 244.351 174.485C242.71 174.918 241.375 175.248 240.446 175.458L239.378 175.694C239.256 175.73 239.13 175.749 239.003 175.751C239.117 175.69 239.239 175.645 239.365 175.617L240.414 175.312L244.281 174.224C247.55 173.302 252.047 171.973 257.001 170.504C261.956 169.035 266.484 167.75 269.772 166.898C271.413 166.465 272.749 166.135 273.671 165.925L274.739 165.689C274.863 165.653 274.992 165.634 275.121 165.632Z" fill="#263238"/>
<path d="M125.966 195.028H239.257V146.628C239.258 144.472 238.834 142.337 238.009 140.345C237.185 138.352 235.976 136.542 234.451 135.017C232.927 133.492 231.117 132.282 229.125 131.457C227.133 130.632 224.998 130.207 222.842 130.207H142.388C138.033 130.207 133.856 131.937 130.776 135.017C127.696 138.096 125.966 142.273 125.966 146.628V195.028Z" fill="#455A64"/>
<path d="M140.652 130.207H158.65C160.415 130.207 162.107 130.908 163.354 132.155C164.602 133.403 165.303 135.095 165.303 136.859V194.182C165.303 194.406 165.214 194.622 165.055 194.78C164.897 194.939 164.681 195.028 164.457 195.028H126.819C126.594 195.028 126.379 194.939 126.22 194.78C126.062 194.622 125.973 194.406 125.973 194.182V144.892C125.973 140.998 127.519 137.264 130.272 134.51C133.024 131.756 136.758 130.209 140.652 130.207Z" fill="#455A64"/>
<path d="M134.323 195.028V146.558C134.323 142.223 136.045 138.065 139.11 134.998C142.176 131.932 146.333 130.209 150.669 130.207H139.017C139.017 130.207 125.337 132.026 125.337 149.147C125.337 166.268 125.776 195.028 125.776 195.028H134.323Z" fill="#263238"/>
<path d="M165.303 190.423H70.2527V195.817H165.303V190.423Z" fill="#263238"/>
<path d="M242.958 190.423H165.303V195.817H242.958V190.423Z" fill="#455A64"/>
<path d="M165.303 193.12C165.295 193.057 165.295 192.993 165.303 192.929C165.303 192.783 165.303 192.592 165.303 192.357C165.303 191.835 165.303 191.085 165.303 190.175C165.303 188.267 165.303 185.526 165.303 182.155C165.335 175.357 165.385 166.014 165.443 155.685C165.443 153.103 165.525 150.597 165.366 148.155C165.256 145.826 164.846 143.522 164.145 141.299C163.117 138.143 161.125 135.39 158.449 133.427C155.774 131.463 152.55 130.388 149.231 130.353C148.807 130.339 148.382 130.35 147.959 130.385C147.652 130.396 147.346 130.426 147.043 130.474L146.484 130.55H146.286L146.477 130.506L147.037 130.398C147.339 130.336 147.645 130.296 147.953 130.277C148.375 130.227 148.8 130.205 149.225 130.213C151.928 130.2 154.589 130.877 156.958 132.178C160.539 134.078 163.225 137.314 164.431 141.184C165.151 143.433 165.579 145.765 165.703 148.123C165.862 150.565 165.812 153.097 165.786 155.679C165.691 166.001 165.608 175.35 165.544 182.143C165.5 185.513 165.462 188.248 165.436 190.169C165.436 191.098 165.398 191.829 165.392 192.35V192.916C165.369 192.987 165.339 193.055 165.303 193.12Z" fill="#263238"/>
<path d="M242.424 190.29C242.424 190.379 224.731 190.487 202.916 190.525C181.101 190.563 163.408 190.525 163.408 190.423C163.408 190.322 181.088 190.226 202.916 190.188C224.743 190.15 242.424 190.201 242.424 190.29Z" fill="#263238"/>
<path d="M242.424 196.033C242.424 196.122 224.858 196.147 203.202 196.09C181.546 196.033 163.974 195.912 163.98 195.817C163.986 195.721 181.534 195.702 203.202 195.759C224.871 195.817 242.424 195.938 242.424 196.033Z" fill="#263238"/>
<path d="M232.197 184.267C232.197 184.267 232.197 184.184 232.197 184.038C232.197 183.892 232.197 183.656 232.197 183.37C232.197 182.779 232.197 181.92 232.197 180.826C232.197 178.594 232.166 175.344 232.147 171.235L232.242 171.337L181.406 171.401C181.476 171.331 181.235 171.566 181.565 171.235V184.273L181.4 184.114L217.652 184.184L228.343 184.229H231.231H231.981H232.242C232.161 184.235 232.081 184.235 232 184.229H231.269H228.42L217.767 184.273L181.4 184.349H181.241V184.184C181.241 182.064 181.241 179.923 181.241 177.761V171.146C181.572 170.815 181.337 171.057 181.413 170.981L232.248 171.044H232.35V171.146C232.35 175.28 232.306 178.549 232.293 180.801C232.293 181.903 232.293 182.751 232.293 183.345C232.293 183.618 232.293 183.834 232.293 183.981C232.273 184.08 232.241 184.176 232.197 184.267Z" fill="#263238"/>
<path d="M203.488 174.581V180.4H202.897V175.757L200.62 179.662H200.327L198.051 175.783V180.4H197.465V174.6H197.968L200.512 178.899L203.005 174.6L203.488 174.581Z" fill="#263238"/>
<path d="M209.015 178.829H205.784L205.085 180.381H204.449L207.101 174.581H207.705L210.357 180.381H209.721L209.015 178.829ZM208.793 178.333L207.4 175.217L206.007 178.333H208.793Z" fill="#263238"/>
<path d="M211.318 174.581H211.954V180.4H211.318V174.581Z" fill="#263238"/>
<path d="M213.823 174.581H214.459V179.847H217.709V180.4H213.849L213.823 174.581Z" fill="#263238"/>
<path d="M225.666 116.94V107.4H207.858V145.649C206.416 146.501 205.298 147.808 204.68 149.364C204.061 150.921 203.978 152.638 204.442 154.247C204.906 155.856 205.891 157.266 207.243 158.254C208.595 159.242 210.237 159.753 211.911 159.707C213.585 159.66 215.197 159.059 216.492 157.997C217.787 156.935 218.692 155.473 219.066 153.841C219.44 152.208 219.261 150.498 218.557 148.978C217.854 147.459 216.665 146.216 215.178 145.445V116.94H225.666Z" fill="#4E9594"/>
<path d="M211.89 154.947C213.499 154.947 214.803 153.643 214.803 152.034C214.803 150.426 213.499 149.121 211.89 149.121C210.281 149.121 208.977 150.426 208.977 152.034C208.977 153.643 210.281 154.947 211.89 154.947Z" fill="#263238"/>
<path d="M156.602 157.555L165.284 157.44L164.947 186.932L156.889 187.25L156.602 157.555Z" fill="#EBEBEB"/>
<path d="M156.889 187.25C158.077 185.714 159.351 184.247 160.705 182.855C161.989 181.387 163.356 179.994 164.8 178.683C163.596 180.216 162.309 181.683 160.946 183.078C159.672 184.542 158.317 185.935 156.889 187.25Z" fill="#263238"/>
<path d="M165.284 167.375C163.722 165.877 162.236 164.302 160.832 162.656C159.342 161.085 157.934 159.437 156.615 157.72C158.179 159.216 159.665 160.791 161.067 162.439C162.555 164.012 163.962 165.66 165.284 167.375Z" fill="#263238"/>
<path d="M109.443 157.11L153.486 148.918L160.069 178.683L114.327 186.404L109.443 157.11Z" fill="#E0E0E0"/>
<path d="M153.486 148.918C153.486 148.918 153.486 148.962 153.41 149.039L153.162 149.389L152.182 150.699L148.519 155.488C145.377 159.546 141.065 165.123 136.263 171.318L136.18 171.426L136.06 171.362L135.201 170.911L116.954 161.212L111.446 158.235L109.952 157.415L109.57 157.192C109.524 157.168 109.481 157.138 109.443 157.103L109.583 157.161L109.984 157.351L111.504 158.14C112.846 158.833 114.735 159.819 117.069 161.021L135.354 170.618L136.206 171.07L135.996 171.114L148.328 155.348L152.074 150.616C152.513 150.082 152.856 149.656 153.104 149.344C153.219 149.217 153.308 149.109 153.378 149.02L153.486 148.918Z" fill="#263238"/>
<path d="M114.327 186.404C114.251 186.353 117.081 181.863 120.656 176.374C124.23 170.885 127.181 166.472 127.257 166.522C127.334 166.573 124.503 171.064 120.897 176.552C117.291 182.041 114.404 186.455 114.327 186.404Z" fill="#263238"/>
<path d="M160.069 178.683C160.011 178.753 155.89 175.598 150.866 171.636C145.841 167.674 141.815 164.405 141.873 164.335C141.93 164.265 146.045 167.413 151.075 171.375C156.106 175.337 160.158 178.606 160.069 178.683Z" fill="#263238"/>
</g>
<defs>
<clipPath id="clip0">
<rect width="326.325" height="196" fill="white" transform="translate(0.337646)"/>
</clipPath>
</defs>
</svg>
